<?xml version="1.0" encoding="UTF-8" standalone="no"?>
<!-- Created with Inkscape (http://www.inkscape.org/) -->

<svg
   width="160.89198mm"
   height="160.89175mm"
   viewBox="0 0 160.89198 160.89175"
   version="1.1"
   id="svg15898"
   sodipodi:docname="logo_new.svg"
   inkscape:version="1.1 (c68e22c387, 2021-05-23)"
   xmlns:inkscape="http://www.inkscape.org/namespaces/inkscape"
   xmlns:sodipodi="http://sodipodi.sourceforge.net/DTD/sodipodi-0.dtd"
   xmlns="http://www.w3.org/2000/svg"
   xmlns:svg="http://www.w3.org/2000/svg">
  <sodipodi:namedview
     id="namedview15900"
     pagecolor="#ffffff"
     bordercolor="#666666"
     borderopacity="1.0"
     inkscape:pageshadow="2"
     inkscape:pageopacity="0.0"
     inkscape:pagecheckerboard="0"
     inkscape:document-units="mm"
     showgrid="false"
     inkscape:zoom="0.74246212"
     inkscape:cx="216.17264"
     inkscape:cy="507.09658"
     inkscape:window-width="1778"
     inkscape:window-height="1068"
     inkscape:window-x="2669"
     inkscape:window-y="245"
     inkscape:window-maximized="0"
     inkscape:current-layer="layer1"
     inkscape:snap-global="true"
     inkscape:snap-nodes="false"
     inkscape:object-paths="true"
     inkscape:snap-smooth-nodes="true"
     fit-margin-top="0"
     fit-margin-left="0"
     fit-margin-right="0"
     fit-margin-bottom="0" />
  <defs
     id="defs15895" />
  <g
     inkscape:label="Layer 1"
     inkscape:groupmode="layer"
     id="layer1"
     transform="translate(-17.866492,-31.674763)">
    <path
       id="path9676"
       style="fill:#ff0000;fill-opacity:1;stroke:none;stroke-width:0.529167;stroke-miterlimit:4;stroke-dasharray:none;stroke-opacity:1"
       d="M 98.312742,31.674763 A 80.445998,80.445702 0 0 0 17.866492,112.1205 80.445998,80.445702 0 0 0 43.90883,171.37528 c 3.006119,-0.54764 10.152096,-0.96736 10.686168,-0.52607 0.705848,0.58323 2.20086,0.60075 4.495332,0.0527 1.566426,-0.37417 2.55515,-0.46256 3.52175,-0.29714 v -1.75958 -23.72052 h -1.800408 -1.800923 l -2.280997,-6.62801 c -1.254543,-3.64538 -2.280997,-6.97409 -2.280997,-7.39697 0,-0.61669 0.80803,-0.76894 4.081921,-0.76894 H 62.61208 V 118.8529 107.37505 h -3.946012 -3.94653 l -4.693253,-7.01404 c -2.581262,-3.857849 -4.613804,-7.098114 -4.517036,-7.200595 0.09675,-0.102899 5.270024,0.126947 11.496456,0.510048 15.317766,0.942329 67.189325,0.942329 82.507105,0 6.22643,-0.383101 11.44594,-0.579448 11.59826,-0.436666 0.15235,0.14278 -1.77336,3.325511 -4.27932,7.072953 l -4.55632,6.81354 -4.04833,0.25476 -4.04833,0.25528 -0.14624,11.35021 -0.14677,11.35022 h 4.3646 c 2.40035,0 4.35883,0.17253 4.35218,0.38292 -0.007,0.21043 -1.06889,3.48115 -2.36057,7.2688 l -2.3487,6.88692 -1.99316,0.15865 -1.99316,0.15813 v 17.86919 c 0.75373,-0.14791 1.52675,-0.29617 2.13114,-0.37 l 2.80293,-0.34262 0.90124,0.68265 c 0.49556,0.3754 1.55607,0.87893 2.35644,1.11931 0.80036,0.24038 2.05001,0.65763 2.77761,0.92708 0.72761,0.26946 1.79917,0.63613 2.38125,0.81442 0.58209,0.17829 3.70492,1.55771 6.93911,3.06544 0.25182,0.1174 0.40964,0.18766 0.65422,0.30128 A 80.445998,80.445702 0 0 0 178.75848,112.1205 80.445998,80.445702 0 0 0 98.312742,31.674763 Z M 73.496686,107.37505 v 11.47785 11.47786 h 9.796301 9.796301 V 118.8529 107.37505 h -9.796301 z m 30.477214,0 v 11.47785 11.47786 h 9.52396 9.52397 V 118.8529 107.37505 h -9.52397 z m -30.477214,37.74963 v 23.72052 3.6003 c 1.40779,-1.22763 1.897721,-1.34694 4.47208,-1.15394 2.245858,0.16838 2.55614,0.13396 3.383256,-0.37723 0.500872,-0.30955 1.604378,-0.7423 2.452047,-0.9617 1.827708,-0.47306 3.152783,-1.08851 5.069973,-2.35438 0.995031,-0.65698 1.710531,-0.93224 2.421559,-0.93224 0.555003,0 2.538746,-0.47789 4.408516,-1.06195 1.869769,-0.58407 4.054639,-1.1743 4.855003,-1.31104 5.16131,-0.88183 7.11278,-1.37448 11.37708,-2.87269 2.76807,-0.97253 3.35135,-1.10432 4.87619,-1.10432 1.40643,0 1.7176,0.11925 3.81734,1.46657 0.77641,0.49819 1.56436,0.97564 2.3921,1.48622 V 145.12468 H 98.259516 Z m 43.475384,16.24966 c -0.74976,0 -2.8665,0.60797 -5.56504,1.59887 -2.47266,0.90797 -5.29632,1.62336 -9.3927,2.37918 -1.74625,0.3222 -4.572371,1.04735 -6.280241,1.61127 -1.707861,0.56391 -3.519429,1.02526 -4.025593,1.02526 -0.619929,0 -1.549423,0.38026 -2.84789,1.16582 -1.060188,0.64141 -2.820498,1.42957 -3.911904,1.75132 -1.091406,0.32176 -2.497479,0.87747 -3.124359,1.23506 -1.076153,0.61388 -1.28574,0.63984 -3.757909,0.46458 l -2.618446,-0.18553 -1.26297,1.11157 c -0.283842,0.24984 -0.495755,0.43063 -0.688332,0.57929 v 3.40547 c 2.142392,-0.39107 2.643976,-0.61049 3.349151,-1.29397 0.653302,-0.6332 1.088382,-0.82527 1.868102,-0.82527 0.666358,0 1.461164,-0.2734 2.306836,-0.79375 2.139989,-1.31675 2.76204,-1.14314 4.589385,1.2826 0.93431,1.24026 2.126785,1.96367 4.014743,2.43448 1.310854,0.3269 1.44086,0.30859 3.042708,-0.43098 1.666539,-0.76944 1.694773,-0.77266 6.833174,-0.77721 3.511305,-0.003 5.539685,-0.11731 6.349995,-0.35709 2.45779,-0.7273 4.94165,-1.59567 6.35,-2.22002 0.80036,-0.35481 2.26325,-0.86094 3.25097,-1.12448 1.78424,-0.47607 1.8032,-0.47548 2.93935,0.092 0.62896,0.31411 1.22638,0.57154 1.32757,0.57154 0.10118,0 0.73139,0.24919 1.40043,0.55397 0.56056,0.25537 1.22904,0.48614 1.90273,0.69247 v -6.47558 -4.03386 c -1.08232,-0.62704 -2.41515,-1.45827 -4.41937,-2.77554 -0.55352,-0.3638 -1.2872,-0.66146 -1.63039,-0.66146 z m 21.28346,2.18539 -2.90732,0.47439 c -0.41375,0.0675 -0.94905,0.1947 -1.44126,0.29714 v 4.54495 7.87549 l 1.44436,-0.0837 0.77721,0.81959 c 0.50007,0.52747 1.03534,0.8201 1.5012,0.8201 0.39817,0 1.06118,0.28368 1.4733,0.63045 0.58774,0.49456 1.16254,0.65586 2.77812,0.78549 a 80.445998,80.445702 0 0 0 11.98428,-9.48521 c -1.23544,-0.56698 -2.56154,-1.17221 -3.43286,-1.5844 -1.30968,-0.61957 -2.85751,-1.27587 -3.43959,-1.45831 -0.58207,-0.18244 -1.59411,-0.55476 -2.24895,-0.82786 -0.65484,-0.27309 -2.02406,-0.74647 -3.04271,-1.05161 -1.01864,-0.30514 -2.21062,-0.82507 -2.64893,-1.15549 z m -76.438751,8.1778 c -0.795366,-0.0307 -1.726858,0.14682 -3.201871,0.51676 -2.189575,0.54917 -2.264648,0.55086 -3.496426,0.0816 -1.808001,-0.68868 -6.683878,-0.58902 -9.996289,0.0672 a 80.445998,80.445702 0 0 0 11.131103,8.21966 c 3.314459,-0.10244 5.002035,-0.2145 6.358784,-0.44752 v -8.29562 c -0.261192,-0.0619 -0.518364,-0.13142 -0.795301,-0.14211 z m 55.451391,2.75332 c -0.78387,-0.0815 -2.7363,0.4766 -4.93509,1.43351 -1.66524,0.72471 -2.91962,1.15009 -5.41879,1.83813 -1.66496,0.45836 -2.75679,0.54576 -6.87917,0.5488 -2.695063,0.002 -5.167853,0.075 -5.495272,0.16278 -0.679284,0.18204 -0.805834,0.62735 -0.178285,0.62735 0.229421,0 1.390277,0.40811 2.579688,0.90692 1.66951,0.70015 2.645246,0.93332 4.279329,1.02371 1.78263,0.0986 2.48466,0.28898 4.44882,1.20561 2.21743,1.03484 6.96415,2.40941 8.38347,2.42776 0.3638,0.005 1.25676,0.30147 1.98437,0.65939 0.7276,0.35792 1.46342,0.65187 1.63556,0.65319 0.17214,0.001 1.12465,0.65566 2.11667,1.45418 1.24033,0.99842 1.79014,1.33657 2.44171,1.4304 a 80.445998,80.445702 0 0 0 0.79065,-0.30127 v -11.93622 c -1.99048,-0.55651 -4.62334,-1.51722 -5.49217,-2.05982 -0.0616,-0.0385 -0.1495,-0.0628 -0.26149,-0.0744 z m -34.258369,0.66973 c -0.373584,0.0279 -0.864968,0.23985 -1.444355,0.63355 -0.626692,0.42585 -1.340258,0.66146 -2.004013,0.66146 -0.803425,0 -1.253796,0.20106 -2.03967,0.91105 -0.621548,0.56154 -1.395166,0.97183 -2.016413,1.06919 -0.554384,0.0869 -1.438532,0.27172 -1.964738,0.41134 -0.01421,0.004 -0.02944,0.003 -0.04393,0.007 v 9.61544 a 80.445998,80.445702 0 0 0 24.816056,4.0969 80.445998,80.445702 0 0 0 21.937162,-3.1135 c -0.36067,-0.26575 -0.7894,-0.62459 -1.40611,-1.15342 -0.63895,-0.5479 -1.26881,-0.9958 -1.39992,-0.9958 -0.13109,0 -1.00256,-0.35719 -1.93631,-0.79375 -0.93375,-0.43656 -2.03482,-0.79375 -2.44688,-0.79375 -0.6963,0 -2.17788,-0.34415 -5.09375,-1.18236 -0.65485,-0.18824 -2.20265,-0.77096 -3.43958,-1.29501 -1.82097,-0.77149 -2.58571,-0.95365 -4.01991,-0.95756 -1.470312,-0.004 -2.12219,-0.1672 -3.836462,-0.95964 -1.462728,-0.67617 -2.653253,-1.01693 -4.081405,-1.16892 -3.511666,-0.37372 -5.668565,-1.17208 -7.276557,-2.69286 -0.7737,-0.73172 -1.477756,-1.5547 -1.564762,-1.82882 -0.108643,-0.34231 -0.364873,-0.49817 -0.738457,-0.47026 z m 50.897149,2.96364 v 5.93245 a 80.445998,80.445702 0 0 0 6.37997,-3.38325 c -1.02746,-0.1132 -1.50054,-0.28606 -1.9792,-0.68471 -0.41134,-0.3426 -1.09312,-0.6227 -1.51516,-0.6227 -0.52739,0 -0.9034,-0.20805 -1.20251,-0.66456 -0.28166,-0.42987 -0.74217,-0.54312 -1.6831,-0.57723 z m -72.109289,3.58738 -1.455209,0.14314 c -0.295103,0.029 -1.013103,0.0594 -1.873787,0.0884 a 80.445998,80.445702 0 0 0 1.443321,0.85989 c 0.0047,-2e-4 0.01196,-0.004 0.01654,-0.004 0.300196,-0.003 0.843878,-0.24926 1.20768,-0.54674 z m 0.814419,1.14308 c -0.05097,0.0348 -0.12749,0.0642 -0.175184,0.0992 -0.330853,0.24287 -0.671729,0.4622 -0.960665,0.6258 a 80.445998,80.445702 0 0 0 1.135849,0.50436 z" />
    <g
       id="g23241"
       style="stroke:#ff0000;stroke-opacity:1"
       transform="translate(-5.753255,-9.3196327)">
      <path
         id="path658-6-2"
         style="fill:none;fill-opacity:1;stroke:#ff0000;stroke-width:2.3;stroke-miterlimit:4;stroke-dasharray:none;stroke-opacity:1"
         d="M 486.69271,483.31381 V 439.933 H 450.69623 414.6997 v 43.38081 43.38093 h 35.99653 35.99648 v -43.38093 0"
         transform="scale(0.26458333)" />
      <path
         id="path21900"
         style="fill:none;fill-opacity:1;stroke:#ff0000;stroke-width:2.3;stroke-miterlimit:4;stroke-dasharray:none;stroke-opacity:1"
         d="M 373.56081,483.31381 V 439.933 h -37.02497 -37.02501 v 43.38081 43.38093 h 37.02501 37.02497 v -43.38093 0"
         transform="scale(0.26458333)" />
      <path
         id="path21898"
         style="fill:none;fill-opacity:1;stroke:#ff0000;stroke-width:2.3;stroke-miterlimit:4;stroke-dasharray:none;stroke-opacity:1"
         d="m 258.37192,730.19754 v -57.93649 -89.65349 h -6.80594 -6.80599 l -8.6211,-25.05082 c -4.7416,-13.77778 -8.6211,-26.3582 -8.6211,-27.95649 0,-2.33079 3.05333,-2.90551 15.42709,-2.90551 h 15.42704 V 483.31381 439.933 H 243.45681 228.5417 l -17.73812,-26.51047 c -9.75594,-14.58085 -17.43885,-26.82732 -17.0731,-27.21464 0.36548,-0.38892 19.9192,0.48011 43.4522,1.92805 57.89394,3.56156 253.94425,3.56156 311.83822,0 23.53296,-1.44794 43.25836,-2.19096 43.83405,-1.65132 0.57582,0.53964 -6.70242,12.56935 -16.1738,26.7329 l -17.22066,25.7517 -15.30021,0.96378 -15.30021,0.9642 -0.55355,42.89881 -0.55363,42.89873 h 16.49492 c 9.07219,0 16.47436,0.65072 16.44926,1.4459 -0.0265,0.79532 -4.04001,13.1588 -8.92195,27.47433 l -8.87634,26.02828 -7.53358,0.59879 -7.53358,0.59841 v 89.5372 58.60162"
         transform="scale(0.26458333)" />
      <path
         id="path21894"
         style="fill:none;fill-opacity:1;stroke:#ff0000;stroke-width:2.3;stroke-miterlimit:4;stroke-dasharray:none;stroke-opacity:1"
         d="m 486.6927,747.58647 10e-6,-75.32542 v -89.65349 h -93.59089 -93.59099 v 89.65349 74.7727"
         transform="scale(0.26458333)" />
    </g>
  </g>
</svg>
