<?xml version="1.0" encoding="UTF-8" standalone="no"?>
<!-- Created with Inkscape (http://www.inkscape.org/) -->

<svg
   width="274.60684mm"
   height="47.346275mm"
   viewBox="0 0 274.60684 47.346275"
   version="1.1"
   id="svg16645"
   inkscape:version="1.1 (c68e22c387, 2021-05-23)"
   sodipodi:docname="moutain_silhouette.svg"
   xmlns:inkscape="http://www.inkscape.org/namespaces/inkscape"
   xmlns:sodipodi="http://sodipodi.sourceforge.net/DTD/sodipodi-0.dtd"
   xmlns="http://www.w3.org/2000/svg"
   xmlns:svg="http://www.w3.org/2000/svg">
  <sodipodi:namedview
     id="namedview16647"
     pagecolor="#ffffff"
     bordercolor="#666666"
     borderopacity="1.0"
     inkscape:pageshadow="2"
     inkscape:pageopacity="0.0"
     inkscape:pagecheckerboard="0"
     inkscape:document-units="mm"
     showgrid="false"
     fit-margin-top="0"
     fit-margin-left="0"
     fit-margin-right="0"
     fit-margin-bottom="0"
     inkscape:zoom="1.0494603"
     inkscape:cx="524.07888"
     inkscape:cy="193.90918"
     inkscape:window-width="1471"
     inkscape:window-height="1088"
     inkscape:window-x="563"
     inkscape:window-y="216"
     inkscape:window-maximized="0"
     inkscape:current-layer="layer1" />
  <defs
     id="defs16642" />
  <g
     inkscape:label="Layer 1"
     inkscape:groupmode="layer"
     id="layer1"
     transform="translate(57.429523,-135.78485)">
    <path
       style="fill:#000000;stroke-width:0.264583"
       d="m 182.53207,182.68048 c -0.37232,-0.2537 -1.50898,-1.13974 -2.52591,-1.96898 -2.99847,-2.44504 -5.32024,-3.15832 -6.71903,-2.06417 -0.90858,0.7107 -2.06987,0.65728 -3.25768,-0.14985 -0.87647,-0.59558 -1.17055,-0.65762 -2.39304,-0.50488 -1.00438,0.12549 -1.67539,0.0565 -2.40175,-0.24702 -1.19523,-0.4994 -2.61903,-0.53708 -4.21046,-0.11144 -1.78108,0.47637 -4.16829,-0.0351 -7.59398,-1.62701 -1.60086,-0.74393 -3.59225,-1.76359 -4.42531,-2.26593 -1.68436,-1.01567 -2.80575,-1.14998 -4.08376,-0.4891 -0.64558,0.33385 -1.1704,0.38167 -2.43425,0.22182 -0.88617,-0.11209 -3.15904,-0.21864 -5.05081,-0.23677 -1.89177,-0.0181 -3.69527,-0.12211 -4.00778,-0.23104 -0.36025,-0.12557 -1.0865,-0.001 -1.98437,0.3402 -1.72045,0.6539 -3.30807,0.67895 -6.14381,0.0969 -2.12544,-0.43623 -2.17079,-0.43432 -3.73904,0.15722 -2.51436,0.94843 -2.68021,0.95346 -3.88414,0.11788 -1.00406,-0.69686 -1.35847,-0.77515 -4.29367,-0.94841 -5.14597,-0.30376 -7.15116,-0.51024 -7.41938,-0.76398 -0.40791,-0.38591 -3.95095,-0.2717 -5.20548,0.16779 -0.63676,0.22308 -2.195706,1.0031 -3.464336,1.73338 -2.46795,1.42068 -3.22757,1.512 -5.02245,0.6038 -0.39296,-0.19883 -0.9826,-0.36152 -1.31032,-0.36152 -0.32772,0 -0.9754,-0.36786 -1.43927,-0.81746 -0.75006,-0.72699 -1.07631,-0.83749 -2.94731,-0.99828 -1.32921,-0.11423 -2.33851,-0.34972 -2.74106,-0.63956 -0.35044,-0.25232 -0.883015,-0.6358 -1.183505,-0.85216 -0.3005,-0.21638 -1.13394,-0.45721 -1.85209,-0.53519 -3.12763,-0.33961 -5.0644,-0.78821 -5.97802,-1.38464 -0.94488,-0.61684 -0.98935,-0.62105 -1.85208,-0.17536 -0.48618,0.25116 -1.30068,0.72938 -1.81,1.06271 -0.50932,0.33333 -2.1762,1.16301 -3.70417,1.84373 -1.52797,0.68071 -3.06026,1.531 -3.40509,1.88952 -0.44977,0.46764 -0.78625,0.60229 -1.190621,0.47645 -1.660405,-0.5167 -2.992014,-0.62772 -5.987623,-0.49921 -4.159528,0.17845 -6.477506,0.66163 -10.31875,2.15094 -1.67349,0.64883 -4.292865,1.58937 -5.820833,2.09008 -1.527969,0.50071 -3.501184,1.26927 -4.384919,1.70792 -1.575546,0.78203 -1.67074,0.79548 -4.894791,0.6913 -3.464663,-0.11195 -6.014731,-0.5911 -7.168227,-1.34691 -0.512109,-0.33554 -1.165243,-0.43898 -2.507183,-0.39707 -0.99807,0.0312 -2.063853,-0.0252 -2.36841,-0.12533 -0.374759,-0.12317 -0.788363,0.003 -1.279634,0.389 -0.696266,0.54768 -0.884084,0.56329 -4.601336,0.38257 -2.131494,-0.10362 -4.0235752,-0.31135 -4.2046262,-0.4616 -0.231307,-0.19197 -0.874144,-0.10768 -2.16204,0.28351 -1.239372,0.37645 -2.553269,0.55671 -4.057716,0.55671 -2.22217004,0 -2.22917804,-0.002 -5.785983,-1.79703 -3.358054,-1.69456 -4.6590663,-2.26061 -7.9804478,-3.47216 -0.763984,-0.27868 -2.246016,-0.82249 -3.293406,-1.20845 -1.65586,-0.61019 -2.380848,-0.7122 -5.55625,-0.78178 -3.098479,-0.0679 -3.812291,-0.006 -4.710239,0.40647 -3.734889,1.71689 -5.688869,2.44458 -6.987311,2.60219 -1.646108,0.1998 -2.068597,0.38775 -3.584954,1.59477 -0.709316,0.56462 -1.229591,0.78787 -1.612266,0.69182 -0.393035,-0.0986 -0.882939,0.13034 -1.609611,0.75235 -1.521344,1.30221 -3.994002,2.26774 -5.843197,2.28168 -0.841129,0.006 -2.065108,0.13272 -2.719951,0.28086 -2.455488,0.55547 -2.644374,0.56318 -3.298481,0.13459 -0.880685,-0.57704 -1.547038,-0.53698 -2.149992,0.12928 -0.852138,0.9416 -1.854413,1.29583 -3.666513,1.29583 -1.518032,0 -1.732931,-0.0615 -1.732931,-0.4961 0,-0.53067 0.903182,-0.82682 2.521582,-0.82682 0.604413,0 1.204466,-0.28116 1.976335,-0.92604 1.238945,-1.03511 2.393591,-1.20557 3.398479,-0.50172 0.406527,0.28474 0.839306,0.36314 1.315643,0.23833 0.39041,-0.1023 1.84093,-0.2746 3.223378,-0.38288 2.778615,-0.21765 4.461111,-0.87198 6.593883,-2.56437 0.772439,-0.61294 1.349428,-0.88141 1.698261,-0.79019 0.333893,0.0873 0.877069,-0.13504 1.475908,-0.6042 1.37959,-1.08082 1.884418,-1.29764 3.481494,-1.49532 1.382436,-0.1711 4.375717,-1.31074 6.858786,-2.61134 1.130522,-0.59216 1.39764,-0.61872 5.291666,-0.52612 3.784984,0.09 4.253973,0.15738 6.085417,0.87409 1.091406,0.42711 3.455924,1.32368 5.2544825,1.99238 1.7985583,0.6687 4.2393393,1.74162 5.4239583,2.38426 2.50242096,1.35753 5.055404,2.26729 6.362501,2.26729 0.504928,0 1.88391,-0.31154 3.064404,-0.69231 2.072405,-0.66845 2.18494,-0.67757 3.266329,-0.26458 0.7933642,0.30299 1.9956122,0.42772 4.1226082,0.42772 2.592255,0 3.125988,-0.0762 3.905207,-0.55782 0.642541,-0.39711 1.108904,-0.50481 1.618729,-0.37382 0.393885,0.1012 1.57842,0.16486 2.632295,0.14145 1.576252,-0.035 2.05686,0.0576 2.709465,0.52233 0.43633,0.3107 1.240941,0.626 1.788028,0.70067 0.547084,0.0747 1.440942,0.32348 1.986351,0.55288 1.50672,0.63376 5.566937,0.315 7.134397,-0.56011 0.640556,-0.35761 1.991273,-0.90549 3.001592,-1.21751 1.010319,-0.31201 2.253663,-0.72514 2.762986,-0.91808 8.305911,-3.1463 9.4993,-3.45442 14.83901,-3.83129 3.114357,-0.2198 4.131262,-0.20167 5.271074,0.094 1.304216,0.33831 1.444213,0.32918 1.829733,-0.11935 0.22961,-0.26713 1.73848,-1.0753 3.35304,-1.79594 1.61457,-0.72065 3.41579,-1.61341 4.00272,-1.98392 1.0506,-0.66322 2.86138,-1.50141 3.24357,-1.50141 0.10744,0 0.65844,0.31931 1.22445,0.70958 1.01535,0.70009 2.28083,1.01935 5.13015,1.29423 2.20632,0.21286 2.47753,0.30152 3.564355,1.16522 0.78657,0.62509 1.27282,0.8011 2.22671,0.80604 1.80402,0.009 3.17563,0.39895 3.96191,1.12542 0.38394,0.35473 1.54647,0.91691 2.58341,1.2493 l 1.88535,0.60433 2.34799,-1.35445 c 3.316576,-1.9132 4.374896,-2.22566 7.029616,-2.07546 1.20864,0.0684 2.9119,0.25844 3.78503,0.42235 0.87312,0.16391 3.33882,0.40479 5.47933,0.5353 3.61986,0.2207 3.95624,0.2864 4.8134,0.9402 l 0.92156,0.70291 1.58947,-0.57955 c 1.32588,-0.48344 1.90976,-0.55142 3.52097,-0.4099 5.40887,0.47507 5.9438,0.48022 6.74675,0.065 0.66212,-0.34239 1.57619,-0.38376 5.66012,-0.25618 5.53446,0.17291 6.94818,0.16394 9.82209,-0.0623 1.91679,-0.1509 2.09639,-0.11859 2.94678,0.53003 0.49807,0.37989 2.48285,1.41184 4.41063,2.2932 3.8265,1.74945 4.52978,1.86221 8.88359,1.42429 1.49307,-0.15017 2.04915,-0.1004 2.7129,0.24284 0.63084,0.32622 1.23882,0.39363 2.4876,0.27583 1.52756,-0.1441 1.74105,-0.096 2.81901,0.63531 l 1.16629,0.79122 0.94565,-0.64259 c 1.9873,-1.3504 4.57076,-0.5795 8.40869,2.50915 1.34831,1.08507 2.49517,1.81884 2.72802,1.7454 1.07827,-0.34011 5.67424,-0.6325 7.62478,-0.48509 l 2.19597,0.16596 1.29578,-1.40211 1.29578,-1.40211 1.59131,0.16632 c 1.57034,0.16413 1.60739,0.1524 2.81257,-0.89068 2.0711,-1.79252 2.57999,-1.96349 4.67024,-1.56909 2.03232,0.38347 2.35013,0.32234 6.50708,-1.25154 1.85865,-0.7037 2.80189,-1.24578 3.87615,-2.22761 l 1.41978,-1.29758 v 0.94317 c 0,0.80982 -0.1783,1.0841 -1.26106,1.93998 -0.69358,0.54824 -1.66394,1.14903 -2.15635,1.33509 -0.49242,0.18606 -1.55014,0.60678 -2.35051,0.93494 -2.56069,1.04992 -4.25278,1.31863 -6.062,0.96268 -1.81134,-0.35636 -1.94466,-0.31228 -3.87138,1.27987 -1.23057,1.01688 -1.39683,1.07567 -3.04203,1.07567 h -1.74033 l -1.25982,1.45924 c -0.71432,0.82739 -1.38587,1.38135 -1.55092,1.27934 -0.25027,-0.15467 -2.60954,-0.3521 -4.30164,-0.35997 -1.65251,-0.008 -5.06362,0.3522 -5.27844,0.55689 -0.38263,0.36458 -0.99951,0.28511 -1.7485,-0.22527 z M -56.83421,172.11061 c -0.414733,-0.0799 -0.595313,-0.30214 -0.595313,-0.7327 0,-0.60852 0.03279,-0.61579 2.127664,-0.47221 2.269947,0.15559 4.45585,-0.28427 6.375027,-1.28281 0.529136,-0.27531 1.128544,-0.50056 1.332016,-0.50056 0.203473,0 0.580947,-0.35719 0.838831,-0.79375 0.394235,-0.66739 0.634128,-0.79375 1.5069,-0.79375 0.570911,0 1.486914,-0.16844 2.035562,-0.37431 0.548648,-0.20588 1.84668,-0.44353 2.884515,-0.52811 1.037835,-0.0846 2.407054,-0.38978 3.042708,-0.67821 1.487835,-0.6751 2.710697,-0.67374 3.627448,0.004 0.549724,0.40643 0.884771,0.483 1.35393,0.30945 0.34289,-0.12684 3.680139,-0.17559 7.416105,-0.10832 l 6.792671,0.1223 1.784094,-0.85147 c 1.713428,-0.81774 1.895977,-0.84835 4.60883,-0.77289 1.599684,0.0445 3.2263525,-0.0504 3.7507805,-0.21883 2.0194913,-0.64858 3.3931103,-0.93745 5.2916673,-1.11279 1.091406,-0.1008 2.34156196,-0.37738 2.77812496,-0.61462 0.436562,-0.23723 1.94509004,-0.98866 3.35228404,-1.66984 1.407194,-0.68117 2.887985,-1.58237 3.290647,-2.00266 0.402661,-0.42029 0.977728,-0.76681 1.277924,-0.77004 0.300196,-0.003 0.843468,-0.24928 1.20727,-0.54676 l 0.661458,-0.54086 -1.455208,0.14298 c -0.800365,0.0787 -4.163081,0.17022 -7.47270704,0.2035 l -6.01749496,0.0605 -0.874265,-0.84737 c -0.75896,-0.73562 -1.0581353,-0.84738 -2.2683873,-0.84738 -1.057039,0 -1.597763,-0.1525 -2.2363615,-0.63074 -0.463233,-0.34692 -1.139899,-0.72 -1.503701,-0.82908 -0.363803,-0.10908 -1.078177,-0.52579 -1.5875,-0.92603 -0.509323,-0.40023 -2.300079,-1.49634 -3.979458,-2.43579 -3.780443,-2.11479 -4.448193,-2.52919 -5.280958,-3.27726 -0.363802,-0.32681 -1.291799,-0.84124 -2.062213,-1.14319 -1.303488,-0.51086 -1.456592,-0.52011 -2.204862,-0.13317 -0.633008,0.32735 -0.97671,0.35565 -1.615289,0.13304 -0.446151,-0.15553 -1.172695,-0.28278 -1.614543,-0.28278 -0.461458,0 -1.064801,-0.24561 -1.417656,-0.5771 -0.603936,-0.56736 -0.620921,-0.56848 -1.007342,-0.0661 -0.216177,0.28102 -0.466761,0.80861 -0.556854,1.17241 -0.09009,0.3638 -0.775556,1.24335 -1.523252,1.95454 -0.747695,0.71119 -1.484182,1.66369 -1.636636,2.11667 -0.202248,0.60092 -0.845957,1.2017 -2.380915,2.22214 -1.157049,0.76921 -2.602764,1.88834 -3.212699,2.48694 -1.280274,1.2565 -2.234977,1.49739 -6.035447,1.5229 -2.100565,0.0141 -2.583966,0.11292 -4.101041,0.83843 -1.913061,0.91487 -4.381144,1.82296 -4.954614,1.82296 -0.232787,0 -0.341954,-0.21563 -0.289309,-0.57145 0.0623,-0.42111 0.432592,-0.68956 1.407465,-1.02039 0.727604,-0.24692 2.096822,-0.8421 3.042708,-1.32262 1.606959,-0.81635 1.959619,-0.88674 5.375236,-1.07291 l 3.655446,-0.19925 1.371638,-1.24833 c 0.754401,-0.68659 2.132866,-1.73889 3.063256,-2.33846 1.329123,-0.85653 1.761846,-1.30274 2.019343,-2.08232 0.271048,-0.82059 0.265535,-0.99218 -0.03187,-0.99218 -0.197779,0 -0.55463,0.29765 -0.793002,0.66146 -0.238372,0.3638 -0.600055,0.66145 -0.803738,0.66145 -0.319989,0 -1.249439,-1.21805 -1.50325,-1.97002 -0.153052,-0.45345 -1.927228,0.87549 -3.661648,2.74273 -1.939724,2.08828 -2.699524,2.41025 -4.305305,1.82443 -0.777126,-0.28351 -1.331539,-0.32644 -1.982551,-0.15351 -0.74693,0.19841 -1.02238,0.1449 -1.5875,-0.30838 -0.376068,-0.30164 -1.106629,-0.73036 -1.623468,-0.9527 -0.516839,-0.22234 -1.151577,-0.76292 -1.410529,-1.20129 -0.354091,-0.59943 -0.599842,-0.75609 -0.991218,-0.63187 -0.715744,0.22717 -1.288754,-0.32144 -1.288754,-1.23387 0,-0.83679 0.05764,-0.87721 0.731195,-0.51275 0.252686,0.13673 0.794843,0.3196 1.204791,0.40637 0.446462,0.0945 0.923917,0.47065 1.190625,0.93799 0.244895,0.42911 0.794721,0.90258 1.221834,1.05214 0.427113,0.14956 0.996377,0.47085 1.26503,0.71398 0.319601,0.28924 1.011533,0.45781 2.001555,0.48762 0.832202,0.0251 1.849219,0.13786 2.260037,0.25065 0.685699,0.18825 0.888348,0.0501 2.471589,-1.68458 1.681077,-1.84191 3.548474,-3.20652 4.387965,-3.20652 0.228941,0 0.713339,0.35306 1.076442,0.78459 0.564437,0.67079 0.706853,0.72835 0.981958,0.39687 0.354245,-0.42684 1.50634,-0.51 2.074985,-0.14979 0.513336,0.32519 1.825105,-0.4878 2.016313,-1.24964 0.08555,-0.34086 0.449946,-1.0861 0.809766,-1.6561 0.785551,-1.24439 1.717133,-1.37687 2.74977,-0.39106 0.722066,0.68933 2.265801,0.87616 4.327992,0.52381 1.285338,-0.21963 3.040317,0.41589 4.81461,1.74347 2.263407,1.69355 2.196745,1.68728 3.954981,0.37199 1.828152,-1.3676 2.690831,-1.47187 4.247102,-0.51333 1.185243,0.73001 3.260103,0.89368 4.5468385,0.35866 1.593868,-0.66272 11.1780453,-1.31131 11.7987203,-0.79845 0.705848,0.58323 2.200765,0.60074 4.495242,0.0527 2.623108,-0.62658 3.6274432,-0.5533 5.6175332,0.40988 1.283663,0.62127 4.928653,1.74724 6.6861,2.06539 0.725125,0.13127 1.025093,0.0137 1.852083,-0.72568 1.63971,-1.46607 1.984195,-1.56527 4.722802,-1.35995 2.245857,0.16838 2.556298,0.13375 3.383415,-0.37744 0.500872,-0.30955 1.604221,-0.74233 2.451888,-0.96173 1.82771,-0.47306 3.152843,-1.08838 5.070033,-2.35425 0.995031,-0.65698 1.710223,-0.9324 2.421251,-0.9324 0.555004,0 2.538909,-0.47788 4.408678,-1.06195 1.869768,-0.58407 4.054425,-1.17383 4.854789,-1.31057 5.161312,-0.88183 7.112789,-1.37459 11.377083,-2.8728 2.768077,-0.97253 3.351415,-1.10468 4.876255,-1.10468 1.40644,0 1.71793,0.1197 3.81767,1.46702 1.25746,0.80685 3.00066,1.88992 3.87379,2.4068 1.79894,1.06497 1.54168,1.08061 6.2177,-0.37796 1.38245,-0.43122 3.77497,-0.93811 5.316703,-1.12643 l 2.80316,-0.34241 0.901,0.68255 c 0.49556,0.3754 1.55585,0.87923 2.35622,1.11961 0.80036,0.24038 2.05052,0.65753 2.77812,0.92698 0.72761,0.26946 1.79917,0.63581 2.38125,0.8141 0.58209,0.17829 3.70449,1.55777 6.938676,3.0655 3.23419,1.50773 5.9542,2.74132 6.04447,2.74132 0.0903,0 1.02593,0.4319 2.07925,0.95977 l 1.91513,0.95977 5.20985,-0.70051 c 2.86542,-0.38527 5.77248,-0.89152 6.46014,-1.12499 1.06513,-0.36162 1.62254,-0.38165 3.76389,-0.13526 1.38247,0.15907 4.47812,0.36891 6.87922,0.46631 3.8509,0.15621 4.53719,0.25428 5.82083,0.83179 0.80036,0.3601 1.91106,0.76309 2.46821,0.89555 0.89058,0.21174 1.10885,0.16018 1.80623,-0.42663 0.95772,-0.80586 1.38525,-0.82746 2.73702,-0.1383 1.3423,0.68435 1.69709,0.66782 3.22714,-0.15035 1.05459,-0.56392 1.49583,-0.65351 2.59369,-0.52664 0.72761,0.0841 3.46604,0.25552 6.08542,0.38096 6.20182,0.297 6.85055,0.40996 10.41994,1.81434 1.65639,0.65171 3.73999,1.40101 4.63021,1.66512 0.89023,0.26411 1.97653,0.62353 2.41401,0.79872 0.7334,0.29369 0.96795,0.22308 3.00876,-0.90577 1.21734,-0.67336 2.25486,-1.22429 2.3056,-1.22429 0.0507,0 0.743,-0.29766 1.53835,-0.66146 1.45392,-0.66504 3.42983,-0.88088 3.72291,-0.40667 0.0866,0.14013 0.54011,0.36975 1.0078,0.51026 1.62922,0.4895 5.17191,1.84452 6.05073,2.31432 2.31625,1.23821 2.71713,1.23522 4.97276,-0.0371 0.35649,-0.20108 1.39255,-0.44532 2.30236,-0.54276 1.41806,-0.15186 1.78439,-0.0967 2.56624,0.38653 2.2264,1.37599 5.53248,1.93816 8.56672,1.45669 0.83609,-0.13267 1.29249,-0.0638 1.80565,0.27243 0.55568,0.3641 0.84201,0.39585 1.50027,0.16638 0.44744,-0.15597 0.84788,-0.28359 0.8899,-0.28359 0.20722,0 -0.0342,1.21624 -0.27493,1.38501 -0.46683,0.32727 -2.36506,0.20756 -2.87848,-0.18154 -0.35838,-0.27162 -0.67681,-0.30017 -1.2233,-0.10966 -1.30487,0.45488 -5.24722,0.0862 -7.11864,-0.66575 -0.9255,-0.37186 -1.84733,-0.81273 -2.04852,-0.9797 -0.24042,-0.19953 -0.86055,-0.24177 -1.80926,-0.12324 -1.32131,0.16509 -3.17909,1.01707 -6.41573,2.94226 -0.84014,0.49972 -0.84725,0.49927 -1.66731,-0.10703 -0.99098,-0.73267 -2.01338,-0.60433 -2.92619,0.36732 -0.74029,0.788 -2.01955,1.17051 -3.95548,1.18272 -0.80036,0.005 -2.28864,0.24037 -3.30729,0.52294 -1.01865,0.28257 -2.04678,0.51723 -2.28473,0.52146 -0.23796,0.004 -1.72624,0.81138 -3.3073,1.79365 l -2.87464,1.78593 -3.43958,0.0243 c -3.25764,0.023 -3.74731,0.10036 -6.75394,1.06726 -0.22216,0.0714 -0.75794,-0.17454 -1.19062,-0.54664 -0.43268,-0.3721 -0.91327,-0.67669 -1.06798,-0.67687 -0.15471,-1.6e-4 -1.07092,-0.47656 -2.03603,-1.05864 l -1.75474,-1.05834 h -3.18413 c -3.3796,0 -4.5179,-0.26854 -6.36512,-1.50164 -0.73148,-0.4883 -1.28077,-0.61502 -2.66581,-0.61502 -1.57443,0 -2.12944,-0.17021 -5.69327,-1.74596 -6.71272,-2.96805 -6.12623,-2.81402 -10.00541,-2.62775 l -3.4108,0.16377 -2.80691,1.36605 -2.8069,1.36605 -3.11612,-0.029 c -2.96326,-0.0275 -3.16248,-0.0643 -4.06144,-0.75 -0.82128,-0.62643 -1.11195,-0.70131 -2.21515,-0.57065 -0.69841,0.0827 -2.62123,0.69064 -4.27294,1.35095 -1.65171,0.6603 -3.41982,1.27764 -3.92915,1.37187 -0.50932,0.0942 -1.60689,0.39444 -2.43904,0.66714 -0.83216,0.2727 -2.097946,0.49582 -2.812866,0.49582 -1.17463,0 -1.36791,-0.0892 -2.00619,-0.92604 -0.6889,-0.9032 -0.75211,-0.92604 -2.56234,-0.92604 -1.0208,0 -2.10146,-0.13136 -2.40145,-0.29191 -0.29999,-0.16055 -1.51255,-0.3565 -2.69458,-0.43544 -1.73769,-0.11605 -2.29234,-0.26278 -2.89706,-0.76642 -0.41134,-0.3426 -1.09321,-0.6229 -1.51525,-0.6229 -0.52739,0 -0.90344,-0.2077 -1.20255,-0.66421 -0.42978,-0.65592 -0.47531,-0.66334 -3.651363,-0.59531 -2.49359,0.0534 -3.4523,-0.0283 -4.26725,-0.36376 -0.5781,-0.23796 -1.91713,-0.56549 -2.97563,-0.72785 -1.73335,-0.26586 -6.01076,-1.72784 -7.1659,-2.44924 -0.49268,-0.30768 -2.684153,0.26536 -5.19706,1.35897 -1.665239,0.72471 -2.919468,1.15019 -5.41864,1.83823 -1.664948,0.45836 -2.756786,0.54541 -6.879166,0.54845 -2.695062,0.002 -5.168,0.0754 -5.495422,0.16315 -0.679281,0.18204 -0.805728,0.62699 -0.178179,0.62699 0.229423,0 1.390283,0.40812 2.579688,0.90693 1.669507,0.70015 2.645137,0.93362 4.27922,1.02401 1.782643,0.0986 2.484702,0.28884 4.448863,1.20548 2.217427,1.03484 6.964105,2.40947 8.383428,2.42782 0.363802,0.005 1.256768,0.3014 1.984378,0.65932 0.7276,0.35792 1.46377,0.65186 1.63591,0.65319 0.17215,0.001 1.12465,0.65575 2.11667,1.45427 1.49541,1.20374 1.98454,1.45405 2.862,1.46464 0.58209,0.007 1.77271,0.18526 2.64584,0.39609 2.23907,0.54064 3.45463,0.4941 4.34811,-0.16647 0.62665,-0.46331 0.97298,-0.52831 2.0398,-0.38284 0.70675,0.0964 1.708,0.18223 2.22499,0.19079 1.476283,0.0245 4.608973,-1.69532 6.641053,-3.64579 l 1.76021,-1.68953 h 1.82724 c 1.20818,0 2.00124,0.13301 2.34083,0.39259 0.28247,0.21592 0.95003,0.51546 1.48346,0.66564 1.44435,0.40666 6.975546,1.05391 9.026936,1.05633 1.92429,0.002 3.71329,0.69112 5.34704,2.05889 1.62203,1.35796 4.00872,2.07178 8.20407,2.4537 2.23521,0.20348 3.78152,0.49742 7.27604,1.38313 1.2447,0.31548 1.58396,0.31542 2.34525,-5.3e-4 0.66578,-0.2762 2.03246,-0.35407 5.42396,-0.30903 4.25155,0.0565 4.60625,0.023 5.69541,-0.53728 1.24042,-0.63809 1.57952,-0.63893 4.94313,-0.0122 1.65033,0.30748 2.03018,0.29668 3.21691,-0.0915 0.7401,-0.24208 2.72516,-0.51893 4.41126,-0.61523 l 3.06563,-0.17509 1.69727,0.8615 c 2.45635,1.24677 4.16549,1.22353 6.94064,-0.0944 1.14159,-0.54214 2.45569,-1.2756 2.92022,-1.62991 1.06532,-0.81257 1.57246,-0.80929 2.78996,0.018 l 0.97457,0.66223 0.99889,-0.67786 c 0.84986,-0.57673 1.2564,-0.66979 2.72487,-0.62372 0.94929,0.0298 2.08317,-0.0737 2.51973,-0.2299 2.79839,-1.00145 3.74976,-1.12168 7.57189,-0.95693 l 3.8052,0.16403 2.61125,-0.95525 c 1.43618,-0.52529 2.88556,-0.95515 3.22084,-0.95515 0.33528,0 0.98,0.31167 1.43271,0.6926 1.38461,1.16507 3.81894,0.73258 7.72498,-1.37246 1.23319,-0.66459 3.47526,-0.48418 5.1608,0.41527 1.64828,0.87958 2.35194,0.96727 3.11717,0.38847 0.28249,-0.21366 0.91016,-0.38847 1.39488,-0.38847 0.48469,0 1.66904,-0.35718 2.63186,-0.79375 0.96282,-0.43656 1.77874,-0.79375 1.81319,-0.79375 0.0345,0 0.0626,0.30932 0.0626,0.68737 0,0.59011 -0.24215,0.796 -1.71138,1.45521 -0.94125,0.42231 -2.06166,0.76784 -2.48978,0.76784 -0.42812,0 -1.07416,0.1938 -1.43568,0.43066 -0.86157,0.56453 -2.10415,0.35768 -4.10419,-0.68322 -1.6783,-0.87346 -3.16424,-1.03828 -3.68658,-0.4089 -0.18115,0.21828 -0.4466,0.39688 -0.58988,0.39688 -0.14328,0 -1.05143,0.38224 -2.01812,0.84943 -1.33342,0.64443 -2.20814,0.87428 -3.62428,0.95236 -1.70207,0.0939 -1.93871,0.0423 -2.68402,-0.58485 -0.44956,-0.37828 -0.96231,-0.68778 -1.13945,-0.68778 -0.17713,0 -1.46497,0.42807 -2.86185,0.95127 l -2.53979,0.95126 -4.2437,-0.0758 c -4.22592,-0.0755 -5.63953,0.11132 -7.29378,0.96403 -0.44776,0.23081 -1.21226,0.29549 -2.31299,0.19568 -1.47039,-0.13333 -1.75564,-0.0753 -2.69893,0.54892 -1.30294,0.86225 -1.493,0.86384 -2.73059,0.0229 l -0.99355,-0.67514 -0.76668,0.54593 c -0.42167,0.30025 -1.69885,0.99102 -2.83818,1.53503 -1.91208,0.91299 -2.24457,0.98732 -4.32045,0.96585 -1.85757,-0.0192 -2.50666,-0.14584 -3.7297,-0.7276 -1.2408,-0.59021 -1.84274,-0.70435 -3.71472,-0.70435 -1.2287,0 -2.91966,0.17859 -3.7577,0.39687 -1.82926,0.47647 -4.22894,0.50932 -6.27863,0.086 -1.37242,-0.28347 -1.62781,-0.25822 -2.89279,0.28596 -1.31567,0.56598 -1.59689,0.58714 -5.434,0.40875 -3.51165,-0.16325 -4.21785,-0.12652 -5.34255,0.27792 -1.40324,0.5046 -1.52254,0.49316 -6.42075,-0.61568 -1.23692,-0.28001 -3.14192,-0.58859 -4.23333,-0.68573 -4.24755,-0.37804 -6.92723,-1.18509 -8.59896,-2.58978 -1.42421,-1.19671 -2.9197,-1.79761 -4.47382,-1.79761 -1.66235,0 -7.056466,-0.65294 -9.019926,-1.09182 -0.7276,-0.16264 -1.69416,-0.5193 -2.14789,-0.79257 -0.45374,-0.27328 -1.26363,-0.49686 -1.79975,-0.49686 -0.83893,0 -1.24014,0.24886 -2.87918,1.78594 -1.40392,1.31656 -2.49548,2.05578 -4.15339,2.81268 -1.23692,0.56471 -2.457873,1.13162 -2.713223,1.2598 -0.30081,0.15099 -0.80127,0.0922 -1.42137,-0.16685 -1.29845,-0.54253 -2.00961,-0.50348 -3.15674,0.17335 -0.93089,0.54924 -1.06733,0.559 -3.25627,0.23305 -1.25657,-0.18711 -3.01209,-0.41661 -3.90114,-0.51 -1.65877,-0.17424 -1.79313,-0.24343 -3.7786,-1.94596 -0.63895,-0.5479 -1.269,-0.99618 -1.4001,-0.99618 -0.1311,0 -1.00234,-0.35719 -1.93609,-0.79375 -0.933748,-0.43656 -2.034861,-0.79375 -2.446918,-0.79375 -0.696301,0 -2.177833,-0.34379 -5.093705,-1.182 -0.654844,-0.18824 -2.202657,-0.77103 -3.439584,-1.29508 -1.820973,-0.77149 -2.586037,-0.95374 -4.020237,-0.95766 -1.470303,-0.004 -2.122194,-0.16706 -3.836459,-0.9595 -1.462735,-0.67617 -2.653376,-1.01726 -4.081526,-1.16925 -3.511666,-0.37372 -5.668414,-1.1718 -7.276406,-2.69258 -0.7737,-0.73173 -1.477915,-1.55471 -1.564921,-1.82884 -0.217286,-0.68461 -1.023588,-0.62437 -2.182365,0.16304 -0.626692,0.42585 -1.34066,0.66145 -2.004414,0.66145 -0.803426,0 -1.253591,0.20111 -2.039462,0.9111 -0.621551,0.56153 -1.395198,0.97169 -2.016445,1.06905 -0.554384,0.0869 -1.438505,0.27219 -1.964711,0.41182 -0.526206,0.13963 -1.258533,0.25387 -1.627394,0.25387 -0.368858,0 -1.571842,0.46087 -2.673294,1.02416 -1.101453,0.56329 -2.803895,1.22543 -3.783208,1.47142 -1.084062,0.27231 -2.265397,0.80316 -3.019999,1.35709 -0.6816862,0.50041 -1.4122992,0.90983 -1.6235822,0.90983 -0.211283,0 -0.910902,0.41039 -1.55471,0.91197 -0.643808,0.50159 -2.657644,1.65831 -4.475191,2.5705 -2.85336504,1.43204 -3.57561104,1.68387 -5.289008,1.84415 -2.084287,0.19499 -5.0002283,0.81133 -5.5998743,1.18364 -0.194286,0.12063 -1.722469,0.18819 -3.3959595,0.15013 -2.814992,-0.064 -3.141715,-0.0186 -4.365625,0.60693 -1.317418,0.67334 -1.350962,0.67613 -8.069791,0.67116 -3.710781,-0.003 -7.427576,0.0717 -8.259545,0.16543 -1.170104,0.13182 -1.662325,0.0724 -2.173503,-0.26258 -0.86116,-0.56426 -1.430763,-0.54609 -2.83337,0.0904 -0.751374,0.34094 -1.752792,0.52865 -2.873164,0.53854 -0.97846,0.009 -2.004919,0.17818 -2.38125,0.39331 -0.363802,0.20797 -1.19724,0.38382 -1.852083,0.39077 -1.063234,0.0113 -1.254581,0.11139 -1.78837,0.93542 -0.361278,0.55772 -0.811551,0.92277 -1.138206,0.92277 -0.297254,0 -0.980769,0.22426 -1.518922,0.49836 -2.330557,1.18703 -5.637447,1.65832 -8.188356,1.167 z m 223.4277,-10.85209 c 1.15956,-0.34423 2.28739,-0.43624 4.61798,-0.37671 l 3.0837,0.0788 2.47255,-1.51613 c 1.35989,-0.83388 2.77019,-1.66723 3.134,-1.8519 0.97513,-0.49498 5.42111,-1.40535 7.47064,-1.52971 1.53645,-0.0932 1.91155,-0.22178 2.72118,-0.93265 0.79052,-0.69408 1.1541,-0.82453 2.29811,-0.82453 0.80364,0 1.52972,0.15394 1.77673,0.37668 0.34639,0.31236 0.49817,0.31766 0.88893,0.031 0.43039,-0.31575 0.3753,-0.39569 -0.63586,-0.92274 -1.53336,-0.79923 -7.96489,-3.18909 -8.5824,-3.18909 -0.27819,0 -2.21427,0.84422 -4.30239,1.87604 l -3.7966,1.87604 -1.23427,-0.43154 c -0.67886,-0.23734 -2.00819,-0.66127 -2.95407,-0.94205 -0.94589,-0.28078 -2.6723,-0.88382 -3.83646,-1.34009 -3.69996,-1.4501 -4.51902,-1.60006 -10.05417,-1.84072 -2.91042,-0.12654 -5.73729,-0.30837 -6.28195,-0.40406 -0.7797,-0.13699 -1.27097,-0.0272 -2.31023,0.51619 -1.5911,0.83196 -2.3099,0.85953 -3.87079,0.14847 l -1.18914,-0.54172 -0.8143,0.68519 c -0.71328,0.60019 -0.9639,0.66275 -2.02036,0.50432 -0.66333,-0.0995 -2.08357,-0.58075 -3.15608,-1.06951 -1.88451,-0.8588 -2.06282,-0.88872 -5.30879,-0.89091 -1.84732,-10e-4 -4.70563,-0.12148 -6.35179,-0.26719 -2.4324,-0.2153 -3.25012,-0.19255 -4.36563,0.12149 -1.98425,0.5586 -8.65235,1.47088 -10.75109,1.47088 -1.56493,0 -2.11423,-0.14846 -4.27828,-1.15632 -1.36555,-0.63598 -3.73297,-1.72111 -5.26094,-2.4114 -1.52797,-0.69029 -3.849686,-1.76199 -5.159376,-2.38156 -1.30968,-0.61957 -2.8575,-1.27575 -3.43958,-1.45819 -0.58208,-0.18244 -1.59412,-0.55516 -2.24896,-0.82826 -0.65484,-0.2731 -2.02406,-0.74621 -3.04271,-1.05135 -1.01864,-0.30514 -2.21071,-0.82514 -2.64903,-1.15556 l -0.79696,-0.60077 -2.90721,0.47445 c -1.598965,0.26095 -4.028415,0.84072 -5.398785,1.28837 -1.37037,0.44766 -2.99531,0.81392 -3.61098,0.81392 -1.21537,0 -2.66827,-0.7702 -7.73615,-4.10104 -0.55352,-0.3638 -1.2872,-0.66146 -1.63039,-0.66146 -0.74976,0 -2.866751,0.60834 -5.565281,1.59924 -2.472658,0.90797 -5.296323,1.62313 -9.392708,2.37895 -1.74625,0.3222 -4.572341,1.04719 -6.280206,1.61111 -1.707861,0.56391 -3.519342,1.02529 -4.025511,1.02529 -0.619929,0 -1.549453,0.38062 -2.847919,1.16618 -1.060188,0.64141 -2.820583,1.42945 -3.911989,1.7512 -1.091406,0.32176 -2.497275,0.87759 -3.124155,1.23518 -1.076153,0.61388 -1.285949,0.63981 -3.758118,0.46455 l -2.61834,-0.18563 -1.262705,1.11147 c -1.233475,1.08575 -1.299597,1.10895 -2.856463,1.00227 -1.959332,-0.13425 -5.041993,-1.02685 -7.126123,-2.06339 -1.862572,-0.92635 -2.6377482,-0.95639 -5.5877752,-0.2165 -2.189576,0.54916 -2.264376,0.55091 -3.496154,0.0817 -2.184612,-0.83214 -8.884608,-0.52677 -11.8420413,0.53973 -1.8481045,0.66646 -3.9045575,0.5203 -5.5219025,-0.39248 l -1.41284,-0.79735 -1.333566,0.98667 -1.333564,0.98668 2.287395,1.29665 c 1.258067,0.71316 2.525519,1.50907 2.816561,1.76868 0.291041,0.25961 1.467405,0.96015 2.614141,1.55674 1.5525625,0.80772 2.3938845,1.08471 3.2946955,1.08471 0.9607283,0 1.3756883,0.15382 2.0160673,0.74733 l 0.806346,0.74733 7.011459,-0.18308 c 5.844531,-0.1526 7.3857562,-0.27667 9.2604162,-0.74547 1.236927,-0.30932 2.704007,-0.56324 3.260177,-0.56426 0.591691,-0.001 1.46984,-0.27014 2.116667,-0.64854 0.607996,-0.35568 1.879354,-0.77641 2.825239,-0.93496 3.606901,-0.60458 4.007332,-0.73319 4.862065,-1.56163 0.653302,-0.6332 1.088425,-0.82547 1.868144,-0.82547 0.666358,0 1.460807,-0.2734 2.306481,-0.79375 2.13999,-1.31675 2.762007,-1.14287 4.589351,1.28287 0.93431,1.24026 2.127245,1.96352 4.015201,2.43433 1.310859,0.3269 1.44086,0.30849 3.042708,-0.43108 1.666539,-0.76944 1.694317,-0.7726 6.832716,-0.77715 3.511312,-0.003 5.539698,-0.11711 6.35,-0.35689 2.457789,-0.7273 4.941655,-1.59569 6.35,-2.22004 0.800364,-0.35481 2.263338,-0.86074 3.251051,-1.12428 1.78424,-0.47607 1.80324,-0.47547 2.9394,0.092 0.62895,0.31411 1.22634,0.57111 1.32753,0.57111 0.10118,0 0.73136,0.24937 1.4004,0.55415 1.51447,0.68992 3.8015,1.29608 4.91901,1.30375 0.46584,0.003 1.38277,0.24946 2.03761,0.54725 1.06756,0.48548 1.50514,0.52322 4.23333,0.36513 l 3.042705,-0.17631 0.77711,0.81968 c 0.50007,0.52747 1.03519,0.81969 1.50105,0.81969 0.39817,0 1.06114,0.28372 1.47326,0.6305 0.59975,0.50466 1.17152,0.66319 2.86457,0.79424 7.07726,0.54784 6.7415,0.48448 7.52171,1.41953 0.85971,1.03032 1.89142,1.12427 4.042476,0.36811 0.76944,-0.27047 2.05383,-0.64508 2.8542,-0.83245 1.35846,-0.31803 1.85791,-0.50448 4.63021,-1.72859 0.59594,-0.26314 1.98741,-0.52071 3.18485,-0.58955 1.96192,-0.11278 2.20542,-0.0687 3.14578,0.56944 0.7367,0.49994 1.39408,0.70235 2.37139,0.73015 2.55764,0.0727 3.21268,-0.0825 6.29052,-1.49129 l 3.0863,-1.41261 3.55535,-0.18842 c 3.27379,-0.17349 3.67779,-0.1426 5.10156,0.3901 0.85042,0.31818 1.85027,0.74844 2.2219,0.95612 0.37162,0.20768 2.10419,0.97452 3.85015,1.70408 2.70193,1.12902 3.43054,1.32673 4.89479,1.32821 1.28591,0.001 1.92076,0.13677 2.51407,0.53643 2.00006,1.34729 2.94585,1.5785 6.45705,1.5785 2.76269,0 3.46103,0.0808 3.99972,0.46302 0.72496,0.51434 4.78277,2.66982 5.07459,2.69559 0.10204,0.009 0.87595,-0.18858 1.71979,-0.43909 z"
       id="path17882"
       sodipodi:nodetypes="csssscssssssscsssssssssssssssssssssssssscccsssscssscsscsccsssssssscsscsssssssssscsssccsscssssssssscsscssssscssssssssssscsssscccssssscssssssscsscscccssssssscscsscsscsssscsccscsssssssccssscsssscsssssssccssssssssssssssssssscscscscscscssssscsscsssssscssscsscssssssscsssssssssssssssssssssscssssssssssssscscscscssscsssssccccssscssssssssssssssssssssscscscssccscssscsssccsssscsssscsscsccsssssssssssssssscssscssssscsssssssssssssssssssscssssssssscssssssscsssssssscscccscccscssscccscsssssssssscssssssscssscsssssssssscssssssssssssscsssscsccccsssssccscscsssssscssscsscsscssscsssssscccsssscsscscc" />
  </g>
</svg>
