<?xml version="1.0" encoding="UTF-8" standalone="no"?>
<!-- Created with Inkscape (http://www.inkscape.org/) -->

<svg
   width="172.03043mm"
   height="171.25708mm"
   viewBox="0 0 172.03043 171.25708"
   version="1.1"
   id="svg15898"
   inkscape:version="1.1 (c4e8f9ed74, 2021-05-24)"
   sodipodi:docname="gradient_with_text2.svg"
   inkscape:export-filename="/home/aaron/assets/Aikido_website/logos/english_text_gradient.png"
   inkscape:export-xdpi="96"
   inkscape:export-ydpi="96"
   xmlns:inkscape="http://www.inkscape.org/namespaces/inkscape"
   xmlns:sodipodi="http://sodipodi.sourceforge.net/DTD/sodipodi-0.dtd"
   xmlns="http://www.w3.org/2000/svg"
   xmlns:svg="http://www.w3.org/2000/svg">
  <sodipodi:namedview
     id="namedview15900"
     pagecolor="#ffffff"
     bordercolor="#666666"
     borderopacity="1.0"
     inkscape:pageshadow="2"
     inkscape:pageopacity="0.0"
     inkscape:pagecheckerboard="false"
     inkscape:document-units="mm"
     showgrid="false"
     inkscape:zoom="0.74208048"
     inkscape:cx="-441.3268"
     inkscape:cy="167.77156"
     inkscape:window-width="1920"
     inkscape:window-height="1048"
     inkscape:window-x="2560"
     inkscape:window-y="212"
     inkscape:window-maximized="1"
     inkscape:current-layer="layer2"
     fit-margin-top="0"
     fit-margin-left="0"
     fit-margin-right="0"
     fit-margin-bottom="0" />
  <defs
     id="defs15895">
    <marker
       style="overflow:visible"
       id="DiamondL"
       refX="0.0"
       refY="0.0"
       orient="auto"
       inkscape:stockid="DiamondL"
       inkscape:isstock="true">
      <path
         transform="scale(0.8)"
         style="fill-rule:evenodd;fill:context-stroke;stroke:context-stroke;stroke-width:1.0pt"
         d="M 0,-7.0710768 L -7.0710894,0 L 0,7.0710589 L 7.0710462,0 L 0,-7.0710768 z "
         id="path13709" />
    </marker>
    <marker
       style="overflow:visible;"
       id="Arrow2Mend"
       refX="0.0"
       refY="0.0"
       orient="auto"
       inkscape:stockid="Arrow2Mend"
       inkscape:isstock="true">
      <path
         transform="scale(0.6) rotate(180) translate(0,0)"
         d="M 8.7185878,4.0337352 L -2.2072895,0.016013256 L 8.7185884,-4.0017078 C 6.9730900,-1.6296469 6.9831476,1.6157441 8.7185878,4.0337352 z "
         style="fill-rule:evenodd;fill:context-stroke;stroke-width:0.62500000;stroke-linejoin:round;"
         id="path13657" />
    </marker>
    <marker
       style="overflow:visible"
       id="Tail"
       refX="0.0"
       refY="0.0"
       orient="auto"
       inkscape:stockid="Tail"
       inkscape:isstock="true">
      <g
         transform="scale(-1.2)"
         id="g13678">
        <path
           style="fill:none;fill-rule:evenodd;stroke:context-stroke;stroke-width:0.8;stroke-linecap:round"
           d="M -3.8048674,-3.9585227 L 0.54352094,0"
           id="path13666" />
        <path
           style="fill:none;fill-rule:evenodd;stroke:context-stroke;stroke-width:0.8;stroke-linecap:round"
           d="M -1.2866832,-3.9585227 L 3.0617053,0"
           id="path13668" />
        <path
           style="fill:none;fill-rule:evenodd;stroke:context-stroke;stroke-width:0.8;stroke-linecap:round"
           d="M 1.3053582,-3.9585227 L 5.6537466,0"
           id="path13670" />
        <path
           style="fill:none;fill-rule:evenodd;stroke:context-stroke;stroke-width:0.8;stroke-linecap:round"
           d="M -3.8048674,4.1775838 L 0.54352094,0.21974226"
           id="path13672" />
        <path
           style="fill:none;fill-rule:evenodd;stroke:context-stroke;stroke-width:0.8;stroke-linecap:round"
           d="M -1.2866832,4.1775838 L 3.0617053,0.21974226"
           id="path13674" />
        <path
           style="fill:none;fill-rule:evenodd;stroke:context-stroke;stroke-width:0.8;stroke-linecap:round"
           d="M 1.3053582,4.1775838 L 5.6537466,0.21974226"
           id="path13676" />
      </g>
    </marker>
    <marker
       style="overflow:visible;"
       id="Arrow2Lend"
       refX="0.0"
       refY="0.0"
       orient="auto"
       inkscape:stockid="Arrow2Lend"
       inkscape:isstock="true">
      <path
         transform="scale(1.1) rotate(180) translate(1,0)"
         d="M 8.7185878,4.0337352 L -2.2072895,0.016013256 L 8.7185884,-4.0017078 C 6.9730900,-1.6296469 6.9831476,1.6157441 8.7185878,4.0337352 z "
         style="fill-rule:evenodd;fill:context-stroke;stroke-width:0.62500000;stroke-linejoin:round;"
         id="path13651" />
    </marker>
    <marker
       style="overflow:visible;"
       id="Arrow1Lend"
       refX="0.0"
       refY="0.0"
       orient="auto"
       inkscape:stockid="Arrow1Lend"
       inkscape:isstock="true">
      <path
         transform="scale(0.8) rotate(180) translate(12.5,0)"
         style="fill-rule:evenodd;fill:context-stroke;stroke:context-stroke;stroke-width:1.0pt;"
         d="M 0.0,0.0 L 5.0,-5.0 L -12.5,0.0 L 5.0,5.0 L 0.0,0.0 z "
         id="path13633" />
    </marker>
    <clipPath
       clipPathUnits="userSpaceOnUse"
       id="clipPath3480">
      <path
         d="M 0,841.89 H 595.28 V 0 H 0 Z"
         id="path3478" />
    </clipPath>
    <clipPath
       clipPathUnits="userSpaceOnUse"
       id="clipPath3480-6">
      <path
         d="M 0,841.89 H 595.28 V 0 H 0 Z"
         id="path3478-2" />
    </clipPath>
  </defs>
  <g
     inkscape:label="Layer 1"
     inkscape:groupmode="layer"
     id="layer1"
     transform="translate(-18.908265,-15.265768)">
    <path
       style="fill:#ff5555;stroke:#ff5555;stroke-width:3.77953;stroke-miterlimit:4;stroke-dasharray:none;stroke-opacity:1"
       d="m 646.21247,407.21331 c -6.38223,-7.7661 -5.8779,-7.52853 -19.71118,-9.28505 -17.83024,-2.26405 -17.66607,-2.21744 -22.47877,-6.38279 -2.36846,-2.0499 -5.13852,-3.72708 -6.15567,-3.72708 -1.13111,0 -3.19782,-1.87694 -5.32131,-4.83268 l -3.47194,-4.83268 -6.98459,0.65451 c -13.31415,1.24764 -15.71755,1.00484 -22.22062,-2.24478 -3.34315,-1.67059 -7.18914,-3.04162 -8.54665,-3.04674 -3.97186,-0.015 -18.25428,-7.34108 -27.33278,-14.02022 -1.62171,-1.1931 -4.20655,-2.16928 -5.74411,-2.16928 -3.18588,0 -13.06288,4.5305 -22.51054,10.32539 -3.53571,2.16869 -9.91442,5.69573 -14.17491,7.83786 -9.00653,4.52839 -16.09414,5.61385 -36.83759,5.64159 -13.42581,0.018 -15.80017,0.558 -22.49483,5.11634 -4.58769,3.12374 -7.00829,3.1619 -12.84824,0.20257 -5.60465,-2.84008 -9.69185,-7.36415 -13.53991,-14.9871 -3.35116,-6.63861 -6.65864,-10.32516 -9.26347,-10.32516 -0.99335,0 -3.6437,1.39357 -5.88969,3.09683 -6.93661,5.26043 -8.98429,6.42166 -11.33297,6.42686 -1.49453,0.003 -3.9596,1.76672 -7.23505,5.17567 -4.06992,4.23578 -5.98586,5.45108 -10.59687,6.7217 -9.44899,2.60376 -13.92161,4.47307 -19.81251,8.28055 -3.10503,2.00687 -6.59827,3.64886 -7.76276,3.64886 -1.16449,0 -6.27524,1.27991 -11.35721,2.84423 -9.75418,3.00253 -19.35781,4.0451 -48.71742,5.28879 l -14.36738,0.60861 -1.65692,-2.52879 c -2.85538,-4.35786 -5.24769,-6.21284 -8.0125,-6.21284 -6.33503,0 -15.69236,-7.27401 -41.02044,-31.88763 l -2.24208,-2.17884 4.6727,-5.15976 4.6727,-5.15975 4.51722,3.57813 c 4.43126,3.51005 9.45297,5.53577 13.74917,5.54632 1.19046,0.003 5.90717,-1.45672 10.48158,-3.24366 14.84783,-5.80012 34.31811,-6.94862 43.38545,-2.5592 2.26854,1.09818 4.73962,2.00303 5.49129,2.01077 0.75167,0.008 5.50754,-1.33512 10.5686,-2.98414 5.49505,-1.79043 10.10127,-2.76766 11.43445,-2.42588 1.22788,0.31478 5.8199,2.91282 10.20447,5.77341 8.767,5.71978 18.34987,9.6749 25.85287,10.67021 4.46907,0.59284 5.09699,0.42664 7.65796,-2.02693 1.53435,-1.47 3.94958,-4.34639 5.36718,-6.39199 l 2.57746,-3.71928 10.13226,0.6567 10.13226,0.6567 6.51871,-4.46289 c 3.58529,-2.45458 8.91541,-5.69241 11.8447,-7.19517 2.9293,-1.50275 9.04295,-5.70031 13.58592,-9.32789 5.30327,-4.2347 9.42696,-6.785 11.52021,-7.12468 1.79315,-0.29099 8.41422,-2.88733 14.71346,-5.76964 6.29925,-2.8823 19.77793,-8.01402 29.95262,-11.40381 12.72444,-4.23926 23.04849,-8.45213 33.07171,-13.49535 8.01476,-4.03266 16.01984,-7.56701 17.7891,-7.85412 3.05445,-0.49567 3.82041,0.0601 15.1748,11.01003 15.56066,15.00641 18.20419,16.76315 24.16304,16.05741 2.50366,-0.29652 7.89153,-2.06095 11.97303,-3.92095 7.82082,-3.56406 22.45522,-8.51791 28.48681,-9.64298 3.21134,-0.59902 3.96404,-0.31832 7.35053,2.74118 2.07507,1.8747 6.0394,4.55596 8.80963,5.95837 14.36815,7.27374 28.93135,16.46483 54.04934,34.11144 15.26246,10.72264 29.3067,20.00948 31.20942,20.63743 3.26684,1.07816 16.32478,0.6769 19.66335,-0.60423 0.99352,-0.38125 1.46439,0.93564 1.93109,5.40075 0.73613,7.04299 0.62879,18.36638 -0.2102,22.17286 l -0.60192,2.73086 -5.21515,-3.92194 c -2.86833,-2.15708 -6.26354,-3.92195 -7.54491,-3.92195 -6.6194,0 -14.69029,2.28588 -19.88071,5.63072 -10.69414,6.89159 -31.0029,16.2853 -35.20803,16.2853 -1.3638,0 -3.1913,-1.04634 -4.40326,-2.5211 z"
       id="path2445"
       transform="scale(0.26458333)" />
    <path
       style="fill:#fcb4b4;stroke:#fcb4b4;stroke-width:6.04724417;stroke-miterlimit:4;stroke-dasharray:none;stroke-opacity:1"
       d="m 77.922413,375.28805 -4.02447,-0.91203 0.420074,-3.99861 c 0.23104,-2.19924 0.660693,-8.28653 0.954783,-13.52732 1.565402,-27.89602 9.441476,-62.4742 20.959074,-92.01625 C 137.15801,159.86039 231.39758,82.723349 341.70184,63.911587 c 20.06731,-3.422364 31.57541,-4.324432 55.16882,-4.324432 30.794,0 51.25858,2.448136 78.98432,9.448731 131.05907,33.091684 228.12001,145.383374 241.96064,279.928974 l 0.75719,7.36071 -7.20067,1.52595 c -3.96037,0.83927 -7.78458,1.7126 -8.49825,1.94074 -0.71367,0.22813 -4.5728,-1.96276 -8.57584,-4.86868 -8.95195,-6.49845 -42.01481,-29.58362 -51.10535,-35.68281 -3.67128,-2.46319 -12.41763,-7.44373 -19.43634,-11.06786 -8.1665,-4.2168 -14.25893,-8.07716 -16.92075,-10.72154 -3.9451,-3.91926 -4.36781,-4.09982 -8.20187,-3.50335 -9.09799,1.41538 -21.80773,5.37483 -31.90642,9.93977 -5.89178,2.66328 -11.55672,4.84233 -12.58875,4.84233 -1.1016,0 -7.3017,-5.14825 -15.01517,-12.46785 -7.22632,-6.85733 -14.38808,-13.12209 -15.91501,-13.9217 -5.40263,-2.8292 -11.57271,-1.33523 -27.52028,6.66348 -16.99349,8.52331 -20.45112,9.91157 -34.74861,13.95186 -5.90233,1.66791 -16.42231,5.56033 -23.37775,8.64982 -6.95544,3.08948 -15.14401,6.26782 -18.19683,7.06298 -4.35798,1.13511 -6.87593,2.62837 -11.71885,6.94981 -8.44218,7.53315 -11.35191,9.59518 -17.44421,12.36218 -2.88173,1.30883 -7.28116,3.8784 -9.77653,5.71017 l -4.53704,3.33049 -9.03757,-0.67758 c -9.88462,-0.74107 -12.11262,-0.0256 -16.19429,5.20045 -1.04816,1.34202 -3.0442,3.72184 -4.43566,5.28848 l -2.52991,2.84842 -7.47524,-3.06118 c -7.04851,-2.88645 -15.00227,-6.98943 -23.67402,-12.21237 -4.8058,-2.89451 -10.4777,-3.00196 -19.02971,-0.36052 -8.01753,2.47637 -13.32866,2.60705 -15.78036,0.3883 -1.66204,-1.50413 -3.29889,-1.62121 -15.44566,-1.10481 -13.4084,0.57003 -25.52824,2.64649 -33.90259,5.80845 -5.06677,1.91309 -9.46749,0.97177 -14.98986,-3.20636 -5.9986,-4.53844 -8.95268,-4.02054 -16.07436,2.81805 -3.27464,3.14447 -6.53347,5.71722 -7.24185,5.71722 -0.70836,0 -4.538,-3.35657 -8.51029,-7.45906 -8.77115,-9.0586 -13.36753,-11.25459 -20.74872,-9.91301 -7.09526,1.2896 -10.23088,0.4925 -14.54956,-3.69864 -2.09916,-2.03716 -4.42123,-3.70393 -5.16016,-3.70393 -2.46988,0 -5.89456,5.36323 -8.0405,12.59184 -1.27365,4.29028 -3.04923,8.02662 -4.43156,9.32525 -2.08902,1.96253 -2.58463,2.05156 -5.25749,0.94442 -2.61588,-1.08353 -3.25053,-1.00093 -5.58803,0.72725 l -2.63699,1.94962 -2.28451,-3.69644 c -1.25649,-2.03303 -2.86325,-3.9185 -3.57057,-4.18992 -3.12087,-1.19759 -8.21579,4.05058 -17.541161,18.0688 -3.83065,5.75836 -7.60516,10.5409 -8.387802,10.62786 -0.782641,0.087 -3.233996,-0.25229 -5.447454,-0.7539 z"
       id="path2521"
       transform="scale(0.26458333)" />
    <path
       style="fill:#ff0000;stroke:#ff0000;stroke-width:3.77953;stroke-miterlimit:4;stroke-dasharray:none;stroke-opacity:1"
       d="m 85.989071,468.77976 c -1.794438,-5.65306 -4.601798,-17.96893 -6.872155,-30.1481 -1.049879,-5.632 -3.990295,-27.01145 -3.990295,-29.013 0,-0.24998 3.86582,-0.61373 8.590712,-0.80833 12.517454,-0.51553 14.759606,-1.56623 20.814747,-9.754 2.07376,-2.80414 6.53895,-8.11495 9.92263,-11.8018 8.11731,-8.84457 9.5347,-10.83939 11.21594,-15.78507 0.77847,-2.29001 3.39462,-7.42753 5.81366,-11.41671 4.45194,-7.34157 5.24962,-9.07989 7.2275,-15.75048 1.73087,-5.8375 1.93631,-5.95761 4.78911,-2.7999 1.76113,1.94935 3.2204,2.87918 4.96062,3.16082 1.35601,0.21947 3.68842,0.83444 5.18313,1.36662 3.66766,1.30582 5.65909,1.21198 8.06285,-0.37998 1.11174,-0.73627 2.58697,-1.34068 3.2783,-1.34312 2.28589,-0.008 10.42266,6.03139 13.63556,10.12091 1.71507,2.18301 8.46512,8.64842 15.00012,14.36757 6.535,5.71915 14.30743,12.87267 17.27206,15.89671 2.96464,3.02404 6.75466,6.4345 8.42227,7.5788 1.66761,1.1443 4.42947,3.42468 6.13746,5.06751 3.17622,3.05505 6.06085,4.18797 10.74334,4.2194 2.5956,0.0174 4.93227,2.00128 8.23336,6.99022 l 1.71678,2.59456 16.39936,-0.0933 c 17.09167,-0.0972 37.87135,-1.03744 40.05949,-1.81262 0.79411,-0.28132 0.29081,0.57776 -1.34356,2.2933 -1.43734,1.50872 -3.25655,2.90702 -4.04269,3.10732 -0.78614,0.2003 -3.93986,3.09142 -7.00825,6.42471 -3.5314,3.83627 -9.34255,8.89899 -15.83386,13.79457 -10.99272,8.29044 -10.03796,7.85256 -24.16002,11.08032 -3.20082,0.73159 -8.35525,2.45172 -11.45429,3.82252 -5.55499,2.45716 -5.78215,2.49649 -16.07821,2.78422 -5.74399,0.16053 -11.39113,0.43789 -12.5492,0.61636 -1.15807,0.17847 -4.82998,2.27342 -8.15978,4.65544 l -6.0542,4.33096 -25.86617,-0.39504 c -18.13294,-0.27693 -26.66636,-0.16996 -28.54261,0.35782 -2.51065,0.70622 -2.80277,0.63347 -4.71647,-1.17468 -4.6247,-4.36964 -7.76078,-4.52479 -15.04457,-0.74429 -3.46062,1.79616 -7.65489,3.24029 -12.59916,4.33802 -4.07638,0.90505 -9.300581,2.42224 -11.609341,3.37154 -2.30876,0.9493 -5.133307,1.726 -6.276773,1.726 -1.143465,0 -2.642522,0.30157 -3.331236,0.67017 -1.061547,0.56812 -1.35787,0.33729 -1.946159,-1.51601 z"
       id="path2905"
       transform="scale(0.26458333)" />
    <path
       style="fill:#ff0000;stroke:#ff0000;stroke-width:3.77953;stroke-miterlimit:4;stroke-dasharray:none;stroke-opacity:1"
       d="m 552.16382,453.79277 c -2.77935,-0.93246 -7.47294,-2.12535 -10.4302,-2.65084 -5.93026,-1.0538 -5.71353,-0.88529 -15.25398,-11.86041 -3.76268,-4.3285 -13.92751,-11.56876 -17.93948,-12.77801 -1.02112,-0.30778 -4.49014,-1.35574 -7.70893,-2.32881 -7.15684,-2.16357 -19.15574,-7.97526 -26.06782,-12.62599 -7.12337,-4.7929 -10.97974,-6.40021 -17.44467,-7.27081 -7.29873,-0.98288 -9.50191,-1.81551 -17.80003,-6.72706 -3.82309,-2.26284 -7.63328,-4.28709 -8.46709,-4.49833 -0.8338,-0.21124 -1.51601,-0.79533 -1.51601,-1.29799 0,-2.10893 3.008,-2.51385 22.21308,-2.9902 18.35049,-0.45514 19.46225,-0.55762 24.4546,-2.25402 6.29075,-2.13761 17.29357,-7.56899 23.67605,-11.68733 5.42707,-3.50185 12.46407,-7.11756 16.09997,-8.27238 2.49669,-0.79299 2.67407,-0.73233 7.41159,2.53503 6.69735,4.619 17.21475,9.76876 24.42052,11.95731 3.32027,1.00844 7.85606,2.77395 10.07954,3.92336 3.9928,2.06406 4.19651,2.0942 16.50764,2.44236 6.85573,0.19389 12.84829,0.60049 13.31681,0.90357 0.46852,0.30308 1.45416,1.73166 2.19031,3.17463 1.06801,2.09347 1.89897,2.77451 4.11258,3.37058 1.61189,0.43403 4.08167,1.95886 5.89507,3.63957 3.45846,3.2054 5.32629,3.92486 13.22766,5.09513 2.96464,0.43909 6.75466,1.40794 8.42227,2.153 1.97999,0.88464 5.13605,1.47818 9.09605,1.71064 3.33521,0.19579 6.54349,0.60332 7.12949,0.90562 0.586,0.30231 2.04312,2.38395 3.23806,4.62587 2.53123,4.74908 3.53724,5.43096 8.01255,5.43096 5.85359,0 20.11869,-5.82947 34.9491,-14.28205 17.81707,-10.15481 20.0801,-10.61336 25.57885,-5.18292 2.87359,2.83789 4.00662,3.50218 6.44159,3.77664 l 2.95468,0.33303 -0.53448,6.49853 c -1.02227,12.42958 -5.01881,37.97637 -6.99844,44.73563 -0.46822,1.59867 -1.04626,1.51105 -6.22223,-0.94315 -3.55881,-1.68742 -5.99453,-3.66527 -11.88751,-9.65284 -9.47239,-9.62444 -11.92207,-10.90614 -22.60882,-11.82914 -8.18328,-0.70677 -20.57265,-2.72879 -27.22112,-4.44263 -4.75841,-1.22663 -7.20741,-2.42516 -10.70898,-5.24092 -2.48433,-1.99776 -2.89968,-2.09524 -9.84811,-2.31139 l -7.25439,-0.22567 -5.26295,7.63726 c -6.10136,8.85388 -15.84738,18.87478 -21.1016,21.69673 -3.97459,2.13469 -6.32511,2.32244 -13.63645,1.08921 -5.1096,-0.86184 -6.21846,-0.53676 -9.8326,2.88262 -2.99504,2.83365 -6.99804,3.07813 -13.68217,0.83561 z"
       id="path2944"
       transform="scale(0.26458333)" />
    <path
       style="fill:#ff5555;stroke:#ff5555;stroke-width:3.77953;stroke-miterlimit:4;stroke-dasharray:none;stroke-opacity:1"
       d="m 74.45284,397.8125 c 0,-1.89386 -0.198689,-6.24253 -0.44153,-9.66369 l -0.44153,-6.22031 2.631319,1.14021 c 5.66209,2.45352 6.885397,2.64366 9.373899,1.45697 2.457349,-1.17183 5.530355,-5.07116 11.743168,-14.90091 3.558634,-5.63037 9.733384,-13.19443 10.770984,-13.19443 0.28228,0 0.86614,1.137 1.29747,2.52668 1.21082,3.90107 4.3769,9.26449 5.46893,9.26449 0.53964,0 1.66433,-1.06121 2.4993,-2.35824 4.2374,-6.58226 5.01879,-6.68891 3.56107,-0.48605 -1.21957,5.18949 -2.0033,6.40299 -9.04843,14.01039 -3.53344,3.81544 -8.61636,9.91336 -11.29538,13.55095 -4.256328,5.77926 -5.127518,6.61884 -6.904393,6.65386 -1.118399,0.022 -5.899273,0.40534 -10.624165,0.85177 l -8.590712,0.8117 z"
       id="path2983"
       transform="scale(0.26458333)" />
    <path
       style="fill:#aa0000;stroke:#aa0000;stroke-width:2.83465;stroke-miterlimit:4;stroke-dasharray:none;stroke-opacity:1"
       d="m 375.9075,535.98978 c -2.35835,-1.26283 -5.00546,-2.31543 -5.88245,-2.33911 -0.877,-0.0237 -3.66415,-1.62597 -6.19366,-3.56063 -4.45707,-3.40892 -4.92287,-3.53915 -15.0807,-4.21625 l -10.48158,-0.69867 -4.28792,2.86346 c -4.21945,2.81775 -4.45528,2.8581 -14.7695,2.52709 -7.50386,-0.24083 -11.40294,-0.80396 -13.7248,-1.98227 -4.59965,-2.33425 -6.88434,-2.08475 -15.46775,1.68916 -4.1719,1.83428 -8.87743,3.33505 -10.45674,3.33505 -4.50561,0 -12.37699,-4.24552 -23.96973,-12.92835 -9.84584,-7.37442 -32.53255,-21.52413 -44.29406,-27.62622 -4.21283,-2.1857 -6.75666,-2.68442 -17.58915,-3.44841 -17.23935,-1.21586 -19.06762,-0.84142 -28.24249,5.78424 -9.26832,6.69311 -19.31951,12.02543 -24.36227,12.92454 -2.77535,0.49483 -5.23798,2.1118 -9.60963,6.30968 -3.2329,3.10437 -6.7138,5.64433 -7.73535,5.64433 -1.02155,0 -4.18643,2.35835 -7.03306,5.24079 -2.84662,2.88243 -5.44907,5.24079 -5.78321,5.24079 -1.6154,0 -17.415823,-36.96084 -20.115636,-47.05513 -1.126541,-4.21202 -1.077895,-4.68519 0.608445,-5.91827 1.008084,-0.73713 3.054384,-1.34024 4.547332,-1.34024 1.492947,0 4.336959,-0.82774 6.320019,-1.83942 1.98306,-1.01168 6.30901,-2.14528 9.61322,-2.51911 3.71252,-0.42003 7.95616,-1.71947 11.10797,-3.40137 6.07301,-3.24074 6.78028,-3.29979 9.45267,-0.78921 2.42662,2.27968 -0.0934,2.19769 37.63424,1.22455 l 30.03971,-0.77484 5.18749,-3.33504 c 5.08125,-3.26675 5.44176,-3.34624 17.60382,-3.88134 10.63718,-0.46801 13.2575,-0.91226 18.28657,-3.10029 3.22862,-1.40469 9.2317,-3.24574 13.34019,-4.0912 4.10847,-0.84547 9.18513,-2.40138 11.28144,-3.45757 4.93034,-2.48408 17.76898,-12.49554 27.73305,-21.62597 16.14379,-14.79315 18.68576,-16.81928 25.88199,-20.62978 4.05278,-2.146 10.92279,-6.32672 15.26668,-9.29049 4.3439,-2.96377 8.63036,-5.38867 9.52547,-5.38867 0.8951,0 4.90806,-1.09254 8.91768,-2.42787 6.17499,-2.05646 8.01072,-3.20199 12.00012,-7.48836 3.55351,-3.81802 5.6246,-5.23139 8.4354,-5.75655 2.04902,-0.38283 5.51282,-2.15857 7.69734,-3.94609 4.63348,-3.79142 6.59523,-4.07934 7.53639,-1.10607 1.3358,4.21999 8.25699,14.09655 12.48876,17.8215 4.76415,4.19358 11.46307,7.03534 21.62214,9.17236 6.61137,1.39075 9.59729,2.76862 19.384,8.94489 3.95234,2.49427 6.41985,3.27968 12.02918,3.8289 6.40532,0.62715 7.96298,1.23832 16.8706,6.61944 10.49439,6.33969 22.57775,11.74885 29.92211,13.39476 7.43571,1.66637 18.65957,9.58409 25.77093,18.17976 3.42641,4.14156 7.18753,7.75564 8.35807,8.03127 6.18212,1.45574 25.96162,5.24449 27.37933,5.24449 0.90403,0 3.26238,-1.28637 5.24078,-2.85861 4.26517,-3.38953 6.69929,-3.5578 11.94131,-0.82551 l 3.90059,2.0331 6.52541,-4.45862 c 9.98773,-6.82431 14.88873,-11.53834 22.32178,-21.47025 8.12347,-10.85444 10.11156,-11.63312 17.21791,-6.74382 2.36312,1.62587 5.98461,3.5517 8.04775,4.27962 5.85109,2.06438 20.86702,5.12281 30.5205,6.21637 10.77372,1.22046 14.74194,3.14862 20.7093,10.06266 5.13204,5.9462 11.3139,10.41653 16.59109,11.99761 l 3.5116,1.0521 -1.79901,6.35711 c -0.98945,3.49641 -3.02645,9.98204 -4.52666,14.41251 l -2.72765,8.05542 -3.70393,-0.26844 c -2.03715,-0.14764 -8.20623,-1.18546 -13.70906,-2.30627 -5.50283,-1.12082 -13.22108,-2.06473 -17.15168,-2.0976 -9.62147,-0.0804 -10.59807,0.45854 -29.03039,16.02149 l -4.41323,3.72621 -5.65363,-2.7022 c -3.10952,-1.4862 -7.9868,-4.92619 -10.83843,-7.64441 -5.29093,-5.04339 -10.17478,-7.11096 -16.79693,-7.11096 -2.34358,0 -3.98344,-1.02111 -7.50124,-4.67091 -4.09527,-4.24893 -8.97622,-6.73996 -13.24215,-6.75822 -0.68266,-0.003 -4.25559,-0.69092 -7.93984,-1.52889 -5.27302,-1.19932 -7.81568,-2.43342 -11.94743,-5.79877 -3.81445,-3.10692 -5.81564,-4.13293 -7.32311,-3.75458 -1.14088,0.28634 -5.06821,3.03212 -8.72739,6.10174 -3.6592,3.06962 -11.58419,9.24193 -17.61109,13.71625 -6.02691,4.47433 -11.97475,9.24484 -13.21743,10.60114 -2.22442,2.4278 -2.31793,2.44258 -6.03779,0.95419 -3.01343,-1.20573 -6.02843,-1.40384 -14.89226,-0.97853 -20.51086,0.98415 -30.75687,4.16278 -51.63073,16.01741 -6.54007,3.71423 -15.32138,8.48554 -19.51401,10.60295 -4.19263,2.11739 -10.03818,5.53807 -12.9901,7.6015 -9.83971,6.87808 -22.09673,8.53666 -30.36552,4.10895 z"
       id="path2221"
       transform="scale(0.26458333)" />
    <path
       style="fill:#800000;stroke:#800000;stroke-width:1.88976;stroke-miterlimit:4;stroke-dasharray:none;stroke-opacity:1"
       d="M 366.37879,703.13816 C 264.37766,693.39529 172.87474,635.40907 119.56884,546.73245 l -4.62291,-7.6904 3.89814,-4.62296 c 2.71955,-3.22523 4.60863,-4.62297 6.24806,-4.62297 1.6414,0 4.11032,-1.83094 8.18846,-6.07254 4.93345,-5.13119 6.72287,-6.32719 11.54319,-7.71518 7.19392,-2.07147 9.19991,-3.11878 21.31926,-11.13066 l 9.87224,-6.52635 h 12.13056 c 7.34839,0 13.78676,0.49936 16.33171,1.26668 4.15663,1.25326 27.84062,14.36627 36.12231,19.99968 2.35835,1.60421 9.52581,6.88676 15.92767,11.739 7.64964,5.79797 12.83304,9.04611 15.1207,9.47528 5.43191,1.01903 14.70523,-0.21799 21.88058,-2.91879 5.17943,-1.94953 7.05576,-2.26409 8.96966,-1.50373 3.25353,1.29257 17.09118,2.91532 24.85974,2.91532 5.49582,0 6.5766,-0.30424 8.55257,-2.40756 2.18723,-2.3282 2.57188,-2.39301 11.6695,-1.96624 8.30875,0.38976 9.79004,0.73292 12.68057,2.93764 5.12259,3.90719 13.13118,6.15728 25.75485,7.23607 13.17172,1.12563 14.29166,0.86319 23.80107,-5.57729 3.09918,-2.09899 10.78037,-6.59039 17.06932,-9.9809 6.28894,-3.39051 15.77556,-8.60919 21.08137,-11.59708 10.83871,-6.10366 19.80033,-9.50334 28.94434,-10.9803 8.85989,-1.43107 23.55179,-1.20007 28.10969,0.44197 5.60144,2.01799 6.34221,1.8193 10.99783,-2.94991 2.33646,-2.39345 8.32162,-7.30691 13.30037,-10.91878 4.97875,-3.61187 11.98542,-9.12499 15.57037,-12.25139 l 6.5181,-5.68435 4.24004,3.2365 c 4.25379,3.24698 12.35689,6.2616 20.36216,7.57538 5.54214,0.90954 8.29072,2.38215 12.37343,6.62931 3.25903,3.39031 7.78902,5.22993 16.43889,6.6758 2.60356,0.4352 4.3639,1.59407 6.54595,4.30935 2.86311,3.56275 16.35989,11.45001 19.5934,11.45001 2.41334,0 6.4547,-2.57856 14.19019,-9.05396 9.59868,-8.03508 13.0085,-9.77598 20.68906,-10.56287 4.90142,-0.50217 6.87505,-0.29288 9.40308,0.99714 1.75978,0.89798 7.16592,2.11763 12.01365,2.71032 6.31892,0.77256 8.81406,1.44837 8.81406,2.38728 0,0.72032 -2.69943,7.1662 -5.99872,14.32419 -48.44825,105.11097 -148.82327,176.12925 -264.14013,186.88691 -12.02961,1.12221 -47.57804,1.09004 -59.55443,-0.0539 z"
       id="path2108"
       transform="scale(0.26458333)" />
  </g>
  <g
     inkscape:groupmode="layer"
     id="layer2"
     inkscape:label="english"
     transform="translate(-18.908265,-15.265768)">
    <text
       xml:space="preserve"
       style="font-style:normal;font-variant:normal;font-weight:600;font-stretch:normal;font-size:15.9913px;line-height:1.25;font-family:Montserrat;-inkscape-font-specification:'Montserrat, Semi-Bold';font-variant-ligatures:normal;font-variant-caps:normal;font-variant-numeric:normal;font-variant-east-asian:normal;fill:#1c1414;fill-opacity:1;stroke:none;stroke-width:0.199891"
       x="53.978851"
       y="52.78199"
       id="text11123"><tspan
         sodipodi:role="line"
         id="tspan11121"
         style="font-style:normal;font-variant:normal;font-weight:600;font-stretch:normal;font-size:15.9913px;font-family:Montserrat;-inkscape-font-specification:'Montserrat, Semi-Bold';font-variant-ligatures:normal;font-variant-caps:normal;font-variant-numeric:normal;font-variant-east-asian:normal;fill:#1c1414;stroke-width:0.199891"
         x="53.978851"
         y="52.78199">ASHEVILLE</tspan></text>
    <text
       xml:space="preserve"
       style="font-style:normal;font-variant:normal;font-weight:600;font-stretch:normal;font-size:15.99129922px;line-height:1.25;font-family:Montserrat;-inkscape-font-specification:'Montserrat, Semi-Bold';font-variant-ligatures:normal;font-variant-caps:normal;font-variant-numeric:normal;font-variant-east-asian:normal;fill:#1c1414;fill-opacity:1;stroke:none;stroke-width:0.199891"
       x="53.978851"
       y="70.483932"
       id="text11123-7"><tspan
         sodipodi:role="line"
         id="tspan11121-9"
         style="font-style:normal;font-variant:normal;font-weight:600;font-stretch:normal;font-size:15.99129922px;font-family:Montserrat;-inkscape-font-specification:'Montserrat, Semi-Bold';font-variant-ligatures:normal;font-variant-caps:normal;font-variant-numeric:normal;font-variant-east-asian:normal;fill:#1c1414;stroke-width:0.199891"
         x="53.978851"
         y="70.483932">AIKIKAI</tspan></text>
  </g>
  <g
     inkscape:groupmode="layer"
     id="layer3"
     inkscape:label="kanji"
     style="display:none"
     transform="translate(-18.908265,-15.265768)">
    <g
       id="g7396"
       transform="matrix(0.2786788,0,0,0.2786788,46.525235,18.056636)"
       style="display:inline;fill:#ffffff;stroke:none">
      <g
         id="g3476"
         clip-path="url(#clipPath3480-6)"
         transform="matrix(0.20541312,0,0,-0.20541312,8.6237756,217.78325)"
         style="fill:#ffffff;stroke:none">
        <g
           id="g3482"
           transform="translate(180.5972,678.0322)"
           style="fill:#ffffff;stroke:none">
          <path
             d="m 0,0 c 0,0 -22.274,-14.515 -24.776,-16.267 -2.503,-1.752 -4.255,-2.503 -2.253,-3.504 2.002,-1.001 1.502,-0.751 4.755,0 3.253,0.751 28.116,5.924 39.292,11.512 5.506,2.753 42.295,37.29 54.309,57.812 12.012,20.522 15.265,25.277 17.518,27.029 2.252,1.752 2.756,2.407 4.004,2.502 3.254,0.251 8.76,-4.754 8.76,-4.754 0,0 12.263,-15.017 16.767,-20.773 4.505,-5.756 25.528,-29.531 27.28,-31.283 1.752,-1.752 18.019,-20.022 21.523,-22.274 3.503,-2.252 10.51,-6.757 13.264,-7.758 2.753,-1.001 5.757,-1.502 8.509,-1.252 2.753,0.251 47.3,6.507 49.803,7.509 2.503,1.001 5.506,0.75 5.506,3.753 0,3.003 0.501,4.505 -2.252,5.006 -2.753,0.5 -34.036,8.509 -46.55,11.262 -12.513,2.753 -15.266,3.503 -15.266,3.503 0,0 -35.038,33.537 -45.049,46.801 -10.01,13.264 -12.013,12.763 -17.269,18.019 -5.254,5.256 -10.76,7.508 -14.014,11.012 -3.253,3.503 -4.254,9.01 -6.507,14.015 -2.252,5.005 -5.756,9.259 -10.762,10.01 -5.005,0.751 -9.759,-0.751 -12.512,-3.503 -2.753,-2.753 -4.255,-2.503 -2.003,-4.755 2.253,-2.253 4.005,-4.005 4.505,-6.007 0.501,-2.002 0,0 -1.501,-3.003 C 72.089,98.63 49.809,63.046 49.303,61.816 47.551,57.562 35.538,40.043 31.534,32.785 27.939,26.271 24.509,22.218 9.51,7.258 6.257,4.014 0,0 0,0"
             style="fill:#ffffff;fill-opacity:1;fill-rule:nonzero;stroke:none"
             id="path3484" />
        </g>
        <g
           id="g3486"
           transform="translate(180.5972,678.0322)"
           style="fill:#ffffff;stroke:none">
          <path
             d="m 0,0 c 0,0 -22.274,-14.515 -24.776,-16.267 -2.503,-1.752 -4.255,-2.503 -2.253,-3.504 2.002,-1.001 1.502,-0.751 4.755,0 3.253,0.751 28.116,5.924 39.292,11.512 5.506,2.753 42.295,37.29 54.309,57.812 12.012,20.522 15.265,25.277 17.518,27.029 2.252,1.752 2.756,2.407 4.004,2.502 3.254,0.251 8.76,-4.754 8.76,-4.754 0,0 12.263,-15.017 16.767,-20.773 4.505,-5.756 25.528,-29.531 27.28,-31.283 1.752,-1.752 18.019,-20.022 21.523,-22.274 3.503,-2.252 10.51,-6.757 13.264,-7.758 2.753,-1.001 5.757,-1.502 8.509,-1.252 2.753,0.251 47.3,6.507 49.803,7.509 2.503,1.001 5.506,0.75 5.506,3.753 0,3.003 0.501,4.505 -2.252,5.006 -2.753,0.5 -34.036,8.509 -46.55,11.262 -12.513,2.753 -15.266,3.503 -15.266,3.503 0,0 -35.038,33.537 -45.049,46.801 -10.01,13.264 -12.013,12.763 -17.269,18.019 -5.254,5.256 -10.76,7.508 -14.014,11.012 -3.253,3.503 -4.254,9.01 -6.507,14.015 -2.252,5.005 -5.756,9.259 -10.762,10.01 -5.005,0.751 -9.759,-0.751 -12.512,-3.503 -2.753,-2.753 -4.255,-2.503 -2.003,-4.755 2.253,-2.253 4.005,-4.005 4.505,-6.007 0.501,-2.002 0,0 -1.501,-3.003 C 72.089,98.63 49.809,63.046 49.303,61.816 47.551,57.562 35.538,40.043 31.534,32.785 27.939,26.271 24.509,22.218 9.51,7.258 6.257,4.014 0,0 0,0 Z"
             style="fill:#ffffff;stroke:none;stroke-width:1;stroke-linecap:butt;stroke-linejoin:miter;stroke-miterlimit:10;stroke-dasharray:none;stroke-opacity:1"
             id="path3488" />
        </g>
        <g
           id="g3490"
           transform="translate(244.916,692.5479)"
           style="fill:#ffffff;stroke:none">
          <path
             d="m 0,0 c 0,0 27.779,8.759 31.534,10.511 3.754,1.752 3.003,3.254 5.255,3.004 2.253,-0.25 5.173,-2.503 7.092,-3.254 C 45.799,9.51 51.555,8.536 54.308,6.771 57.062,5.005 63.317,3.503 63.317,0 c 0,-3.503 0.752,-5.506 -2.002,-6.256 -2.752,-0.751 -17.518,-0.501 -21.272,-1.002 -3.754,-0.5 -16.769,-3.503 -20.272,-4.254 -3.503,-0.751 -20.522,-2.253 -22.524,0 -2.002,2.252 -5.255,3.754 -4.755,6.257 C -7.007,-2.753 0,0 0,0"
             style="fill:#ffffff;fill-opacity:1;fill-rule:nonzero;stroke:none"
             id="path3492" />
        </g>
        <g
           id="g3494"
           transform="translate(244.916,692.5479)"
           style="fill:#ffffff;stroke:none">
          <path
             d="m 0,0 c 0,0 27.779,8.759 31.534,10.511 3.754,1.752 3.003,3.254 5.255,3.004 2.253,-0.25 5.173,-2.503 7.092,-3.254 C 45.799,9.51 51.555,8.536 54.308,6.771 57.062,5.005 63.317,3.503 63.317,0 c 0,-3.503 0.752,-5.506 -2.002,-6.256 -2.752,-0.751 -17.518,-0.501 -21.272,-1.002 -3.754,-0.5 -16.769,-3.503 -20.272,-4.254 -3.503,-0.751 -20.522,-2.253 -22.524,0 -2.002,2.252 -5.255,3.754 -4.755,6.257 C -7.007,-2.753 0,0 0,0 Z"
             style="fill:#ffffff;stroke:none;stroke-width:1;stroke-linecap:butt;stroke-linejoin:miter;stroke-miterlimit:10;stroke-dasharray:none;stroke-opacity:1"
             id="path3496" />
        </g>
        <g
           id="g3498"
           transform="translate(280.2041,624.7251)"
           style="fill:#ffffff;stroke:none">
          <path
             d="m 0,0 c -2.003,-2.002 -21.273,-2.002 -21.273,-2.002 0,0 -4.504,10.753 -5.005,13.51 -0.501,2.758 -1.252,8.013 -1.252,8.013 l 39.293,7.008 C 11.763,26.529 2.002,2.002 0,0 m 35.537,39.792 c -2.002,3.755 -2.252,6.007 -5.255,8.259 -3.004,2.253 -6.007,0.251 -9.51,0 -3.503,-0.25 -7.257,-4.004 -10.052,-4.254 -2.795,-0.25 -37.749,-5.506 -41.003,-7.758 -3.253,-2.253 -7.007,-0.751 -10.511,0 -3.504,0.751 -4.505,2.252 -8.509,3.253 -4.005,1.001 -3.254,-0.75 -6.007,-3.253 0,0 0.251,-2.002 0,-3.163 -0.25,-1.161 11.201,-22.386 14.266,-29.622 2.614,-6.174 2.871,-16.601 5.255,-20.773 2.002,-3.503 10.262,-9.259 14.516,-8.508 4.254,0.75 2.002,2.752 2.002,6.506 0,3.754 1.501,1.752 5.506,3.242 4.004,1.49 12.513,0.262 20.272,0.012 7.758,-0.251 26.027,3.503 27.529,7.257 1.501,3.755 -1.502,3.755 -4.755,7.008 -3.254,3.254 0.501,5.506 1.251,10.762 0.751,5.255 7.008,11.512 9.761,13.764 2.753,2.252 -2.753,13.515 -4.756,17.268"
             style="fill:#ffffff;fill-opacity:1;fill-rule:nonzero;stroke:none"
             id="path3500" />
        </g>
        <g
           id="g3502"
           transform="translate(280.2041,624.7251)"
           style="fill:#ffffff;stroke:none">
          <path
             d="m 0,0 c -2.003,-2.002 -21.273,-2.002 -21.273,-2.002 0,0 -4.504,10.753 -5.005,13.51 -0.501,2.758 -1.252,8.013 -1.252,8.013 l 39.293,7.008 C 11.763,26.529 2.002,2.002 0,0 Z m 35.537,39.792 c -2.002,3.755 -2.252,6.007 -5.255,8.259 -3.004,2.253 -6.007,0.251 -9.51,0 -3.503,-0.25 -7.257,-4.004 -10.052,-4.254 -2.795,-0.25 -37.749,-5.506 -41.003,-7.758 -3.253,-2.253 -7.007,-0.751 -10.511,0 -3.504,0.751 -4.505,2.252 -8.509,3.253 -4.005,1.001 -3.254,-0.75 -6.007,-3.253 0,0 0.251,-2.002 0,-3.163 -0.25,-1.161 11.201,-22.386 14.266,-29.622 2.614,-6.174 2.871,-16.601 5.255,-20.773 2.002,-3.503 10.262,-9.259 14.516,-8.508 4.254,0.75 2.002,2.752 2.002,6.506 0,3.754 1.501,1.752 5.506,3.242 4.004,1.49 12.513,0.262 20.272,0.012 7.758,-0.251 26.027,3.503 27.529,7.257 1.501,3.755 -1.502,3.755 -4.755,7.008 -3.254,3.254 0.501,5.506 1.251,10.762 0.751,5.255 7.008,11.512 9.761,13.764 2.753,2.252 -2.753,13.515 -4.756,17.268 z"
             style="fill:#ffffff;stroke:none;stroke-width:1;stroke-linecap:butt;stroke-linejoin:miter;stroke-miterlimit:10;stroke-dasharray:none;stroke-opacity:1"
             id="path3504" />
        </g>
        <g
           id="g3506"
           transform="translate(226.1455,556.1523)"
           style="fill:#ffffff;stroke:none">
          <path
             d="m 0,0 c -0.5,4.004 -0.75,4.754 2.002,6.507 2.753,1.752 4.505,2.252 10.011,1.251 5.506,-1.001 16.226,-6.481 20.522,-11.762 13.64,-16.768 -6.251,-34.248 -8.259,-38.041 -0.205,-0.388 36.789,21.023 46.3,23.275 0,0 20.272,-5.256 19.02,-9.01 -2.197,-6.589 5.003,-3.545 -6.256,-7.008 -3.254,-1.001 -59.815,-20.771 -65.821,-18.269 l -6.006,2.503 c 0,0 -4.005,-0.751 -10.011,-3.253 -6.007,-2.503 -8.55,-5.15 -9.01,-4.505 -1.251,1.751 0.751,5.255 3.254,8.259 2.503,3.003 15.516,22.274 15.767,27.028 0.25,4.755 -0.251,7.508 -0.251,7.508 z"
             style="fill:#ffffff;fill-opacity:1;fill-rule:nonzero;stroke:none"
             id="path3508" />
        </g>
        <g
           id="g3510"
           transform="translate(226.1455,556.1523)"
           style="fill:#ffffff;stroke:none">
          <path
             d="m 0,0 c -0.5,4.004 -0.75,4.754 2.002,6.507 2.753,1.752 4.505,2.252 10.011,1.251 5.506,-1.001 16.226,-6.481 20.522,-11.762 13.64,-16.768 -6.251,-34.248 -8.259,-38.041 -0.205,-0.388 36.789,21.023 46.3,23.275 0,0 20.272,-5.256 19.02,-9.01 -2.197,-6.589 5.003,-3.545 -6.256,-7.008 -3.254,-1.001 -59.815,-20.771 -65.821,-18.269 l -6.006,2.503 c 0,0 -4.005,-0.751 -10.011,-3.253 -6.007,-2.503 -8.55,-5.15 -9.01,-4.505 -1.251,1.751 0.751,5.255 3.254,8.259 2.503,3.003 15.516,22.274 15.767,27.028 0.25,4.755 -0.251,7.508 -0.251,7.508 z"
             style="fill:#ffffff;stroke:none;stroke-width:1;stroke-linecap:butt;stroke-linejoin:miter;stroke-miterlimit:10;stroke-dasharray:none;stroke-opacity:1"
             id="path3512" />
        </g>
        <g
           id="g3514"
           transform="translate(250.4219,494.0864)"
           style="fill:#ffffff;stroke:none">
          <path
             d="m 0,0 c 6.006,2.502 36.289,13.514 38.541,15.516 2.252,2.002 -1.25,3.254 3.004,2.753 4.254,-0.5 23.024,-3.754 23.024,-6.757 0,-3.003 -1.251,-4.755 -3.254,-5.756 -2.002,-1.002 -47.3,-18.771 -58.061,-18.02 -10.762,0.751 -13.765,2.002 -12.764,4.505 C -8.51,-5.256 0,0 0,0"
             style="fill:#ffffff;fill-opacity:1;fill-rule:nonzero;stroke:none"
             id="path3516" />
        </g>
        <g
           id="g3518"
           transform="translate(250.4219,494.0864)"
           style="fill:#ffffff;stroke:none">
          <path
             d="m 0,0 c 6.006,2.502 36.289,13.514 38.541,15.516 2.252,2.002 -1.25,3.254 3.004,2.753 4.254,-0.5 23.024,-3.754 23.024,-6.757 0,-3.003 -1.251,-4.755 -3.254,-5.756 -2.002,-1.002 -47.3,-18.771 -58.061,-18.02 -10.762,0.751 -13.765,2.002 -12.764,4.505 C -8.51,-5.256 0,0 0,0 Z"
             style="fill:#ffffff;stroke:none;stroke-width:1;stroke-linecap:butt;stroke-linejoin:miter;stroke-miterlimit:10;stroke-dasharray:none;stroke-opacity:1"
             id="path3520" />
        </g>
        <g
           id="g3522"
           transform="translate(233.6543,459.5483)"
           style="fill:#ffffff;stroke:none">
          <path
             d="m 0,0 c 0.75,0.251 88.846,35.538 93.6,40.544 4.754,5.005 7.257,6.507 7.257,6.507 4.005,0.501 4.255,3.754 8.76,-1.252 4.505,-5.005 16.518,-16.564 6.006,-23.548 -10.511,-6.984 -10.512,-7.985 -12.514,-10.988 -2.001,-3.004 -7.506,-21.774 -1.25,-49.303 6.256,-27.53 8.258,-32.284 10.511,-35.038 2.253,-2.754 27.294,-11.384 36.038,-10.511 0,0 5.479,51.666 5.256,55.56 0,0 0.751,6.757 2.503,3.253 1.751,-3.504 5.505,-28.28 7.508,-32.284 2.002,-4.004 5.572,-19.981 8.509,-25.527 2.252,-4.256 2.883,-5.946 4.004,-8.51 1.751,-4.004 -9.915,-11.223 -9.154,-10.92 5.175,2.07 -45.849,-10.379 -63.424,8.668 -12.849,13.926 -24.089,19.057 -26.528,97.103 -0.235,7.542 -0.75,7.509 -0.75,7.509 0,0 -50.054,-21.524 -60.815,-23.025 -10.763,-1.502 -21.274,-1.502 -24.777,3.253 -3.504,4.755 -3.504,5.256 0,6.758 C -5.757,-0.25 0,0 0,0"
             style="fill:#ffffff;fill-opacity:1;fill-rule:nonzero;stroke:none"
             id="path3524" />
        </g>
        <g
           id="g3526"
           transform="translate(233.6543,459.5483)"
           style="fill:#ffffff;stroke:none">
          <path
             d="m 0,0 c 0.75,0.251 88.846,35.538 93.6,40.544 4.754,5.005 7.257,6.507 7.257,6.507 4.005,0.501 4.255,3.754 8.76,-1.252 4.505,-5.005 16.518,-16.564 6.006,-23.548 -10.511,-6.984 -10.512,-7.985 -12.514,-10.988 -2.001,-3.004 -7.506,-21.774 -1.25,-49.303 6.256,-27.53 8.258,-32.284 10.511,-35.038 2.253,-2.754 27.294,-11.384 36.038,-10.511 0,0 5.479,51.666 5.256,55.56 0,0 0.751,6.757 2.503,3.253 1.751,-3.504 5.505,-28.28 7.508,-32.284 2.002,-4.004 5.572,-19.981 8.509,-25.527 2.252,-4.256 2.883,-5.946 4.004,-8.51 1.751,-4.004 -9.915,-11.223 -9.154,-10.92 5.175,2.07 -45.849,-10.379 -63.424,8.668 -12.849,13.926 -24.089,19.057 -26.528,97.103 -0.235,7.542 -0.75,7.509 -0.75,7.509 0,0 -50.054,-21.524 -60.815,-23.025 -10.763,-1.502 -21.274,-1.502 -24.777,3.253 -3.504,4.755 -3.504,5.256 0,6.758 C -5.757,-0.25 0,0 0,0 Z"
             style="fill:#ffffff;stroke:none;stroke-width:1;stroke-linecap:butt;stroke-linejoin:miter;stroke-miterlimit:10;stroke-dasharray:none;stroke-opacity:1"
             id="path3528" />
        </g>
        <g
           id="g3530"
           transform="translate(255.4268,403.4883)"
           style="fill:#ffffff;stroke:none">
          <path
             d="m 0,0 c 0,0 1.002,24.277 -1.751,31.034 -2.754,6.758 -1.93,5.932 1.86,5.431 3.791,-0.5 10.304,-3.144 11.602,-6.432 1.679,-4.255 2.305,-25.547 2.305,-25.547 0,0 5.325,0.52 8.419,1.772 3.092,1.25 24.116,-1.002 25.116,-6.258 1.001,-5.256 1.251,-6.506 -1.251,-7.258 -2.503,-0.75 -26.529,-3.004 -27.279,-3.254 -0.751,-0.25 -3.254,-1.25 -3.254,-1.25 0,0 3.254,-49.552 -0.5,-51.054 -3.754,-1.502 -6.007,-1.502 -7.759,0 -1.751,1.502 -3.253,5.503 -6.256,8.007 -3.003,2.504 -15.127,11.012 -15.948,12.514 -0.821,1.502 -1.432,1.752 0,3.254 1.432,1.502 15.947,1.25 16.198,3.002 0.25,1.754 -1.251,22.301 -1.251,22.301 0,0 -30.783,-8.283 -33.912,-4.03 -2.785,3.788 -5.987,2.543 -3.512,5.756 C -32.315,-5.709 0,0 0,0"
             style="fill:#ffffff;fill-opacity:1;fill-rule:nonzero;stroke:none"
             id="path3532" />
        </g>
        <g
           id="g3534"
           transform="translate(255.4268,403.4883)"
           style="fill:#ffffff;stroke:none">
          <path
             d="m 0,0 c 0,0 1.002,24.277 -1.751,31.034 -2.754,6.758 -1.93,5.932 1.86,5.431 3.791,-0.5 10.304,-3.144 11.602,-6.432 1.679,-4.255 2.305,-25.547 2.305,-25.547 0,0 5.325,0.52 8.419,1.772 3.092,1.25 24.116,-1.002 25.116,-6.258 1.001,-5.256 1.251,-6.506 -1.251,-7.258 -2.503,-0.75 -26.529,-3.004 -27.279,-3.254 -0.751,-0.25 -3.254,-1.25 -3.254,-1.25 0,0 3.254,-49.552 -0.5,-51.054 -3.754,-1.502 -6.007,-1.502 -7.759,0 -1.751,1.502 -3.253,5.503 -6.256,8.007 -3.003,2.504 -15.127,11.012 -15.948,12.514 -0.821,1.502 -1.432,1.752 0,3.254 1.432,1.502 15.947,1.25 16.198,3.002 0.25,1.754 -1.251,22.301 -1.251,22.301 0,0 -30.783,-8.283 -33.912,-4.03 -2.785,3.788 -5.987,2.543 -3.512,5.756 C -32.315,-5.709 0,0 0,0 Z"
             style="fill:#ffffff;stroke:none;stroke-width:1;stroke-linecap:butt;stroke-linejoin:miter;stroke-miterlimit:10;stroke-dasharray:none;stroke-opacity:1"
             id="path3536" />
        </g>
        <g
           id="g3538"
           transform="translate(272.4453,431.5952)"
           style="fill:#ffffff;stroke:none">
          <path
             d="m 0,0 c 0,0 2.143,21.885 15.267,8.191 11.887,-12.406 2.002,-19.948 0,-20.948 C 13.264,-13.759 4.176,-18.066 0,-14.259 c -4.176,3.805 -3.003,6.763 -1.502,10.511 z"
             style="fill:#ffffff;fill-opacity:1;fill-rule:nonzero;stroke:none"
             id="path3540" />
        </g>
        <g
           id="g3542"
           transform="translate(272.4453,431.5952)"
           style="fill:#ffffff;stroke:none">
          <path
             d="m 0,0 c 0,0 2.143,21.885 15.267,8.191 11.887,-12.406 2.002,-19.948 0,-20.948 C 13.264,-13.759 4.176,-18.066 0,-14.259 c -4.176,3.805 -3.003,6.763 -1.502,10.511 z"
             style="fill:#ffffff;stroke:none;stroke-width:1;stroke-linecap:butt;stroke-linejoin:miter;stroke-miterlimit:10;stroke-dasharray:none;stroke-opacity:1"
             id="path3544" />
        </g>
        <g
           id="g3546"
           transform="translate(293.082,377.7109)"
           style="fill:#ffffff;stroke:none">
          <path
             d="M 0,0 C 1.387,0.752 1.887,9.51 6.893,9.51 11.898,9.51 17.654,0.502 18.404,0 19.155,-0.5 26.778,-14.516 9.202,-11.762 -8.374,-9.01 -3.618,-6.506 -2.117,-4.754 -0.615,-3.004 0,0 0,0"
             style="fill:#ffffff;fill-opacity:1;fill-rule:nonzero;stroke:none"
             id="path3548" />
        </g>
        <g
           id="g3550"
           transform="translate(293.082,377.7109)"
           style="fill:#ffffff;stroke:none">
          <path
             d="M 0,0 C 1.387,0.752 1.887,9.51 6.893,9.51 11.898,9.51 17.654,0.502 18.404,0 19.155,-0.5 26.778,-14.516 9.202,-11.762 -8.374,-9.01 -3.618,-6.506 -2.117,-4.754 -0.615,-3.004 0,0 0,0 Z"
             style="fill:#ffffff;stroke:none;stroke-width:1;stroke-linecap:butt;stroke-linejoin:miter;stroke-miterlimit:10;stroke-dasharray:none;stroke-opacity:1"
             id="path3552" />
        </g>
        <g
           id="g3554"
           transform="translate(230.022,410.3086)"
           style="fill:#ffffff;stroke:none">
          <path
             d="m 0,0 c -1.082,0.424 -14.296,5.094 -8.884,13.014 6.419,9.395 12.919,-0.52 15.14,-1.252 1.682,-0.553 12.013,-2.502 16.268,-1.752 4.255,0.751 0,-4.045 0,-4.045 0,0 -6.411,-10.203 -7.849,-11.276 -1.47,-1.093 -6.166,1.266 -10.421,3.29 z"
             style="fill:#ffffff;fill-opacity:1;fill-rule:nonzero;stroke:none"
             id="path3556" />
        </g>
        <g
           id="g3558"
           transform="translate(230.022,410.3086)"
           style="fill:#ffffff;stroke:none">
          <path
             d="m 0,0 c -1.082,0.424 -14.296,5.094 -8.884,13.014 6.419,9.395 12.919,-0.52 15.14,-1.252 1.682,-0.553 12.013,-2.502 16.268,-1.752 4.255,0.751 0,-4.045 0,-4.045 0,0 -6.411,-10.203 -7.849,-11.276 -1.47,-1.093 -6.166,1.266 -10.421,3.29 z"
             style="fill:#ffffff;stroke:none;stroke-width:1;stroke-linecap:butt;stroke-linejoin:miter;stroke-miterlimit:10;stroke-dasharray:none;stroke-opacity:1"
             id="path3560" />
        </g>
        <g
           id="g3562"
           transform="translate(212.1309,355.4277)"
           style="fill:#ffffff;stroke:none">
          <path
             d="M 0,0 C -13.515,16.646 -2.551,15.238 8.506,15.525 20.549,15.84 20.271,20.979 20.021,6.266 19.738,-10.367 8.199,-6.428 4.755,-4.746 Z"
             style="fill:#ffffff;fill-opacity:1;fill-rule:nonzero;stroke:none"
             id="path3564" />
        </g>
        <g
           id="g3566"
           transform="translate(212.1309,355.4277)"
           style="fill:#ffffff;stroke:none">
          <path
             d="M 0,0 C -13.515,16.646 -2.551,15.238 8.506,15.525 20.549,15.84 20.271,20.979 20.021,6.266 19.738,-10.367 8.199,-6.428 4.755,-4.746 Z"
             style="fill:#ffffff;stroke:none;stroke-width:1;stroke-linecap:butt;stroke-linejoin:miter;stroke-miterlimit:10;stroke-dasharray:none;stroke-opacity:1"
             id="path3568" />
        </g>
        <g
           id="g3570"
           transform="translate(329.7568,286.8652)"
           style="fill:#ffffff;stroke:none">
          <path
             d="M 0,0 C -0.751,-0.252 -14.266,-7.508 -1.252,6.256 11.763,20.02 17.77,26.777 17.77,29.029 c 0,2.254 -4.255,9.762 4.003,13.016 8.259,3.252 10.511,-0.5 14.515,-4.506 4.005,-4.004 6.258,-8.258 7.009,-9.76 C 44.047,26.277 48.552,18.02 28.53,9.26 8.509,0.5 0,0 0,0"
             style="fill:#ffffff;fill-opacity:1;fill-rule:nonzero;stroke:none"
             id="path3572" />
        </g>
        <g
           id="g3574"
           transform="translate(329.7568,286.8652)"
           style="fill:#ffffff;stroke:none">
          <path
             d="M 0,0 C -0.751,-0.252 -14.266,-7.508 -1.252,6.256 11.763,20.02 17.77,26.777 17.77,29.029 c 0,2.254 -4.255,9.762 4.003,13.016 8.259,3.252 10.511,-0.5 14.515,-4.506 4.005,-4.004 6.258,-8.258 7.009,-9.76 C 44.047,26.277 48.552,18.02 28.53,9.26 8.509,0.5 0,0 0,0 Z"
             style="fill:#ffffff;stroke:none;stroke-width:1;stroke-linecap:butt;stroke-linejoin:miter;stroke-miterlimit:10;stroke-dasharray:none;stroke-opacity:1"
             id="path3576" />
        </g>
        <g
           id="g3578"
           transform="translate(313.7715,286.8652)"
           style="fill:#ffffff;stroke:none">
          <path
             d="m 0,0 c 0,0 9.479,10.262 5.474,11.262 -4.004,1 -14.336,1.252 -15.552,1.502 -1.216,0.25 -12.729,7.81 -12.729,7.81 0,0 -6.27,0.699 -9.642,-4.808 C -35.82,10.26 -27.511,2.252 -24.533,0 -21.555,-2.252 -7.29,-7.26 -4.787,-6.258 -2.284,-5.256 0,0 0,0"
             style="fill:#ffffff;fill-opacity:1;fill-rule:nonzero;stroke:none"
             id="path3580" />
        </g>
        <g
           id="g3582"
           transform="translate(313.7715,286.8652)"
           style="fill:#ffffff;stroke:none">
          <path
             d="m 0,0 c 0,0 9.479,10.262 5.474,11.262 -4.004,1 -14.336,1.252 -15.552,1.502 -1.216,0.25 -12.729,7.81 -12.729,7.81 0,0 -6.27,0.699 -9.642,-4.808 C -35.82,10.26 -27.511,2.252 -24.533,0 -21.555,-2.252 -7.29,-7.26 -4.787,-6.258 -2.284,-5.256 0,0 0,0 Z"
             style="fill:#ffffff;stroke:none;stroke-width:1;stroke-linecap:butt;stroke-linejoin:miter;stroke-miterlimit:10;stroke-dasharray:none;stroke-opacity:1"
             id="path3584" />
        </g>
        <g
           id="g3586"
           transform="translate(232.2251,256.832)"
           style="fill:#ffffff;stroke:none">
          <path
             d="m 0,0 c 0,0 -10.731,-1.578 -11.588,1.002 -0.998,3.002 4.007,9.01 4.007,9.01 0,0 -14.766,17.267 -11.012,23.523 3.754,6.258 7.008,3.504 10.511,1.252 3.504,-2.252 5.506,-4.767 9.261,-6.889 3.754,-2.121 10.26,-7.193 11.762,-9.537 C 14.443,16.018 26.206,0.695 7.936,-0.654 -10.334,-2.002 0,0 0,0"
             style="fill:#ffffff;fill-opacity:1;fill-rule:nonzero;stroke:none"
             id="path3588" />
        </g>
        <g
           id="g3590"
           transform="translate(232.2251,256.832)"
           style="fill:#ffffff;stroke:none">
          <path
             d="m 0,0 c 0,0 -10.731,-1.578 -11.588,1.002 -0.998,3.002 4.007,9.01 4.007,9.01 0,0 -14.766,17.267 -11.012,23.523 3.754,6.258 7.008,3.504 10.511,1.252 3.504,-2.252 5.506,-4.767 9.261,-6.889 3.754,-2.121 10.26,-7.193 11.762,-9.537 C 14.443,16.018 26.206,0.695 7.936,-0.654 -10.334,-2.002 0,0 0,0 Z"
             style="fill:#ffffff;stroke:none;stroke-width:1;stroke-linecap:butt;stroke-linejoin:miter;stroke-miterlimit:10;stroke-dasharray:none;stroke-opacity:1"
             id="path3592" />
        </g>
        <g
           id="g3594"
           transform="translate(285.709,254.3301)"
           style="fill:#ffffff;stroke:none">
          <path
             d="m 0,0 c 0.751,0 -36.539,2.002 8.51,14.766 45.048,12.763 66.571,17.767 67.322,18.269 0.75,0.5 5.255,2.252 9.76,1.252 C 90.097,33.285 126.386,19.771 95.603,14.766 64.819,9.76 47.045,8.008 47.045,8.008 c 0,0 5.262,-11.262 -7.502,-17.518 -12.764,-6.258 -28.96,-17.068 -16.518,1.25 9.01,13.266 5.037,11.012 5.037,11.012 z"
             style="fill:#ffffff;fill-opacity:1;fill-rule:nonzero;stroke:none"
             id="path3596" />
        </g>
        <g
           id="g3598"
           transform="translate(285.709,254.3301)"
           style="fill:#ffffff;stroke:none">
          <path
             d="m 0,0 c 0.751,0 -36.539,2.002 8.51,14.766 45.048,12.763 66.571,17.767 67.322,18.269 0.75,0.5 5.255,2.252 9.76,1.252 C 90.097,33.285 126.386,19.771 95.603,14.766 64.819,9.76 47.045,8.008 47.045,8.008 c 0,0 5.262,-11.262 -7.502,-17.518 -12.764,-6.258 -28.96,-17.068 -16.518,1.25 9.01,13.266 5.037,11.012 5.037,11.012 z"
             style="fill:#ffffff;stroke:none;stroke-width:1;stroke-linecap:butt;stroke-linejoin:miter;stroke-miterlimit:10;stroke-dasharray:none;stroke-opacity:1"
             id="path3600" />
        </g>
        <g
           id="g3602"
           transform="translate(346.9717,230.6836)"
           style="fill:#ffffff;stroke:none">
          <path
             d="m 0,0 4.433,-73.395 c 0,0 -18.582,-0.564 -24.401,-2.066 -5.819,-1.5 -14.453,-0.937 -16.142,-1.5 -1.69,-0.564 -0.595,20.676 -0.595,20.676 l 28.155,1.5 c 0,0 20.355,8.043 -5.668,14.426 -3.419,0.838 -10.818,0 -14.572,-1.315 -4.941,-1.73 -8.537,-0.75 -8.537,-0.75 v 10.887 c 0,0 24.492,0.562 27.495,1.687 3.003,1.127 8.446,3.004 8.071,5.821 -0.376,2.814 -5.256,10.322 -15.955,9.009 -10.699,-1.314 -19.611,-5.068 -19.611,-5.068 v 15.203 c 0,0 -6.667,6.758 -9.858,8.26 -3.191,1.5 -10.699,3.566 -7.883,-5.443 2.815,-9.01 2.815,-5.069 2.815,-5.069 0,0 -1.689,-66.822 -0.75,-67.759 0.939,-0.94 10.698,-19.147 13.326,-18.772 2.628,0.377 31.158,6.008 36.227,6.008 5.067,0 6.194,-1.127 6.194,-1.127 0,0 6.569,-11.262 10.886,-11.262 4.317,0 9.573,5.819 9.573,5.819 0,0 2.065,44.109 0,57.06 -2.064,12.953 -1.877,14.641 -1.877,14.641 0,0 6.691,10.197 6.757,15.017 0.088,6.381 -3.566,24.776 -21.585,24.026 -6.885,-0.287 -6.288,-3.629 -8.071,-3.192 0,0 -17.692,-2.074 -22.9,-3.754 C -30.292,7.691 -42.672,-3.33 -19.968,-1.506 1.055,0.184 0,0 0,0"
             style="fill:#ffffff;fill-opacity:1;fill-rule:nonzero;stroke:none"
             id="path3604" />
        </g>
        <g
           id="g3606"
           transform="translate(346.9717,230.6836)"
           style="fill:#ffffff;stroke:none">
          <path
             d="m 0,0 4.433,-73.395 c 0,0 -18.582,-0.564 -24.401,-2.066 -5.819,-1.5 -14.453,-0.937 -16.142,-1.5 -1.69,-0.564 -0.595,20.676 -0.595,20.676 l 28.155,1.5 c 0,0 20.355,8.043 -5.668,14.426 -3.419,0.838 -10.818,0 -14.572,-1.315 -4.941,-1.73 -8.537,-0.75 -8.537,-0.75 v 10.887 c 0,0 24.492,0.562 27.495,1.687 3.003,1.127 8.446,3.004 8.071,5.821 -0.376,2.814 -5.256,10.322 -15.955,9.009 -10.699,-1.314 -19.611,-5.068 -19.611,-5.068 v 15.203 c 0,0 -6.667,6.758 -9.858,8.26 -3.191,1.5 -10.699,3.566 -7.883,-5.443 2.815,-9.01 2.815,-5.069 2.815,-5.069 0,0 -1.689,-66.822 -0.75,-67.759 0.939,-0.94 10.698,-19.147 13.326,-18.772 2.628,0.377 31.158,6.008 36.227,6.008 5.067,0 6.194,-1.127 6.194,-1.127 0,0 6.569,-11.262 10.886,-11.262 4.317,0 9.573,5.819 9.573,5.819 0,0 2.065,44.109 0,57.06 -2.064,12.953 -1.877,14.641 -1.877,14.641 0,0 6.691,10.197 6.757,15.017 0.088,6.381 -3.566,24.776 -21.585,24.026 -6.885,-0.287 -6.288,-3.629 -8.071,-3.192 0,0 -17.692,-2.074 -22.9,-3.754 C -30.292,7.691 -42.672,-3.33 -19.968,-1.506 1.055,0.184 0,0 0,0 Z"
             style="fill:#ffffff;stroke:none;stroke-width:1;stroke-linecap:butt;stroke-linejoin:miter;stroke-miterlimit:10;stroke-dasharray:none;stroke-opacity:1"
             id="path3608" />
        </g>
        <g
           id="g3610"
           transform="translate(211.0044,221.6699)"
           style="fill:#ffffff;stroke:none">
          <path
             d="m 0,0 26.841,19.896 c 0,0 15.955,-7.132 16.705,-9.009 C 44.297,9.01 44.11,2.064 43.546,0 42.984,-2.064 29.844,-31.91 29.844,-31.91 c 0,0 10.324,-10.887 11.263,-15.766 0.938,-4.881 0.562,-43.359 0.562,-43.359 0,0 49.178,-9.01 59.314,-11.449 10.136,-2.442 34.162,-6.571 36.977,-6.946 2.816,-0.375 46.55,-2.252 55.372,-3.566 8.822,-1.315 13.89,-0.563 17.081,0 3.19,0.562 21.961,4.881 24.213,2.439 l 2.252,-2.439 c 0,0 -2.064,-3.942 -4.504,-5.068 -2.441,-1.125 -33.036,-11.45 -40.919,-12.389 -7.883,-0.938 -7.883,-0.75 -9.76,-2.065 -1.877,-1.312 -3.379,-3.566 -4.505,-3.753 -1.127,-0.188 -27.217,1.126 -33.224,3.566 -6.006,2.441 -78.083,25.34 -81.837,25.715 -3.754,0.375 -39.98,2.064 -43.922,1.127 -3.941,-0.94 -16.33,-4.506 -20.459,-5.069 -4.13,-0.562 -10.324,-0.562 -13.139,6.006 -2.816,6.571 -0.751,9.949 9.009,12.014 9.761,2.064 29.845,4.129 30.408,10.887 0.563,6.757 0,10.511 0,10.511 0,0 0.938,18.957 -0.376,21.209 -1.314,2.254 -7.883,1.502 -11.074,5.819 -3.191,4.318 -5.443,8.634 -4.317,15.392 l 1.126,6.758 c 0,0 -2.44,-1.689 -9.572,-1.502 -7.133,0.188 -16.518,5.443 -19.709,6.193 -3.191,0.752 -4.317,6.946 4.129,9.762 8.447,2.815 7.884,3.377 9.949,4.504 C -3.754,-2.252 0,0 0,0"
             style="fill:#ffffff;fill-opacity:1;fill-rule:nonzero;stroke:none"
             id="path3612" />
        </g>
        <g
           id="g3614"
           transform="translate(211.0044,221.6699)"
           style="fill:#ffffff;stroke:none">
          <path
             d="m 0,0 26.841,19.896 c 0,0 15.955,-7.132 16.705,-9.009 C 44.297,9.01 44.11,2.064 43.546,0 42.984,-2.064 29.844,-31.91 29.844,-31.91 c 0,0 10.324,-10.887 11.263,-15.766 0.938,-4.881 0.562,-43.359 0.562,-43.359 0,0 49.178,-9.01 59.314,-11.449 10.136,-2.442 34.162,-6.571 36.977,-6.946 2.816,-0.375 46.55,-2.252 55.372,-3.566 8.822,-1.315 13.89,-0.563 17.081,0 3.19,0.562 21.961,4.881 24.213,2.439 l 2.252,-2.439 c 0,0 -2.064,-3.942 -4.504,-5.068 -2.441,-1.125 -33.036,-11.45 -40.919,-12.389 -7.883,-0.938 -7.883,-0.75 -9.76,-2.065 -1.877,-1.312 -3.379,-3.566 -4.505,-3.753 -1.127,-0.188 -27.217,1.126 -33.224,3.566 -6.006,2.441 -78.083,25.34 -81.837,25.715 -3.754,0.375 -39.98,2.064 -43.922,1.127 -3.941,-0.94 -16.33,-4.506 -20.459,-5.069 -4.13,-0.562 -10.324,-0.562 -13.139,6.006 -2.816,6.571 -0.751,9.949 9.009,12.014 9.761,2.064 29.845,4.129 30.408,10.887 0.563,6.757 0,10.511 0,10.511 0,0 0.938,18.957 -0.376,21.209 -1.314,2.254 -7.883,1.502 -11.074,5.819 -3.191,4.318 -5.443,8.634 -4.317,15.392 l 1.126,6.758 c 0,0 -2.44,-1.689 -9.572,-1.502 -7.133,0.188 -16.518,5.443 -19.709,6.193 -3.191,0.752 -4.317,6.946 4.129,9.762 8.447,2.815 7.884,3.377 9.949,4.504 C -3.754,-2.252 0,0 0,0 Z"
             style="fill:#ffffff;stroke:none;stroke-width:1;stroke-linecap:butt;stroke-linejoin:miter;stroke-miterlimit:10;stroke-dasharray:none;stroke-opacity:1"
             id="path3616" />
        </g>
      </g>
    </g>
  </g>
</svg>
