<?xml version="1.0" encoding="UTF-8" standalone="no"?>
<!-- Created with Inkscape (http://www.inkscape.org/) -->

<svg
   width="216.35217mm"
   height="207.37856mm"
   viewBox="0 0 216.35217 207.37856"
   version="1.1"
   id="svg6344"
   inkscape:version="1.1 (c68e22c387, 2021-05-23)"
   sodipodi:docname="kanji_logo_1.svg"
   xmlns:inkscape="http://www.inkscape.org/namespaces/inkscape"
   xmlns:sodipodi="http://sodipodi.sourceforge.net/DTD/sodipodi-0.dtd"
   xmlns="http://www.w3.org/2000/svg"
   xmlns:svg="http://www.w3.org/2000/svg">
  <sodipodi:namedview
     id="namedview6346"
     pagecolor="#ffffff"
     bordercolor="#666666"
     borderopacity="1.0"
     inkscape:pageshadow="2"
     inkscape:pageopacity="0.0"
     inkscape:pagecheckerboard="true"
     inkscape:document-units="mm"
     showgrid="false"
     inkscape:zoom="0.74208053"
     inkscape:cx="584.16841"
     inkscape:cy="428.52492"
     inkscape:window-width="2560"
     inkscape:window-height="1403"
     inkscape:window-x="0"
     inkscape:window-y="0"
     inkscape:window-maximized="1"
     inkscape:current-layer="layer1"
     fit-margin-top="0"
     fit-margin-left="0"
     fit-margin-right="0"
     fit-margin-bottom="0" />
  <defs
     id="defs6341">
    <clipPath
       clipPathUnits="userSpaceOnUse"
       id="clipPath3480">
      <path
         d="M 0,841.89 H 595.28 V 0 H 0 Z"
         id="path3478" />
    </clipPath>
  </defs>
  <g
     inkscape:label="Layer 1"
     inkscape:groupmode="layer"
     id="layer1"
     transform="translate(0.74362386,-15.033707)">
    <path
       id="path7155"
       style="fill:#ff0000;stroke-width:0.165"
       d="m 138.7669,14.679928 v 54.382211 c 1.33093,-0.60712 2.79908,-1.310642 4.94854,-2.350762 2.9913,-1.447477 8.16825,-3.14902 11.50421,-3.781165 l 6.06526,-1.149284 1.94975,2.291334 c 1.07228,1.260123 3.36659,2.951019 5.0984,3.757909 1.73178,0.806865 4.43665,2.206969 6.011,3.111439 1.57438,0.904499 3.89317,2.134687 5.15266,2.733167 1.2595,0.598463 8.01553,5.228809 15.01355,10.289809 6.99802,5.061017 12.88347,9.201508 13.07879,9.201508 0.19538,0 2.21981,1.450125 4.49895,3.222024 l 2.26653,1.762167 A 108.19325,108.19325 0 0 0 138.7669,14.679928 Z m -61.428292,0.0062 A 108.19325,108.19325 0 0 0 2.882689,93.175912 c 3.5438947,2.091225 9.350632,4.770747 12.462289,5.644616 1.568999,0.440629 2.218096,0.04586 4.007507,-2.436027 3.547949,-4.92116 4.293316,-5.254297 10.219016,-4.565097 4.859509,0.56519 5.531307,0.448805 7.320999,-1.267105 1.083765,-1.039091 3.470966,-2.491756 5.305102,-3.228227 3.954733,-1.58792 6.822043,-3.653221 10.97039,-7.90236 2.153015,-2.205289 3.700454,-3.130042 5.238956,-3.130042 1.200909,0 5.493721,-1.604068 9.53947,-3.564639 3.532418,-1.711793 7.268123,-3.267699 9.39219,-3.983736 z m 82.679192,51.180853 -6.29057,1.592668 c -3.45981,0.875932 -8.7163,2.822175 -11.68146,4.324802 -1.07116,0.542835 -2.19283,1.021093 -3.27887,1.447456 v 36.471673 c 1.81505,1.11549 3.20731,1.22082 8.38347,0.75551 l 6.5841,-0.59169 1.68155,2.75125 c 1.08204,1.77055 2.23984,2.75177 3.24786,2.75177 0.86154,0 2.29568,0.9521 3.1874,2.11615 1.29773,1.69401 2.53522,2.22612 6.19859,2.66599 15.31353,1.83894 14.5868,1.62639 16.27498,4.76508 1.8602,3.45847 4.09291,3.77379 8.74726,1.23559 1.6649,-0.9079 4.44405,-2.16519 6.17586,-2.79415 2.93938,-1.06752 4.01991,-1.69327 10.0185,-5.80223 1.28951,-0.88329 4.30007,-1.74812 6.89106,-1.97921 0.0288,-0.003 0.0413,-0.002 0.0698,-0.005 a 108.19325,108.19325 0 0 0 -1.11983,-12.94753 c -1.62761,-0.42718 -3.19534,-1.40384 -6.19393,-3.570328 -2.95473,-2.134791 -8.0771,-5.777516 -11.38329,-8.094597 -3.30616,-2.317109 -8.32979,-5.91462 -11.16366,-7.994343 -2.83384,-2.07972 -6.18295,-4.281879 -7.44244,-4.894275 -1.25948,-0.61241 -3.44943,-1.863482 -4.86637,-2.780192 -1.41692,-0.916723 -4.37943,-2.505231 -6.58357,-3.529501 -2.20408,-1.024255 -4.78354,-2.769704 -5.73196,-3.878832 z m -82.679192,7.451744 c -3.242877,1.189577 -6.826869,2.691924 -9.327595,3.972883 -3.695406,1.892858 -7.615346,3.441649 -8.71058,3.441649 -1.341387,0 -3.352313,1.277597 -6.161897,3.91449 -2.294001,2.153023 -6.103065,4.798184 -8.4646,5.878194 -2.361555,1.080072 -5.40389,2.945681 -6.760311,4.146 -2.328534,2.06062 -2.782091,2.147893 -8.131286,1.559597 l -5.665804,-0.623218 -2.732133,3.731038 c -2.66895,3.644542 -2.811808,3.722222 -6.180501,3.364132 -3.588399,-0.38141 -8.906992,-2.59357 -13.1940269,-5.371761 a 108.19325,108.19325 0 0 0 -2.13320307,21.012151 108.19325,108.19325 0 0 0 0.078548,2.09445 c 2.40218007,-0.84996 4.92760037,-1.50653 5.97327867,-1.50947 1.2802809,-0.003 3.179983,-0.90695 4.5795663,-2.17713 1.31556,-1.19393 4.066648,-2.60609 6.113321,-3.13831 7.804486,-2.02941 8.670846,-2.46123 10.520288,-5.24205 1.413589,-2.12548 2.355003,-2.77038 4.04213,-2.77038 1.441846,0 3.16108,-0.91779 4.990912,-2.66444 4.630433,-4.419946 5.976186,-3.836309 9.930143,4.3062 2.021623,4.1632 4.602739,6.5907 8.687839,8.17108 2.836389,1.09733 3.118067,1.0356 6.584096,-1.44694 3.605998,-2.58278 3.665812,-2.59334 14.784109,-2.60863 0.438134,-5.3e-4 0.760802,-0.015 1.177706,-0.0181 z M 40.479361,104.80724 c -0.808347,0.0937 -1.87121,0.80493 -3.124875,2.12649 -1.35601,1.42946 -2.901002,2.22002 -4.337203,2.22002 -1.738434,0 -2.712728,0.67498 -4.413168,3.05821 -1.344882,1.8849 -3.018809,3.26209 -4.36304,3.58893 -1.199558,0.29168 -3.112317,0.91365 -4.250903,1.38234 -1.138587,0.4687 -2.723105,0.85215 -3.521232,0.85215 -0.798123,0 -3.401376,1.5467 -5.78466,3.43751 -2.3832883,1.89082 -6.0670626,4.11352 -8.1860636,4.93923 -0.7257018,0.2828 -1.4648644,0.66899 -2.19728187,1.09451 A 108.19325,108.19325 0 0 0 37.674881,200.4045 c 4.027704,0.70189 10.144247,-0.44662 12.845727,-2.78639 1.386017,-1.20039 4.308607,-3.0392 6.494693,-4.08657 2.186101,-1.04732 4.876371,-2.43435 5.978448,-3.08198 6.369052,-3.74275 10.757154,-6.24806 14.344859,-8.03207 v -53.77191 c -2.486517,-0.14228 -4.029356,-0.81176 -7.300328,-3.15743 -3.164999,-2.2697 -5.741321,-3.4146 -8.831503,-3.92483 -7.598426,-1.25444 -12.264948,-3.93337 -15.744259,-9.0382 -1.674106,-2.45619 -3.197593,-5.21848 -3.385838,-6.13865 -0.235083,-1.14901 -0.788972,-1.67291 -1.597319,-1.57923 z m 98.287539,9.40718 v 39.11234 c 1.0318,-0.24918 1.87972,-0.79049 2.62103,-1.64073 1.35591,-1.55518 2.10533,-1.77348 4.41369,-1.28519 1.52924,0.3236 3.69554,0.61208 4.81417,0.64079 3.19434,0.0824 9.97271,-5.69087 14.36967,-12.23801 l 3.80855,-5.67149 h 3.95377 c 2.61421,0 4.33051,0.44642 5.06532,1.31775 0.61118,0.7248 2.0554,1.73038 3.20962,2.23448 3.12524,1.36503 15.09341,3.53792 19.53214,3.54604 4.1637,0.007 8.0348,2.32001 11.56984,6.91121 0.0386,0.0501 0.084,0.092 0.12299,0.14159 a 108.19325,108.19325 0 0 0 3.98115,-28.01948 c -1.6194,0.37245 -5.58732,2.32305 -9.05164,4.47157 -3.57391,2.21643 -7.39975,4.28911 -8.50181,4.6054 -1.10205,0.3162 -3.47713,1.32376 -5.27771,2.23914 -1.8006,0.91537 -4.53953,1.6645 -6.08645,1.6645 -2.54162,0 -2.95974,-0.29933 -4.34082,-3.10834 -1.49062,-3.0318 -1.62747,-3.10885 -5.54437,-3.10885 -2.20877,0 -4.54697,-0.44087 -5.19606,-0.97979 -0.64912,-0.53892 -3.27304,-1.19641 -5.83065,-1.46141 -3.75997,-0.38954 -4.95989,-0.88243 -6.26836,-2.57297 -0.89003,-1.15002 -2.36516,-2.09083 -3.27835,-2.09083 -1.14117,0 -1.95523,-0.69697 -2.60242,-2.22932 -0.92994,-2.20174 -1.02857,-2.22668 -7.90081,-1.99833 -3.88218,0.12898 -6.01788,0.009 -7.58249,-0.48007 z m -61.428292,1.16685 c -0.0084,1e-5 -0.01273,5.3e-4 -0.02119,5.3e-4 -5.831473,0.007 -11.182282,0.25322 -11.890748,0.54777 -1.469803,0.61105 -1.743382,2.10478 -0.385506,2.10478 0.4964,0 3.008492,1.36988 5.582086,3.04426 2.662224,1.73201 4.512863,2.60551 6.715353,3.07062 z m 95.333722,21.30464 c -1.81525,0 -2.68311,0.83547 -6.2296,5.99499 -3.03776,4.41931 -5.39974,6.9006 -8.98705,9.44128 -2.6764,1.89557 -5.31843,3.79841 -5.87095,4.22868 -0.65088,0.50681 -1.73353,0.30939 -3.07527,-0.56017 -2.80955,-1.82109 -4.34846,-1.69004 -6.83059,0.58188 -1.12651,1.03113 -1.7831,1.44865 -2.91197,1.46658 v 6.33449 c 1.90241,1.03113 4.38657,1.73089 8.38347,2.32906 4.77394,0.71451 5.36107,1.0122 7.71271,3.91139 1.70196,2.09823 2.75381,2.68868 4.81779,2.70526 3.90348,0.0302 6.8713,1.33952 8.57261,3.77806 0.83076,1.19075 3.34667,3.07781 5.59035,4.19355 l 4.07934,2.0283 5.08031,-4.5465 c 7.17626,-6.42203 9.46625,-7.47067 15.21044,-6.9665 1.12412,0.0987 2.44375,0.28076 3.73569,0.49093 a 108.19325,108.19325 0 0 0 9.08833,-20.66592 c -0.20657,-0.24126 -0.43246,-0.46561 -0.62631,-0.7183 -3.08168,-4.01699 -6.3178,-6.03374 -9.68055,-6.03374 -3.59694,0 -15.26869,-2.19171 -19.51716,-3.6649 -1.57435,-0.54593 -3.66549,-1.74354 -4.64726,-2.66082 -0.9818,-0.91733 -2.73429,-1.6676 -3.89433,-1.6676 z m -33.90543,31.75 v 53.62257 a 108.19325,108.19325 0 0 0 60.88053,-46.24214 c -2.73312,-0.1541 -6.68454,0.32901 -8.48579,1.30793 -1.37778,0.74881 -4.75115,3.36692 -7.49618,5.81825 -5.34006,4.76878 -6.98334,5.07529 -10.86704,2.02675 -0.85027,-0.6674 -2.12639,-1.21336 -2.83549,-1.21336 -0.70912,0 -2.1103,-1.23483 -3.11402,-2.74402 -1.62294,-2.4403 -2.32898,-2.81097 -6.37739,-3.3507 -2.87609,-0.38344 -5.05988,-1.17425 -5.9309,-2.14715 -0.75827,-0.84696 -1.9109,-2.13403 -2.56109,-2.86029 -0.6502,-0.72634 -2.4536,-1.53452 -4.0075,-1.79628 -3.959,-0.66688 -6.93713,-1.47802 -9.20513,-2.42156 z M 77.338608,186.9552 c -1.131846,0.60991 -2.209956,1.15152 -3.467487,1.90789 -3.621034,2.17791 -9.28892,5.33485 -12.595097,7.0156 -3.306165,1.68072 -7.575617,4.26056 -9.487795,5.73298 -3.241331,2.49585 -3.758149,2.64177 -9.78028,2.35127 a 108.19325,108.19325 0 0 0 35.330659,17.94051 z" />
    <g
       id="g7396"
       transform="matrix(0.93631605,0,0,0.93631605,9.7483615,-20.506911)"
       style="fill:#ff0000;stroke:none">
      <g
         id="g3476"
         clip-path="url(#clipPath3480)"
         transform="matrix(0.20541312,0,0,-0.20541312,43.30698,239.26706)"
         style="fill:#ff0000;stroke:none">
        <g
           id="g3482"
           transform="translate(180.5972,678.0322)"
           style="fill:#ff0000;stroke:none">
          <path
             d="m 0,0 c 0,0 -22.274,-14.515 -24.776,-16.267 -2.503,-1.752 -4.255,-2.503 -2.253,-3.504 2.002,-1.001 1.502,-0.751 4.755,0 3.253,0.751 28.116,5.924 39.292,11.512 5.506,2.753 42.295,37.29 54.309,57.812 12.012,20.522 15.265,25.277 17.518,27.029 2.252,1.752 2.756,2.407 4.004,2.502 3.254,0.251 8.76,-4.754 8.76,-4.754 0,0 12.263,-15.017 16.767,-20.773 4.505,-5.756 25.528,-29.531 27.28,-31.283 1.752,-1.752 18.019,-20.022 21.523,-22.274 3.503,-2.252 10.51,-6.757 13.264,-7.758 2.753,-1.001 5.757,-1.502 8.509,-1.252 2.753,0.251 47.3,6.507 49.803,7.509 2.503,1.001 5.506,0.75 5.506,3.753 0,3.003 0.501,4.505 -2.252,5.006 -2.753,0.5 -34.036,8.509 -46.55,11.262 -12.513,2.753 -15.266,3.503 -15.266,3.503 0,0 -35.038,33.537 -45.049,46.801 -10.01,13.264 -12.013,12.763 -17.269,18.019 -5.254,5.256 -10.76,7.508 -14.014,11.012 -3.253,3.503 -4.254,9.01 -6.507,14.015 -2.252,5.005 -5.756,9.259 -10.762,10.01 -5.005,0.751 -9.759,-0.751 -12.512,-3.503 -2.753,-2.753 -4.255,-2.503 -2.003,-4.755 2.253,-2.253 4.005,-4.005 4.505,-6.007 0.501,-2.002 0,0 -1.501,-3.003 C 72.089,98.63 49.809,63.046 49.303,61.816 47.551,57.562 35.538,40.043 31.534,32.785 27.939,26.271 24.509,22.218 9.51,7.258 6.257,4.014 0,0 0,0"
             style="fill:#ff0000;fill-opacity:1;fill-rule:nonzero;stroke:none"
             id="path3484" />
        </g>
        <g
           id="g3486"
           transform="translate(180.5972,678.0322)"
           style="fill:#ff0000;stroke:none">
          <path
             d="m 0,0 c 0,0 -22.274,-14.515 -24.776,-16.267 -2.503,-1.752 -4.255,-2.503 -2.253,-3.504 2.002,-1.001 1.502,-0.751 4.755,0 3.253,0.751 28.116,5.924 39.292,11.512 5.506,2.753 42.295,37.29 54.309,57.812 12.012,20.522 15.265,25.277 17.518,27.029 2.252,1.752 2.756,2.407 4.004,2.502 3.254,0.251 8.76,-4.754 8.76,-4.754 0,0 12.263,-15.017 16.767,-20.773 4.505,-5.756 25.528,-29.531 27.28,-31.283 1.752,-1.752 18.019,-20.022 21.523,-22.274 3.503,-2.252 10.51,-6.757 13.264,-7.758 2.753,-1.001 5.757,-1.502 8.509,-1.252 2.753,0.251 47.3,6.507 49.803,7.509 2.503,1.001 5.506,0.75 5.506,3.753 0,3.003 0.501,4.505 -2.252,5.006 -2.753,0.5 -34.036,8.509 -46.55,11.262 -12.513,2.753 -15.266,3.503 -15.266,3.503 0,0 -35.038,33.537 -45.049,46.801 -10.01,13.264 -12.013,12.763 -17.269,18.019 -5.254,5.256 -10.76,7.508 -14.014,11.012 -3.253,3.503 -4.254,9.01 -6.507,14.015 -2.252,5.005 -5.756,9.259 -10.762,10.01 -5.005,0.751 -9.759,-0.751 -12.512,-3.503 -2.753,-2.753 -4.255,-2.503 -2.003,-4.755 2.253,-2.253 4.005,-4.005 4.505,-6.007 0.501,-2.002 0,0 -1.501,-3.003 C 72.089,98.63 49.809,63.046 49.303,61.816 47.551,57.562 35.538,40.043 31.534,32.785 27.939,26.271 24.509,22.218 9.51,7.258 6.257,4.014 0,0 0,0 Z"
             style="fill:#ff0000;stroke:none;stroke-width:1;stroke-linecap:butt;stroke-linejoin:miter;stroke-miterlimit:10;stroke-dasharray:none;stroke-opacity:1"
             id="path3488" />
        </g>
        <g
           id="g3490"
           transform="translate(244.916,692.5479)"
           style="fill:#ff0000;stroke:none">
          <path
             d="m 0,0 c 0,0 27.779,8.759 31.534,10.511 3.754,1.752 3.003,3.254 5.255,3.004 2.253,-0.25 5.173,-2.503 7.092,-3.254 C 45.799,9.51 51.555,8.536 54.308,6.771 57.062,5.005 63.317,3.503 63.317,0 c 0,-3.503 0.752,-5.506 -2.002,-6.256 -2.752,-0.751 -17.518,-0.501 -21.272,-1.002 -3.754,-0.5 -16.769,-3.503 -20.272,-4.254 -3.503,-0.751 -20.522,-2.253 -22.524,0 -2.002,2.252 -5.255,3.754 -4.755,6.257 C -7.007,-2.753 0,0 0,0"
             style="fill:#ff0000;fill-opacity:1;fill-rule:nonzero;stroke:none"
             id="path3492" />
        </g>
        <g
           id="g3494"
           transform="translate(244.916,692.5479)"
           style="fill:#ff0000;stroke:none">
          <path
             d="m 0,0 c 0,0 27.779,8.759 31.534,10.511 3.754,1.752 3.003,3.254 5.255,3.004 2.253,-0.25 5.173,-2.503 7.092,-3.254 C 45.799,9.51 51.555,8.536 54.308,6.771 57.062,5.005 63.317,3.503 63.317,0 c 0,-3.503 0.752,-5.506 -2.002,-6.256 -2.752,-0.751 -17.518,-0.501 -21.272,-1.002 -3.754,-0.5 -16.769,-3.503 -20.272,-4.254 -3.503,-0.751 -20.522,-2.253 -22.524,0 -2.002,2.252 -5.255,3.754 -4.755,6.257 C -7.007,-2.753 0,0 0,0 Z"
             style="fill:#ff0000;stroke:none;stroke-width:1;stroke-linecap:butt;stroke-linejoin:miter;stroke-miterlimit:10;stroke-dasharray:none;stroke-opacity:1"
             id="path3496" />
        </g>
        <g
           id="g3498"
           transform="translate(280.2041,624.7251)"
           style="fill:#ff0000;stroke:none">
          <path
             d="m 0,0 c -2.003,-2.002 -21.273,-2.002 -21.273,-2.002 0,0 -4.504,10.753 -5.005,13.51 -0.501,2.758 -1.252,8.013 -1.252,8.013 l 39.293,7.008 C 11.763,26.529 2.002,2.002 0,0 m 35.537,39.792 c -2.002,3.755 -2.252,6.007 -5.255,8.259 -3.004,2.253 -6.007,0.251 -9.51,0 -3.503,-0.25 -7.257,-4.004 -10.052,-4.254 -2.795,-0.25 -37.749,-5.506 -41.003,-7.758 -3.253,-2.253 -7.007,-0.751 -10.511,0 -3.504,0.751 -4.505,2.252 -8.509,3.253 -4.005,1.001 -3.254,-0.75 -6.007,-3.253 0,0 0.251,-2.002 0,-3.163 -0.25,-1.161 11.201,-22.386 14.266,-29.622 2.614,-6.174 2.871,-16.601 5.255,-20.773 2.002,-3.503 10.262,-9.259 14.516,-8.508 4.254,0.75 2.002,2.752 2.002,6.506 0,3.754 1.501,1.752 5.506,3.242 4.004,1.49 12.513,0.262 20.272,0.012 7.758,-0.251 26.027,3.503 27.529,7.257 1.501,3.755 -1.502,3.755 -4.755,7.008 -3.254,3.254 0.501,5.506 1.251,10.762 0.751,5.255 7.008,11.512 9.761,13.764 2.753,2.252 -2.753,13.515 -4.756,17.268"
             style="fill:#ff0000;fill-opacity:1;fill-rule:nonzero;stroke:none"
             id="path3500" />
        </g>
        <g
           id="g3502"
           transform="translate(280.2041,624.7251)"
           style="fill:#ff0000;stroke:none">
          <path
             d="m 0,0 c -2.003,-2.002 -21.273,-2.002 -21.273,-2.002 0,0 -4.504,10.753 -5.005,13.51 -0.501,2.758 -1.252,8.013 -1.252,8.013 l 39.293,7.008 C 11.763,26.529 2.002,2.002 0,0 Z m 35.537,39.792 c -2.002,3.755 -2.252,6.007 -5.255,8.259 -3.004,2.253 -6.007,0.251 -9.51,0 -3.503,-0.25 -7.257,-4.004 -10.052,-4.254 -2.795,-0.25 -37.749,-5.506 -41.003,-7.758 -3.253,-2.253 -7.007,-0.751 -10.511,0 -3.504,0.751 -4.505,2.252 -8.509,3.253 -4.005,1.001 -3.254,-0.75 -6.007,-3.253 0,0 0.251,-2.002 0,-3.163 -0.25,-1.161 11.201,-22.386 14.266,-29.622 2.614,-6.174 2.871,-16.601 5.255,-20.773 2.002,-3.503 10.262,-9.259 14.516,-8.508 4.254,0.75 2.002,2.752 2.002,6.506 0,3.754 1.501,1.752 5.506,3.242 4.004,1.49 12.513,0.262 20.272,0.012 7.758,-0.251 26.027,3.503 27.529,7.257 1.501,3.755 -1.502,3.755 -4.755,7.008 -3.254,3.254 0.501,5.506 1.251,10.762 0.751,5.255 7.008,11.512 9.761,13.764 2.753,2.252 -2.753,13.515 -4.756,17.268 z"
             style="fill:#ff0000;stroke:none;stroke-width:1;stroke-linecap:butt;stroke-linejoin:miter;stroke-miterlimit:10;stroke-dasharray:none;stroke-opacity:1"
             id="path3504" />
        </g>
        <g
           id="g3506"
           transform="translate(226.1455,556.1523)"
           style="fill:#ff0000;stroke:none">
          <path
             d="m 0,0 c -0.5,4.004 -0.75,4.754 2.002,6.507 2.753,1.752 4.505,2.252 10.011,1.251 5.506,-1.001 16.226,-6.481 20.522,-11.762 13.64,-16.768 -6.251,-34.248 -8.259,-38.041 -0.205,-0.388 36.789,21.023 46.3,23.275 0,0 20.272,-5.256 19.02,-9.01 -2.197,-6.589 5.003,-3.545 -6.256,-7.008 -3.254,-1.001 -59.815,-20.771 -65.821,-18.269 l -6.006,2.503 c 0,0 -4.005,-0.751 -10.011,-3.253 -6.007,-2.503 -8.55,-5.15 -9.01,-4.505 -1.251,1.751 0.751,5.255 3.254,8.259 2.503,3.003 15.516,22.274 15.767,27.028 0.25,4.755 -0.251,7.508 -0.251,7.508 z"
             style="fill:#ff0000;fill-opacity:1;fill-rule:nonzero;stroke:none"
             id="path3508" />
        </g>
        <g
           id="g3510"
           transform="translate(226.1455,556.1523)"
           style="fill:#ff0000;stroke:none">
          <path
             d="m 0,0 c -0.5,4.004 -0.75,4.754 2.002,6.507 2.753,1.752 4.505,2.252 10.011,1.251 5.506,-1.001 16.226,-6.481 20.522,-11.762 13.64,-16.768 -6.251,-34.248 -8.259,-38.041 -0.205,-0.388 36.789,21.023 46.3,23.275 0,0 20.272,-5.256 19.02,-9.01 -2.197,-6.589 5.003,-3.545 -6.256,-7.008 -3.254,-1.001 -59.815,-20.771 -65.821,-18.269 l -6.006,2.503 c 0,0 -4.005,-0.751 -10.011,-3.253 -6.007,-2.503 -8.55,-5.15 -9.01,-4.505 -1.251,1.751 0.751,5.255 3.254,8.259 2.503,3.003 15.516,22.274 15.767,27.028 0.25,4.755 -0.251,7.508 -0.251,7.508 z"
             style="fill:#ff0000;stroke:none;stroke-width:1;stroke-linecap:butt;stroke-linejoin:miter;stroke-miterlimit:10;stroke-dasharray:none;stroke-opacity:1"
             id="path3512" />
        </g>
        <g
           id="g3514"
           transform="translate(250.4219,494.0864)"
           style="fill:#ff0000;stroke:none">
          <path
             d="m 0,0 c 6.006,2.502 36.289,13.514 38.541,15.516 2.252,2.002 -1.25,3.254 3.004,2.753 4.254,-0.5 23.024,-3.754 23.024,-6.757 0,-3.003 -1.251,-4.755 -3.254,-5.756 -2.002,-1.002 -47.3,-18.771 -58.061,-18.02 -10.762,0.751 -13.765,2.002 -12.764,4.505 C -8.51,-5.256 0,0 0,0"
             style="fill:#ff0000;fill-opacity:1;fill-rule:nonzero;stroke:none"
             id="path3516" />
        </g>
        <g
           id="g3518"
           transform="translate(250.4219,494.0864)"
           style="fill:#ff0000;stroke:none">
          <path
             d="m 0,0 c 6.006,2.502 36.289,13.514 38.541,15.516 2.252,2.002 -1.25,3.254 3.004,2.753 4.254,-0.5 23.024,-3.754 23.024,-6.757 0,-3.003 -1.251,-4.755 -3.254,-5.756 -2.002,-1.002 -47.3,-18.771 -58.061,-18.02 -10.762,0.751 -13.765,2.002 -12.764,4.505 C -8.51,-5.256 0,0 0,0 Z"
             style="fill:#ff0000;stroke:none;stroke-width:1;stroke-linecap:butt;stroke-linejoin:miter;stroke-miterlimit:10;stroke-dasharray:none;stroke-opacity:1"
             id="path3520" />
        </g>
        <g
           id="g3522"
           transform="translate(233.6543,459.5483)"
           style="fill:#ff0000;stroke:none">
          <path
             d="m 0,0 c 0.75,0.251 88.846,35.538 93.6,40.544 4.754,5.005 7.257,6.507 7.257,6.507 4.005,0.501 4.255,3.754 8.76,-1.252 4.505,-5.005 16.518,-16.564 6.006,-23.548 -10.511,-6.984 -10.512,-7.985 -12.514,-10.988 -2.001,-3.004 -7.506,-21.774 -1.25,-49.303 6.256,-27.53 8.258,-32.284 10.511,-35.038 2.253,-2.754 27.294,-11.384 36.038,-10.511 0,0 5.479,51.666 5.256,55.56 0,0 0.751,6.757 2.503,3.253 1.751,-3.504 5.505,-28.28 7.508,-32.284 2.002,-4.004 5.572,-19.981 8.509,-25.527 2.252,-4.256 2.883,-5.946 4.004,-8.51 1.751,-4.004 -9.915,-11.223 -9.154,-10.92 5.175,2.07 -45.849,-10.379 -63.424,8.668 -12.849,13.926 -24.089,19.057 -26.528,97.103 -0.235,7.542 -0.75,7.509 -0.75,7.509 0,0 -50.054,-21.524 -60.815,-23.025 -10.763,-1.502 -21.274,-1.502 -24.777,3.253 -3.504,4.755 -3.504,5.256 0,6.758 C -5.757,-0.25 0,0 0,0"
             style="fill:#ff0000;fill-opacity:1;fill-rule:nonzero;stroke:none"
             id="path3524" />
        </g>
        <g
           id="g3526"
           transform="translate(233.6543,459.5483)"
           style="fill:#ff0000;stroke:none">
          <path
             d="m 0,0 c 0.75,0.251 88.846,35.538 93.6,40.544 4.754,5.005 7.257,6.507 7.257,6.507 4.005,0.501 4.255,3.754 8.76,-1.252 4.505,-5.005 16.518,-16.564 6.006,-23.548 -10.511,-6.984 -10.512,-7.985 -12.514,-10.988 -2.001,-3.004 -7.506,-21.774 -1.25,-49.303 6.256,-27.53 8.258,-32.284 10.511,-35.038 2.253,-2.754 27.294,-11.384 36.038,-10.511 0,0 5.479,51.666 5.256,55.56 0,0 0.751,6.757 2.503,3.253 1.751,-3.504 5.505,-28.28 7.508,-32.284 2.002,-4.004 5.572,-19.981 8.509,-25.527 2.252,-4.256 2.883,-5.946 4.004,-8.51 1.751,-4.004 -9.915,-11.223 -9.154,-10.92 5.175,2.07 -45.849,-10.379 -63.424,8.668 -12.849,13.926 -24.089,19.057 -26.528,97.103 -0.235,7.542 -0.75,7.509 -0.75,7.509 0,0 -50.054,-21.524 -60.815,-23.025 -10.763,-1.502 -21.274,-1.502 -24.777,3.253 -3.504,4.755 -3.504,5.256 0,6.758 C -5.757,-0.25 0,0 0,0 Z"
             style="fill:#ff0000;stroke:none;stroke-width:1;stroke-linecap:butt;stroke-linejoin:miter;stroke-miterlimit:10;stroke-dasharray:none;stroke-opacity:1"
             id="path3528" />
        </g>
        <g
           id="g3530"
           transform="translate(255.4268,403.4883)"
           style="fill:#ff0000;stroke:none">
          <path
             d="m 0,0 c 0,0 1.002,24.277 -1.751,31.034 -2.754,6.758 -1.93,5.932 1.86,5.431 3.791,-0.5 10.304,-3.144 11.602,-6.432 1.679,-4.255 2.305,-25.547 2.305,-25.547 0,0 5.325,0.52 8.419,1.772 3.092,1.25 24.116,-1.002 25.116,-6.258 1.001,-5.256 1.251,-6.506 -1.251,-7.258 -2.503,-0.75 -26.529,-3.004 -27.279,-3.254 -0.751,-0.25 -3.254,-1.25 -3.254,-1.25 0,0 3.254,-49.552 -0.5,-51.054 -3.754,-1.502 -6.007,-1.502 -7.759,0 -1.751,1.502 -3.253,5.503 -6.256,8.007 -3.003,2.504 -15.127,11.012 -15.948,12.514 -0.821,1.502 -1.432,1.752 0,3.254 1.432,1.502 15.947,1.25 16.198,3.002 0.25,1.754 -1.251,22.301 -1.251,22.301 0,0 -30.783,-8.283 -33.912,-4.03 -2.785,3.788 -5.987,2.543 -3.512,5.756 C -32.315,-5.709 0,0 0,0"
             style="fill:#ff0000;fill-opacity:1;fill-rule:nonzero;stroke:none"
             id="path3532" />
        </g>
        <g
           id="g3534"
           transform="translate(255.4268,403.4883)"
           style="fill:#ff0000;stroke:none">
          <path
             d="m 0,0 c 0,0 1.002,24.277 -1.751,31.034 -2.754,6.758 -1.93,5.932 1.86,5.431 3.791,-0.5 10.304,-3.144 11.602,-6.432 1.679,-4.255 2.305,-25.547 2.305,-25.547 0,0 5.325,0.52 8.419,1.772 3.092,1.25 24.116,-1.002 25.116,-6.258 1.001,-5.256 1.251,-6.506 -1.251,-7.258 -2.503,-0.75 -26.529,-3.004 -27.279,-3.254 -0.751,-0.25 -3.254,-1.25 -3.254,-1.25 0,0 3.254,-49.552 -0.5,-51.054 -3.754,-1.502 -6.007,-1.502 -7.759,0 -1.751,1.502 -3.253,5.503 -6.256,8.007 -3.003,2.504 -15.127,11.012 -15.948,12.514 -0.821,1.502 -1.432,1.752 0,3.254 1.432,1.502 15.947,1.25 16.198,3.002 0.25,1.754 -1.251,22.301 -1.251,22.301 0,0 -30.783,-8.283 -33.912,-4.03 -2.785,3.788 -5.987,2.543 -3.512,5.756 C -32.315,-5.709 0,0 0,0 Z"
             style="fill:#ff0000;stroke:none;stroke-width:1;stroke-linecap:butt;stroke-linejoin:miter;stroke-miterlimit:10;stroke-dasharray:none;stroke-opacity:1"
             id="path3536" />
        </g>
        <g
           id="g3538"
           transform="translate(272.4453,431.5952)"
           style="fill:#ff0000;stroke:none">
          <path
             d="m 0,0 c 0,0 2.143,21.885 15.267,8.191 11.887,-12.406 2.002,-19.948 0,-20.948 C 13.264,-13.759 4.176,-18.066 0,-14.259 c -4.176,3.805 -3.003,6.763 -1.502,10.511 z"
             style="fill:#ff0000;fill-opacity:1;fill-rule:nonzero;stroke:none"
             id="path3540" />
        </g>
        <g
           id="g3542"
           transform="translate(272.4453,431.5952)"
           style="fill:#ff0000;stroke:none">
          <path
             d="m 0,0 c 0,0 2.143,21.885 15.267,8.191 11.887,-12.406 2.002,-19.948 0,-20.948 C 13.264,-13.759 4.176,-18.066 0,-14.259 c -4.176,3.805 -3.003,6.763 -1.502,10.511 z"
             style="fill:#ff0000;stroke:none;stroke-width:1;stroke-linecap:butt;stroke-linejoin:miter;stroke-miterlimit:10;stroke-dasharray:none;stroke-opacity:1"
             id="path3544" />
        </g>
        <g
           id="g3546"
           transform="translate(293.082,377.7109)"
           style="fill:#ff0000;stroke:none">
          <path
             d="M 0,0 C 1.387,0.752 1.887,9.51 6.893,9.51 11.898,9.51 17.654,0.502 18.404,0 19.155,-0.5 26.778,-14.516 9.202,-11.762 -8.374,-9.01 -3.618,-6.506 -2.117,-4.754 -0.615,-3.004 0,0 0,0"
             style="fill:#ff0000;fill-opacity:1;fill-rule:nonzero;stroke:none"
             id="path3548" />
        </g>
        <g
           id="g3550"
           transform="translate(293.082,377.7109)"
           style="fill:#ff0000;stroke:none">
          <path
             d="M 0,0 C 1.387,0.752 1.887,9.51 6.893,9.51 11.898,9.51 17.654,0.502 18.404,0 19.155,-0.5 26.778,-14.516 9.202,-11.762 -8.374,-9.01 -3.618,-6.506 -2.117,-4.754 -0.615,-3.004 0,0 0,0 Z"
             style="fill:#ff0000;stroke:none;stroke-width:1;stroke-linecap:butt;stroke-linejoin:miter;stroke-miterlimit:10;stroke-dasharray:none;stroke-opacity:1"
             id="path3552" />
        </g>
        <g
           id="g3554"
           transform="translate(230.022,410.3086)"
           style="fill:#ff0000;stroke:none">
          <path
             d="m 0,0 c -1.082,0.424 -14.296,5.094 -8.884,13.014 6.419,9.395 12.919,-0.52 15.14,-1.252 1.682,-0.553 12.013,-2.502 16.268,-1.752 4.255,0.751 0,-4.045 0,-4.045 0,0 -6.411,-10.203 -7.849,-11.276 -1.47,-1.093 -6.166,1.266 -10.421,3.29 z"
             style="fill:#ff0000;fill-opacity:1;fill-rule:nonzero;stroke:none"
             id="path3556" />
        </g>
        <g
           id="g3558"
           transform="translate(230.022,410.3086)"
           style="fill:#ff0000;stroke:none">
          <path
             d="m 0,0 c -1.082,0.424 -14.296,5.094 -8.884,13.014 6.419,9.395 12.919,-0.52 15.14,-1.252 1.682,-0.553 12.013,-2.502 16.268,-1.752 4.255,0.751 0,-4.045 0,-4.045 0,0 -6.411,-10.203 -7.849,-11.276 -1.47,-1.093 -6.166,1.266 -10.421,3.29 z"
             style="fill:#ff0000;stroke:none;stroke-width:1;stroke-linecap:butt;stroke-linejoin:miter;stroke-miterlimit:10;stroke-dasharray:none;stroke-opacity:1"
             id="path3560" />
        </g>
        <g
           id="g3562"
           transform="translate(212.1309,355.4277)"
           style="fill:#ff0000;stroke:none">
          <path
             d="M 0,0 C -13.515,16.646 -2.551,15.238 8.506,15.525 20.549,15.84 20.271,20.979 20.021,6.266 19.738,-10.367 8.199,-6.428 4.755,-4.746 Z"
             style="fill:#ff0000;fill-opacity:1;fill-rule:nonzero;stroke:none"
             id="path3564" />
        </g>
        <g
           id="g3566"
           transform="translate(212.1309,355.4277)"
           style="fill:#ff0000;stroke:none">
          <path
             d="M 0,0 C -13.515,16.646 -2.551,15.238 8.506,15.525 20.549,15.84 20.271,20.979 20.021,6.266 19.738,-10.367 8.199,-6.428 4.755,-4.746 Z"
             style="fill:#ff0000;stroke:none;stroke-width:1;stroke-linecap:butt;stroke-linejoin:miter;stroke-miterlimit:10;stroke-dasharray:none;stroke-opacity:1"
             id="path3568" />
        </g>
        <g
           id="g3570"
           transform="translate(329.7568,286.8652)"
           style="fill:#ff0000;stroke:none">
          <path
             d="M 0,0 C -0.751,-0.252 -14.266,-7.508 -1.252,6.256 11.763,20.02 17.77,26.777 17.77,29.029 c 0,2.254 -4.255,9.762 4.003,13.016 8.259,3.252 10.511,-0.5 14.515,-4.506 4.005,-4.004 6.258,-8.258 7.009,-9.76 C 44.047,26.277 48.552,18.02 28.53,9.26 8.509,0.5 0,0 0,0"
             style="fill:#ff0000;fill-opacity:1;fill-rule:nonzero;stroke:none"
             id="path3572" />
        </g>
        <g
           id="g3574"
           transform="translate(329.7568,286.8652)"
           style="fill:#ff0000;stroke:none">
          <path
             d="M 0,0 C -0.751,-0.252 -14.266,-7.508 -1.252,6.256 11.763,20.02 17.77,26.777 17.77,29.029 c 0,2.254 -4.255,9.762 4.003,13.016 8.259,3.252 10.511,-0.5 14.515,-4.506 4.005,-4.004 6.258,-8.258 7.009,-9.76 C 44.047,26.277 48.552,18.02 28.53,9.26 8.509,0.5 0,0 0,0 Z"
             style="fill:#ff0000;stroke:none;stroke-width:1;stroke-linecap:butt;stroke-linejoin:miter;stroke-miterlimit:10;stroke-dasharray:none;stroke-opacity:1"
             id="path3576" />
        </g>
        <g
           id="g3578"
           transform="translate(313.7715,286.8652)"
           style="fill:#ff0000;stroke:none">
          <path
             d="m 0,0 c 0,0 9.479,10.262 5.474,11.262 -4.004,1 -14.336,1.252 -15.552,1.502 -1.216,0.25 -12.729,7.81 -12.729,7.81 0,0 -6.27,0.699 -9.642,-4.808 C -35.82,10.26 -27.511,2.252 -24.533,0 -21.555,-2.252 -7.29,-7.26 -4.787,-6.258 -2.284,-5.256 0,0 0,0"
             style="fill:#ff0000;fill-opacity:1;fill-rule:nonzero;stroke:none"
             id="path3580" />
        </g>
        <g
           id="g3582"
           transform="translate(313.7715,286.8652)"
           style="fill:#ff0000;stroke:none">
          <path
             d="m 0,0 c 0,0 9.479,10.262 5.474,11.262 -4.004,1 -14.336,1.252 -15.552,1.502 -1.216,0.25 -12.729,7.81 -12.729,7.81 0,0 -6.27,0.699 -9.642,-4.808 C -35.82,10.26 -27.511,2.252 -24.533,0 -21.555,-2.252 -7.29,-7.26 -4.787,-6.258 -2.284,-5.256 0,0 0,0 Z"
             style="fill:#ff0000;stroke:none;stroke-width:1;stroke-linecap:butt;stroke-linejoin:miter;stroke-miterlimit:10;stroke-dasharray:none;stroke-opacity:1"
             id="path3584" />
        </g>
        <g
           id="g3586"
           transform="translate(232.2251,256.832)"
           style="fill:#ff0000;stroke:none">
          <path
             d="m 0,0 c 0,0 -10.731,-1.578 -11.588,1.002 -0.998,3.002 4.007,9.01 4.007,9.01 0,0 -14.766,17.267 -11.012,23.523 3.754,6.258 7.008,3.504 10.511,1.252 3.504,-2.252 5.506,-4.767 9.261,-6.889 3.754,-2.121 10.26,-7.193 11.762,-9.537 C 14.443,16.018 26.206,0.695 7.936,-0.654 -10.334,-2.002 0,0 0,0"
             style="fill:#ff0000;fill-opacity:1;fill-rule:nonzero;stroke:none"
             id="path3588" />
        </g>
        <g
           id="g3590"
           transform="translate(232.2251,256.832)"
           style="fill:#ff0000;stroke:none">
          <path
             d="m 0,0 c 0,0 -10.731,-1.578 -11.588,1.002 -0.998,3.002 4.007,9.01 4.007,9.01 0,0 -14.766,17.267 -11.012,23.523 3.754,6.258 7.008,3.504 10.511,1.252 3.504,-2.252 5.506,-4.767 9.261,-6.889 3.754,-2.121 10.26,-7.193 11.762,-9.537 C 14.443,16.018 26.206,0.695 7.936,-0.654 -10.334,-2.002 0,0 0,0 Z"
             style="fill:#ff0000;stroke:none;stroke-width:1;stroke-linecap:butt;stroke-linejoin:miter;stroke-miterlimit:10;stroke-dasharray:none;stroke-opacity:1"
             id="path3592" />
        </g>
        <g
           id="g3594"
           transform="translate(285.709,254.3301)"
           style="fill:#ff0000;stroke:none">
          <path
             d="m 0,0 c 0.751,0 -36.539,2.002 8.51,14.766 45.048,12.763 66.571,17.767 67.322,18.269 0.75,0.5 5.255,2.252 9.76,1.252 C 90.097,33.285 126.386,19.771 95.603,14.766 64.819,9.76 47.045,8.008 47.045,8.008 c 0,0 5.262,-11.262 -7.502,-17.518 -12.764,-6.258 -28.96,-17.068 -16.518,1.25 9.01,13.266 5.037,11.012 5.037,11.012 z"
             style="fill:#ff0000;fill-opacity:1;fill-rule:nonzero;stroke:none"
             id="path3596" />
        </g>
        <g
           id="g3598"
           transform="translate(285.709,254.3301)"
           style="fill:#ff0000;stroke:none">
          <path
             d="m 0,0 c 0.751,0 -36.539,2.002 8.51,14.766 45.048,12.763 66.571,17.767 67.322,18.269 0.75,0.5 5.255,2.252 9.76,1.252 C 90.097,33.285 126.386,19.771 95.603,14.766 64.819,9.76 47.045,8.008 47.045,8.008 c 0,0 5.262,-11.262 -7.502,-17.518 -12.764,-6.258 -28.96,-17.068 -16.518,1.25 9.01,13.266 5.037,11.012 5.037,11.012 z"
             style="fill:#ff0000;stroke:none;stroke-width:1;stroke-linecap:butt;stroke-linejoin:miter;stroke-miterlimit:10;stroke-dasharray:none;stroke-opacity:1"
             id="path3600" />
        </g>
        <g
           id="g3602"
           transform="translate(346.9717,230.6836)"
           style="fill:#ff0000;stroke:none">
          <path
             d="m 0,0 4.433,-73.395 c 0,0 -18.582,-0.564 -24.401,-2.066 -5.819,-1.5 -14.453,-0.937 -16.142,-1.5 -1.69,-0.564 -0.595,20.676 -0.595,20.676 l 28.155,1.5 c 0,0 20.355,8.043 -5.668,14.426 -3.419,0.838 -10.818,0 -14.572,-1.315 -4.941,-1.73 -8.537,-0.75 -8.537,-0.75 v 10.887 c 0,0 24.492,0.562 27.495,1.687 3.003,1.127 8.446,3.004 8.071,5.821 -0.376,2.814 -5.256,10.322 -15.955,9.009 -10.699,-1.314 -19.611,-5.068 -19.611,-5.068 v 15.203 c 0,0 -6.667,6.758 -9.858,8.26 -3.191,1.5 -10.699,3.566 -7.883,-5.443 2.815,-9.01 2.815,-5.069 2.815,-5.069 0,0 -1.689,-66.822 -0.75,-67.759 0.939,-0.94 10.698,-19.147 13.326,-18.772 2.628,0.377 31.158,6.008 36.227,6.008 5.067,0 6.194,-1.127 6.194,-1.127 0,0 6.569,-11.262 10.886,-11.262 4.317,0 9.573,5.819 9.573,5.819 0,0 2.065,44.109 0,57.06 -2.064,12.953 -1.877,14.641 -1.877,14.641 0,0 6.691,10.197 6.757,15.017 0.088,6.381 -3.566,24.776 -21.585,24.026 -6.885,-0.287 -6.288,-3.629 -8.071,-3.192 0,0 -17.692,-2.074 -22.9,-3.754 C -30.292,7.691 -42.672,-3.33 -19.968,-1.506 1.055,0.184 0,0 0,0"
             style="fill:#ff0000;fill-opacity:1;fill-rule:nonzero;stroke:none"
             id="path3604" />
        </g>
        <g
           id="g3606"
           transform="translate(346.9717,230.6836)"
           style="fill:#ff0000;stroke:none">
          <path
             d="m 0,0 4.433,-73.395 c 0,0 -18.582,-0.564 -24.401,-2.066 -5.819,-1.5 -14.453,-0.937 -16.142,-1.5 -1.69,-0.564 -0.595,20.676 -0.595,20.676 l 28.155,1.5 c 0,0 20.355,8.043 -5.668,14.426 -3.419,0.838 -10.818,0 -14.572,-1.315 -4.941,-1.73 -8.537,-0.75 -8.537,-0.75 v 10.887 c 0,0 24.492,0.562 27.495,1.687 3.003,1.127 8.446,3.004 8.071,5.821 -0.376,2.814 -5.256,10.322 -15.955,9.009 -10.699,-1.314 -19.611,-5.068 -19.611,-5.068 v 15.203 c 0,0 -6.667,6.758 -9.858,8.26 -3.191,1.5 -10.699,3.566 -7.883,-5.443 2.815,-9.01 2.815,-5.069 2.815,-5.069 0,0 -1.689,-66.822 -0.75,-67.759 0.939,-0.94 10.698,-19.147 13.326,-18.772 2.628,0.377 31.158,6.008 36.227,6.008 5.067,0 6.194,-1.127 6.194,-1.127 0,0 6.569,-11.262 10.886,-11.262 4.317,0 9.573,5.819 9.573,5.819 0,0 2.065,44.109 0,57.06 -2.064,12.953 -1.877,14.641 -1.877,14.641 0,0 6.691,10.197 6.757,15.017 0.088,6.381 -3.566,24.776 -21.585,24.026 -6.885,-0.287 -6.288,-3.629 -8.071,-3.192 0,0 -17.692,-2.074 -22.9,-3.754 C -30.292,7.691 -42.672,-3.33 -19.968,-1.506 1.055,0.184 0,0 0,0 Z"
             style="fill:#ff0000;stroke:none;stroke-width:1;stroke-linecap:butt;stroke-linejoin:miter;stroke-miterlimit:10;stroke-dasharray:none;stroke-opacity:1"
             id="path3608" />
        </g>
        <g
           id="g3610"
           transform="translate(211.0044,221.6699)"
           style="fill:#ff0000;stroke:none">
          <path
             d="m 0,0 26.841,19.896 c 0,0 15.955,-7.132 16.705,-9.009 C 44.297,9.01 44.11,2.064 43.546,0 42.984,-2.064 29.844,-31.91 29.844,-31.91 c 0,0 10.324,-10.887 11.263,-15.766 0.938,-4.881 0.562,-43.359 0.562,-43.359 0,0 49.178,-9.01 59.314,-11.449 10.136,-2.442 34.162,-6.571 36.977,-6.946 2.816,-0.375 46.55,-2.252 55.372,-3.566 8.822,-1.315 13.89,-0.563 17.081,0 3.19,0.562 21.961,4.881 24.213,2.439 l 2.252,-2.439 c 0,0 -2.064,-3.942 -4.504,-5.068 -2.441,-1.125 -33.036,-11.45 -40.919,-12.389 -7.883,-0.938 -7.883,-0.75 -9.76,-2.065 -1.877,-1.312 -3.379,-3.566 -4.505,-3.753 -1.127,-0.188 -27.217,1.126 -33.224,3.566 -6.006,2.441 -78.083,25.34 -81.837,25.715 -3.754,0.375 -39.98,2.064 -43.922,1.127 -3.941,-0.94 -16.33,-4.506 -20.459,-5.069 -4.13,-0.562 -10.324,-0.562 -13.139,6.006 -2.816,6.571 -0.751,9.949 9.009,12.014 9.761,2.064 29.845,4.129 30.408,10.887 0.563,6.757 0,10.511 0,10.511 0,0 0.938,18.957 -0.376,21.209 -1.314,2.254 -7.883,1.502 -11.074,5.819 -3.191,4.318 -5.443,8.634 -4.317,15.392 l 1.126,6.758 c 0,0 -2.44,-1.689 -9.572,-1.502 -7.133,0.188 -16.518,5.443 -19.709,6.193 -3.191,0.752 -4.317,6.946 4.129,9.762 8.447,2.815 7.884,3.377 9.949,4.504 C -3.754,-2.252 0,0 0,0"
             style="fill:#ff0000;fill-opacity:1;fill-rule:nonzero;stroke:none"
             id="path3612" />
        </g>
        <g
           id="g3614"
           transform="translate(211.0044,221.6699)"
           style="fill:#ff0000;stroke:none">
          <path
             d="m 0,0 26.841,19.896 c 0,0 15.955,-7.132 16.705,-9.009 C 44.297,9.01 44.11,2.064 43.546,0 42.984,-2.064 29.844,-31.91 29.844,-31.91 c 0,0 10.324,-10.887 11.263,-15.766 0.938,-4.881 0.562,-43.359 0.562,-43.359 0,0 49.178,-9.01 59.314,-11.449 10.136,-2.442 34.162,-6.571 36.977,-6.946 2.816,-0.375 46.55,-2.252 55.372,-3.566 8.822,-1.315 13.89,-0.563 17.081,0 3.19,0.562 21.961,4.881 24.213,2.439 l 2.252,-2.439 c 0,0 -2.064,-3.942 -4.504,-5.068 -2.441,-1.125 -33.036,-11.45 -40.919,-12.389 -7.883,-0.938 -7.883,-0.75 -9.76,-2.065 -1.877,-1.312 -3.379,-3.566 -4.505,-3.753 -1.127,-0.188 -27.217,1.126 -33.224,3.566 -6.006,2.441 -78.083,25.34 -81.837,25.715 -3.754,0.375 -39.98,2.064 -43.922,1.127 -3.941,-0.94 -16.33,-4.506 -20.459,-5.069 -4.13,-0.562 -10.324,-0.562 -13.139,6.006 -2.816,6.571 -0.751,9.949 9.009,12.014 9.761,2.064 29.845,4.129 30.408,10.887 0.563,6.757 0,10.511 0,10.511 0,0 0.938,18.957 -0.376,21.209 -1.314,2.254 -7.883,1.502 -11.074,5.819 -3.191,4.318 -5.443,8.634 -4.317,15.392 l 1.126,6.758 c 0,0 -2.44,-1.689 -9.572,-1.502 -7.133,0.188 -16.518,5.443 -19.709,6.193 -3.191,0.752 -4.317,6.946 4.129,9.762 8.447,2.815 7.884,3.377 9.949,4.504 C -3.754,-2.252 0,0 0,0 Z"
             style="fill:#ff0000;stroke:none;stroke-width:1;stroke-linecap:butt;stroke-linejoin:miter;stroke-miterlimit:10;stroke-dasharray:none;stroke-opacity:1"
             id="path3616" />
        </g>
      </g>
    </g>
  </g>
</svg>
