<?xml version="1.0" encoding="UTF-8" standalone="no"?>
<!-- Created with Inkscape (http://www.inkscape.org/) -->

<svg
   version="1.1"
   id="svg69"
   width="605.07355"
   height="558.41187"
   viewBox="0 0 605.07355 558.41187"
   sodipodi:docname="logo1.svg"
   inkscape:version="1.1 (c68e22c387, 2021-05-23)"
   xmlns:inkscape="http://www.inkscape.org/namespaces/inkscape"
   xmlns:sodipodi="http://sodipodi.sourceforge.net/DTD/sodipodi-0.dtd"
   xmlns="http://www.w3.org/2000/svg"
   xmlns:svg="http://www.w3.org/2000/svg">
  <defs
     id="defs73">
    <clipPath
       clipPathUnits="userSpaceOnUse"
       id="clipPath3367">
      <rect
         style="fill:#000000;fill-opacity:0;stroke:#000203;stroke-width:9.12132;stroke-miterlimit:4;stroke-dasharray:none;stroke-opacity:1"
         id="rect3369"
         width="628.42419"
         height="455.00882"
         x="318.10532"
         y="733.25427" />
    </clipPath>
    <clipPath
       clipPathUnits="userSpaceOnUse"
       id="clipPath1092">
      <rect
         style="fill:#040000;fill-opacity:0.000519038;stroke:#000000;stroke-width:1.27028"
         id="rect1094"
         width="623.34357"
         height="435.79663"
         x="328.37155"
         y="660.35077" />
    </clipPath>
  </defs>
  <sodipodi:namedview
     id="namedview71"
     pagecolor="#ffffff"
     bordercolor="#666666"
     borderopacity="1.0"
     inkscape:pageshadow="2"
     inkscape:pageopacity="0.0"
     inkscape:pagecheckerboard="0"
     showgrid="false"
     width="1500px"
     inkscape:zoom="1.1178215"
     inkscape:cx="-28.179812"
     inkscape:cy="299.69007"
     inkscape:window-width="1920"
     inkscape:window-height="1011"
     inkscape:window-x="2560"
     inkscape:window-y="216"
     inkscape:window-maximized="1"
     inkscape:current-layer="g1855"
     fit-margin-top="0"
     fit-margin-left="0"
     fit-margin-right="0"
     fit-margin-bottom="0"
     inkscape:snap-global="false" />
  <g
     inkscape:groupmode="layer"
     inkscape:label="Image"
     id="g75"
     transform="translate(-387.20196,-775.36422)">
    <path
       id="path2013"
       style="fill:#111827;fill-opacity:1;stroke-width:1.08763"
       d="m 625.3963,1065.1987 c -0.70865,-0.055 -1.34516,-0.042 -1.90039,0.047 -5.02954,0.8009 -11.25996,3.8044 -18.91406,9.168 -7.6541,5.3636 -16.73326,13.0868 -27.45898,23.3262 -31.8331,30.3899 -70.9277,76.88 -104.56836,122.3008 -33.64066,45.4208 -61.82632,89.7717 -71.8418,115.8847 l -1.33398,3.4805 -1.33594,3.4785 57.47461,-0.1367 57.47265,-0.1387 57.47461,-0.1367 97.77149,0.4023 h 80.6582 80.65625 80.6582 80.65821 l -1.125,-2.8281 -1.125,-2.8281 c -0.619,-1.5556 -1.98535,-4.471 -3.68555,-7.9141 -1.7003,-3.4431 -3.73461,-7.4155 -5.69531,-11.084 -17.6664,-33.0542 -45.37984,-73.6655 -72.36914,-108.0957 -26.9894,-34.4302 -53.25463,-62.6776 -68.02735,-71.0058 -3.57688,-2.0165 -6.48341,-3.0089 -9.44336,-2.9649 -2.95994,0.044 -5.97473,1.1249 -9.77148,3.252 -3.80255,2.1304 -12.10268,9.4414 -21.31641,18.4336 -9.21372,8.9922 -19.34072,19.6658 -26.79492,28.5215 l -49.92383,-36.6543 c -18.18239,-13.3498 -29.03438,-32.7193 -41.95898,-45.5938 -12.9246,-12.8745 -24.40415,-23.0434 -33.28906,-29.3633 -4.32603,-3.0771 -8.92721,-5.631 -13.00196,-7.3261 -3.05606,-1.2714 -5.81741,-2.0589 -7.94336,-2.2246 z" />
    <path
       style="fill:none;fill-opacity:1;stroke:#111827;stroke-width:2.3;stroke-miterlimit:4;stroke-dasharray:none;stroke-opacity:1"
       d="m -540.16353,1154.4055 v -89.6535 h -6.80596 -6.80599 l -8.6211,-25.0508 c -4.74158,-13.7778 -8.62109,-26.3582 -8.62109,-27.9565 0,-2.3308 3.05332,-2.9055 15.42708,-2.9055 h 15.42706 v -43.38094 -43.3808 h -14.9151 -14.91511 l -17.73814,-26.51049 c -9.75595,-14.58084 -17.43886,-26.8273 -17.07312,-27.21462 0.36567,-0.38893 19.91924,0.48009 43.45221,1.92804 57.89392,3.56156 253.94425,3.56156 311.83819,0 23.53297,-1.44795 43.25838,-2.19097 43.83408,-1.65132 0.5758,0.53963 -6.70244,12.56935 -16.17383,26.73291 l -17.22066,25.75168 -15.30021,0.9638 -15.30018,0.9642 -0.55358,42.8988 -0.55361,42.89874 h 16.4949 c 9.0722,0 16.47436,0.6507 16.44929,1.4459 -0.0259,0.7953 -4.04001,13.1588 -8.92198,27.4743 l -8.87633,26.0283 -7.53358,0.5988 -7.53359,0.5984 v 89.5372 89.5372 h -20.56942 -20.56946 v -89.6538 -89.6535 h -93.59091 -93.59096 v 89.6535 89.6538 h -20.56946 -20.56944 z m 115.18886,-188.94724 v -43.3808 h -37.02497 -37.02499 v 43.3808 43.38094 h 37.02499 37.02497 z m 113.13191,0 v -43.3808 h -35.99651 -35.9965 v 43.3808 43.38094 h 35.9965 35.99651 z"
       id="path658" />
    <g
       id="g7888"
       style="fill:none;fill-opacity:1;stroke:#111827;stroke-opacity:1">
      <path
         id="path3171"
         style="fill:none;fill-opacity:1;stroke:#111827;stroke-width:15;stroke-miterlimit:4;stroke-dasharray:none;stroke-opacity:1"
         d="m 523.07377,1314.2013 c -18.82029,-12.6515 -35.87398,-27.3055 -50.95445,-43.5742 -49.2175,-53.0956 -77.41737,-123.3901 -77.41736,-197.4013 1e-5,-160.36229 129.99939,-290.36159 290.36168,-290.36158 160.36234,-8e-5 290.36176,129.99924 290.3618,290.36158 v 0 c 0,87.0137 -39.02314,169.4409 -106.3272,224.5912"
         sodipodi:nodetypes="csscssc" />
    </g>
    <circle
       style="fill:#158f86;fill-opacity:0;stroke:#111827;stroke-width:10;stroke-miterlimit:4;stroke-dasharray:none;stroke-opacity:1"
       id="path9676"
       cx="-418.0155"
       cy="863.45715"
       r="304.04675" />
  </g>
</svg>
