<?xml version="1.0" encoding="UTF-8" standalone="no"?>
<!-- Created with Inkscape (http://www.inkscape.org/) -->

<svg
   version="1.1"
   id="svg69"
   width="590.22345"
   height="540.02917"
   viewBox="0 0 590.22345 540.02918"
   sodipodi:docname="logo1.svg"
   inkscape:version="1.1 (c68e22c387, 2021-05-23)"
   xmlns:inkscape="http://www.inkscape.org/namespaces/inkscape"
   xmlns:sodipodi="http://sodipodi.sourceforge.net/DTD/sodipodi-0.dtd"
   xmlns="http://www.w3.org/2000/svg"
   xmlns:svg="http://www.w3.org/2000/svg">
  <defs
     id="defs73">
    <clipPath
       clipPathUnits="userSpaceOnUse"
       id="clipPath3367">
      <rect
         style="fill:#000000;fill-opacity:0;stroke:#000203;stroke-width:9.12132;stroke-miterlimit:4;stroke-dasharray:none;stroke-opacity:1"
         id="rect3369"
         width="628.42419"
         height="455.00882"
         x="318.10532"
         y="733.25427" />
    </clipPath>
    <clipPath
       clipPathUnits="userSpaceOnUse"
       id="clipPath1092">
      <rect
         style="fill:#040000;fill-opacity:0.000519038;stroke:#000000;stroke-width:1.27028"
         id="rect1094"
         width="623.34357"
         height="435.79663"
         x="328.37155"
         y="660.35077" />
    </clipPath>
  </defs>
  <sodipodi:namedview
     id="namedview71"
     pagecolor="#ffffff"
     bordercolor="#666666"
     borderopacity="1.0"
     inkscape:pageshadow="2"
     inkscape:pageopacity="0.0"
     inkscape:pagecheckerboard="0"
     showgrid="false"
     width="1500px"
     inkscape:zoom="0.79041916"
     inkscape:cx="148.02273"
     inkscape:cy="402.31818"
     inkscape:window-width="1717"
     inkscape:window-height="1279"
     inkscape:window-x="2656"
     inkscape:window-y="230"
     inkscape:window-maximized="0"
     inkscape:current-layer="g75"
     fit-margin-top="0"
     fit-margin-left="0"
     fit-margin-right="0"
     fit-margin-bottom="0" />
  <g
     inkscape:groupmode="layer"
     inkscape:label="Image"
     id="g75"
     transform="translate(-389.95196,-778.11422)">
    <g
       id="g2564"
       transform="translate(-194.83807,795.73513)"
       style="fill:#111827;fill-opacity:1">
      <g
         id="g1855"
         transform="translate(102.67509,-277.24625)"
         style="fill:#111827;fill-opacity:1">
        <path
           style="fill:#111827;stroke-width:1.08763;fill-opacity:1"
           d="m 494.28353,799.39724 c 10.01548,-26.11306 38.20176,-70.46463 71.84242,-115.88543 33.64066,-45.4208 72.73572,-91.91082 104.56882,-122.30076 10.72572,-10.23946 19.80386,-17.96266 27.45796,-23.32624 7.6541,-5.36358 13.88415,-8.36755 18.91369,-9.16852 2.22089,-0.35369 5.76936,0.48367 9.84411,2.17873 4.07475,1.69507 8.67579,4.24785 13.00182,7.325 8.88491,6.31994 20.36441,16.48969 33.28901,29.36422 12.9246,12.87452 27.29429,28.45381 41.95957,45.59282 l 7.93704,9.27585 7.93704,9.27585 -4.64584,5.80852 -4.64584,5.80853 c -12.04557,15.06014 -25.33278,32.8496 -37.54473,50.09625 -12.21194,17.24664 -23.34862,33.95048 -31.09314,46.83938 -4.96718,8.26668 -10.48607,18.45256 -15.43586,28.32265 -4.94979,9.87009 -9.3305,19.42439 -12.02127,26.42795 l -2.0698,5.3873 -2.06981,5.3873 -57.47348,0.13715 -57.47348,0.13715 -57.47348,0.1372 -57.47348,0.1372 1.33436,-3.47905 z m 269.89516,1.2915 c 6.96372,-16.60882 22.09564,-42.33047 40.53403,-69.89615 18.43839,-27.56569 40.18317,-56.97543 60.37237,-80.96053 7.4542,-8.85572 17.58084,-19.52924 26.79456,-28.52143 9.21373,-8.99219 17.51453,-16.30305 21.31708,-18.43343 3.79675,-2.12713 6.81167,-3.20746 9.77161,-3.25187 2.95995,-0.0444 5.86492,0.94707 9.4418,2.96356 14.77272,8.32823 41.03866,36.57695 68.02806,71.00716 26.9893,34.43022 54.7022,75.04194 72.3686,108.09619 1.9607,3.66844 3.9963,7.63977 5.6966,11.08288 1.7002,3.44312 3.0651,6.35802 3.6841,7.91362 l 1.1255,2.8283 1.1255,2.8283 H 1003.7806 923.12274 842.46487 761.807 l 1.18584,-2.8283 z"
           id="path2013"
           sodipodi:nodetypes="ssssssssscccssssscccccccsssssssssssscccccccs" />
        <path
           style="fill:#111827;stroke:#fcfeff;stroke-width:9.5;stroke-miterlimit:4;stroke-dasharray:none;stroke-opacity:1;fill-opacity:1"
           d="m 642.49137,720.88338 v -89.65347 h -6.80596 -6.80599 l -8.6211,-25.05081 c -4.74158,-13.77776 -8.62109,-26.35815 -8.62109,-27.95648 0,-2.33077 3.05332,-2.90549 15.42708,-2.90549 h 15.42706 v -43.38092 -43.38078 h -14.9151 -14.91511 l -17.73814,-26.5105 c -9.75595,-14.58084 -17.43886,-26.8273 -17.07312,-27.21462 0.36567,-0.38893 19.91924,0.48009 43.45221,1.92804 57.89392,3.56156 253.94425,3.56156 311.83819,0 23.53297,-1.44795 43.25838,-2.19097 43.83408,-1.65132 0.5758,0.53963 -6.70244,12.56935 -16.17383,26.73291 l -17.22066,25.75166 -15.30021,0.96383 -15.30018,0.96422 -0.55358,42.89872 -0.55361,42.89876 h 16.4949 c 9.0722,0 16.47436,0.65064 16.44929,1.44589 -0.0259,0.79526 -4.04001,13.15883 -8.92198,27.47433 l -8.87633,26.02824 -7.53358,0.59879 -7.53359,0.59839 v 89.53721 89.53724 H 891.3816 870.81214 v -89.65384 -89.65347 h -93.59091 -93.59096 v 89.65347 89.65384 H 663.06081 642.49137 Z M 757.68023,531.93621 v -43.38078 h -37.02497 -37.02499 v 43.38078 43.38092 h 37.02499 37.02497 z m 113.13191,0 v -43.38078 h -35.99651 -35.9965 v 43.38078 43.38092 h 35.9965 35.99651 z"
           id="path658" />
      </g>
    </g>
    <g
       id="g7888"
       style="fill:none;fill-opacity:1;stroke:#111827;stroke-opacity:1">
      <path
         id="path3171"
         style="fill:none;fill-opacity:1;stroke:#111827;stroke-width:15;stroke-opacity:1;stroke-miterlimit:4;stroke-dasharray:none"
         d="M 523.07377,1314.2013 A 290.36166,290.36166 0 0 1 394.70196,1073.2258 290.36166,290.36166 0 0 1 685.06364,782.86422 290.36166,290.36166 0 0 1 975.42544,1073.2258 v 0 a 290.36166,290.36166 0 0 1 -106.3272,224.5912" />
    </g>
  </g>
</svg>
