<?xml version="1.0" encoding="UTF-8" standalone="no"?>
<!-- Created with Inkscape (http://www.inkscape.org/) -->

<svg
   width="171.01126mm"
   height="171.01126mm"
   viewBox="0 0 171.01126 171.01126"
   version="1.1"
   id="svg15898"
   inkscape:version="1.1 (c68e22c387, 2021-05-23)"
   sodipodi:docname="new_logo2.svg"
   xmlns:inkscape="http://www.inkscape.org/namespaces/inkscape"
   xmlns:sodipodi="http://sodipodi.sourceforge.net/DTD/sodipodi-0.dtd"
   xmlns="http://www.w3.org/2000/svg"
   xmlns:svg="http://www.w3.org/2000/svg">
  <sodipodi:namedview
     id="namedview15900"
     pagecolor="#ffffff"
     bordercolor="#666666"
     borderopacity="1.0"
     inkscape:pageshadow="2"
     inkscape:pageopacity="0.0"
     inkscape:pagecheckerboard="true"
     inkscape:document-units="mm"
     showgrid="false"
     inkscape:zoom="1.0494603"
     inkscape:cx="467.38309"
     inkscape:cy="119.10884"
     inkscape:window-width="2560"
     inkscape:window-height="1403"
     inkscape:window-x="0"
     inkscape:window-y="0"
     inkscape:window-maximized="1"
     inkscape:current-layer="layer1"
     fit-margin-top="0"
     fit-margin-left="0"
     fit-margin-right="0"
     fit-margin-bottom="0" />
  <defs
     id="defs15895" />
  <g
     inkscape:label="Layer 1"
     inkscape:groupmode="layer"
     id="layer1"
     transform="translate(-19.494417,-15.519983)">
    <path
       id="path1658"
       style="fill:#ffcc00;fill-opacity:1;stroke:none;stroke-width:0.623622;stroke-opacity:1"
       d="M 396.84961,58.658203 A 323.17115,323.17115 0 0 0 73.679688,381.82812 323.17115,323.17115 0 0 0 118.44922,545.19922 c 4.6275,2.50475 11.37967,2.74479 19.64453,0.58008 7.12916,-1.86735 16.86395,3.53677 26.70508,14.82422 12.55404,14.39905 12.18344,14.34505 21.93555,3.1621 10.13987,-11.6277 14.92476,-12.51303 23.55664,-4.36328 6.57395,6.20674 18.08182,7.59772 25.21875,3.04883 0.0314,-0.02 0.11589,-0.0386 0.14843,-0.0586 v -73.27735 l -8.66015,-0.45312 -8.66016,-0.45313 -10.20312,-30.21289 c -5.61128,-16.61805 -10.2108,-30.72448 -10.22266,-31.34765 -0.0121,-0.62317 8.47506,-1.13477 18.86133,-1.13477 h 18.88476 v -55.14062 -55.14258 h -18.95312 -18.95313 l -19.51367,-29.76758 c -10.73247,-16.37223 -19.34914,-29.93213 -19.14844,-30.13281 0.2007,-0.20073 18.69916,0.7282 41.10938,2.0625 32.23357,1.91914 72.15015,2.45062 191.06445,2.54883 138.07816,0.11384 197.97067,-1.02995 234.60352,-4.48047 l 8.74804,-0.82227 -7.85156,12.54492 c -4.31788,6.90003 -13.14851,20.46355 -19.625,30.14063 l -11.77539,17.59375 -18.96094,1.09375 -18.95898,1.09375 v 33.57031 c 0,18.46395 -0.44395,42.85652 -0.98828,54.20508 l -0.99024,20.63281 h 19.87305 c 10.93055,0 19.88394,0.51164 19.89649,1.13477 0.0113,0.62317 -4.51887,14.55849 -10.07032,30.96875 l -10.09375,29.83789 h -4.84765 c -2.6662,0 -6.97179,0.42401 -9.56836,0.94336 l -4.72071,0.94531 v 10.56641 c 28.59037,-7.48945 39.4222,-11.68323 63.06055,-24.41407 15.35316,-8.2687 18.58931,-9.39257 27.04688,-9.39257 7.80083,0 9.52759,1.01932 21.17382,12.4746 6.97452,6.86004 16.64347,16.06825 21.48633,20.4629 3.02315,2.74343 5.0003,4.65132 7.00781,5.65625 A 323.17115,323.17115 0 0 0 720.02148,381.82812 323.17115,323.17115 0 0 0 396.84961,58.658203 Z M 280.98047,315.23047 v 55.14258 55.14062 h 46.83203 46.83398 V 370.37305 315.23047 H 327.8125 Z m 138.98633,0 v 55.14258 55.14062 h 45.32226 45.32227 v -55.14062 -55.14258 h -45.32227 z m 226.96093,159.87109 c -4.15857,0 -15.89972,5.17275 -30.86718,13.59766 -13.71462,7.7198 -29.37695,13.80034 -52.09766,20.22656 -2.22243,0.62858 -5.32341,1.85769 -8.0293,2.78906 v 85.45704 11.65039 c 15.6449,-0.21359 25.3218,-1.13492 29.3086,-2.94336 13.63215,-6.18369 27.40929,-13.56857 35.2207,-18.87696 4.43921,-3.0167 12.5529,-7.3179 18.03125,-9.55859 9.24019,-3.77929 10.00513,-3.9699 15.1875,-0.0586 a 323.17115,323.17115 0 0 0 38.05664,-64.09961 c -6.45589,-3.78495 -16.29995,-12.94506 -35.76758,-32.5586 -3.07011,-3.09313 -7.13948,-5.625 -9.04297,-5.625 z m -365.94726,13.86328 v 65.45118 c 10.35234,-0.63399 18.67833,-0.39333 19.97265,1.24609 3.91501,4.95878 12.20528,5.10881 24.93165,0.44922 14.54912,-5.32736 20.12013,-4.70484 31.1582,3.48437 7.11984,5.2822 27.3362,14.85554 37.08398,17.56055 4.02191,1.11609 5.68645,0.11642 10.27344,-6.16992 9.09468,-12.46496 11.00558,-13.30819 26.19531,-11.5625 12.45668,1.43161 14.178,1.13732 18.76563,-3.20899 2.77806,-2.63187 8.89806,-6.31234 13.59961,-8.17773 10.13745,-4.0221 17.48735,-9.25285 28.12109,-20.01563 5.51894,-5.58583 9.48594,-7.92773 13.42969,-7.92773 1.09145,0 3.3969,-0.64268 6.09961,-1.52344 V 488.96484 H 395.79688 Z m 229.63086,41.52539 c -1.67748,0.51899 -3.04497,0.85157 -3.8086,0.85157 -3.43838,0 -8.59494,3.23503 -15.79687,9.91406 -5.88038,5.45344 -15.64379,12.15504 -21.69727,14.89062 -6.05351,2.7357 -13.85114,7.46163 -17.32812,10.50196 -5.9689,5.21937 -7.13381,5.43929 -20.8457,3.94922 l -14.52149,-1.57813 -7.0039,9.44922 c -6.84155,9.23134 -7.20855,9.42853 -15.84376,8.52148 -10.86756,-1.14141 -27.96572,-8.73005 -39.52539,-17.54296 -10.33077,-7.87609 -14.62985,-8.13061 -30.99218,-1.83985 -12.14454,4.66908 -12.5605,4.68269 -19.39258,0.69336 -4.71911,-2.75542 -13.26412,-4.00325 -22.875,-4.01367 v 32.69531 43.02539 l 19.5625,-0.7832 c 32.41683,-1.29744 40.96545,-2.35399 51.36328,-6.33984 6.86065,-2.62991 14.99918,-4.78819 18.08398,-4.79688 3.28182,-0.008 8.15267,-2.29642 11.74024,-5.51367 3.37232,-3.02411 10.42352,-6.60118 15.66992,-7.94922 20.00576,-5.14031 22.22602,-6.23374 26.9668,-13.27734 3.62354,-5.38364 6.0366,-7.01758 10.36133,-7.01758 3.69596,0 8.10246,-2.32584 12.79296,-6.75 11.8695,-11.19538 15.31971,-9.71611 25.45508,10.9082 5.18215,10.54503 11.79989,16.69429 22.27149,20.69727 6.75831,2.58354 8.10638,2.41008 15.36328,-2.64649 V 596.98242 Z M 140.95508,555.0625 c -1.63481,-0.15136 -2.8858,0.65193 -4.96094,2.29688 -3.511,2.78319 -5.41709,3.02353 -8.95898,1.13085 -0.24948,-0.13331 -0.56783,-0.24938 -0.84571,-0.37695 A 323.17115,323.17115 0 0 0 235.6582,660.77344 v -24.25196 c -2.91491,-0.68006 -5.11275,-2.08741 -7.48828,-4.81445 -2.56931,-2.94958 -6.32202,-6.12141 -8.33984,-7.04883 -2.01782,-0.92742 -5.97974,-4.47011 -8.80469,-7.87304 -2.82495,-3.40286 -12.75754,-12.72351 -22.07227,-20.71094 -20.96826,-17.98054 -24.67204,-21.50298 -29.29101,-27.86328 -2.01783,-2.7786 -7.16435,-7.15147 -11.4375,-9.71875 -3.61491,-2.17174 -5.63472,-3.27833 -7.26953,-3.42969 z m 58.75586,7.71094 -7.39649,8.38867 -7.39648,8.39062 12.68555,11.02344 c 6.9779,6.06346 14.00878,12.82987 15.62304,15.03711 1.61432,2.20728 8.13959,8.16398 14.5,13.23633 3.13442,2.49969 5.63648,4.22866 7.93164,5.63672 v -27.42774 -23.0039 c -9.57217,4.18416 -19.86573,2.63156 -28.11132,-4.50196 z m 447.1289,23.83789 c -5.09611,0.44916 -14.82192,4.98127 -25.64453,12.20117 -9.23626,6.16165 -16.193,9.77903 -30.05469,15.62891 -8.75913,3.69642 -15.11142,4.52447 -35.20703,4.625 v 22.67968 c 1.18747,0.17189 2.30789,0.3823 3.62696,0.49414 8.02226,0.68019 12.1532,1.93292 19.22461,6.52149 a 323.17115,323.17115 0 0 0 68.05468,-62.15039 z m -187.53711,5.6914 c -2.14463,-0.17336 -5.14253,1.63655 -8.75781,5.40235 -3.47595,3.62071 -7.43566,5.62304 -11.11719,5.62304 -4.45621,0 -6.95364,1.70959 -11.3125,7.7461 -3.44745,4.7743 -7.73779,8.26205 -11.18359,9.08984 -3.07487,0.73882 -7.97786,2.31477 -10.89648,3.50196 -2.91867,1.18718 -6.98145,2.1582 -9.02735,2.1582 -2.04589,0 -8.71889,3.9178 -14.82812,8.70703 -6.10922,4.78927 -15.55061,10.42024 -20.98242,12.51172 -6.01276,2.31526 -12.56455,6.82748 -16.75,11.53711 -3.78095,4.25465 -7.83394,7.73633 -9.00586,7.73633 -1.17187,0 -5.05215,3.48935 -8.62305,7.7539 -3.00131,3.58441 -11.37591,11.05825 -19.95508,17.97071 A 323.17115,323.17115 0 0 0 396.84961,705 323.17115,323.17115 0 0 0 510.61133,683.25977 v -48.70899 c -18.81678,-3.25392 -30.53517,-10.00384 -39.28125,-22.68359 -4.29132,-6.22137 -8.19716,-13.21811 -8.67969,-15.54883 -0.52728,-2.54657 -1.67961,-3.88079 -3.34766,-4.01563 z m -118.40234,55.7168 -8.07031,1.21485 c -4.43927,0.66911 -23.0923,1.44753 -41.44922,1.73046 l -10.40039,0.16016 v 31.35547 a 323.17115,323.17115 0 0 0 14.29492,5.82617 c 3.08939,-2.34988 6.49827,-4.92782 9.91992,-7.4668 7.805,-5.79148 16.01859,-13.45391 18.25196,-17.02734 2.23336,-3.57343 5.42282,-6.5194 7.08789,-6.54688 1.665,-0.0264 4.67944,-2.11917 6.69726,-4.64843 z m 215.0332,4.86914 v 9.11914 a 323.17115,323.17115 0 0 0 12.28907,-6.57422 c -4.16498,-1.90077 -7.61652,-2.496 -12.28907,-2.54492 z"
       transform="scale(0.26458333)" />
  </g>
</svg>
