<?xml version="1.0" standalone="no"?>
<!DOCTYPE svg PUBLIC "-//W3C//DTD SVG 20010904//EN"
 "http://www.w3.org/TR/2001/REC-SVG-20010904/DTD/svg10.dtd">
<svg version="1.0" xmlns="http://www.w3.org/2000/svg"
 width="700.000000pt" height="700.000000pt" viewBox="0 0 700.000000 700.000000"
 preserveAspectRatio="xMidYMid meet">
<metadata>
Created by potrace 1.14, written by Peter Selinger 2001-2017
</metadata>
<g transform="translate(0.000000,700.000000) scale(0.100000,-0.100000)"
fill="#000000" stroke="none">
<path d="M3278 6996 c-1 -2 -39 -6 -83 -10 -133 -10 -220 -23 -435 -65 -154
-31 -472 -130 -597 -187 -28 -13 -54 -24 -58 -24 -13 0 -287 -140 -380 -194
-88 -52 -251 -158 -295 -193 -8 -6 -51 -40 -95 -74 -90 -70 -221 -187 -317
-283 -509 -509 -859 -1194 -972 -1901 -22 -137 -20 -123 -33 -265 -15 -161 -8
-605 11 -707 2 -10 7 -43 10 -74 4 -31 9 -67 11 -80 3 -13 7 -38 9 -54 17
-124 143 -572 185 -660 6 -11 21 -47 35 -80 47 -115 150 -320 218 -435 91
-153 306 -446 392 -536 12 -12 55 -57 97 -100 119 -125 156 -155 182 -149 58
12 104 16 254 22 128 4 170 3 200 -9 44 -17 50 -16 194 8 90 15 112 16 118 5
16 -25 1 -49 -27 -46 -15 1 -70 -8 -123 -19 -68 -15 -105 -19 -130 -13 -97 24
-154 28 -274 23 -71 -3 -143 -9 -160 -14 -29 -8 -29 -9 97 -109 69 -55 178
-135 241 -177 l115 -77 123 6 c68 4 127 9 131 11 9 6 10 -3 10 -70 0 -35 -5
-54 -17 -62 -15 -11 -15 -13 4 -24 12 -6 26 -8 31 -5 6 4 10 314 10 860 l0
854 -82 3 -82 3 -93 275 c-50 151 -92 287 -93 303 0 21 5 27 23 28 12 1 87 2
167 4 80 2 148 4 153 4 4 1 7 231 7 511 l0 510 -57 1 c-32 0 -109 0 -171 -1
-133 -1 -103 -25 -258 206 -164 245 -246 375 -240 381 5 6 171 5 203 -1 10 -2
90 -7 178 -11 88 -4 178 -8 200 -10 147 -12 826 -20 1705 -20 1074 0 1557 8
1845 30 22 2 125 6 228 10 l188 8 -54 -90 c-30 -50 -111 -173 -179 -274 -67
-101 -126 -192 -130 -201 -5 -13 -19 -18 -50 -19 -24 0 -65 -2 -93 -4 -27 -2
-87 -6 -133 -8 -46 -3 -86 -7 -89 -10 -3 -3 -7 -138 -9 -299 -2 -161 -6 -386
-8 -500 -1 -115 0 -208 3 -209 3 0 86 -2 184 -4 98 -2 181 -6 184 -8 6 -6
-184 -578 -196 -590 -4 -4 -43 -10 -87 -13 -43 -4 -81 -9 -84 -11 -9 -8 -5
-1713 4 -1713 10 0 230 115 260 136 16 11 17 14 5 14 -9 0 -36 11 -60 23 -24
13 -57 27 -73 31 -16 4 -43 18 -59 32 -16 13 -35 24 -43 24 -9 0 -14 11 -14
30 0 26 4 30 28 30 18 0 38 -11 57 -30 16 -17 47 -35 69 -41 23 -6 52 -19 66
-29 14 -10 46 -21 70 -25 42 -6 50 -4 115 41 63 43 223 161 235 174 3 3 17 15
32 27 47 36 178 155 178 162 0 4 -19 16 -42 26 -24 10 -77 34 -118 53 -80 37
-170 71 -343 132 -60 20 -122 47 -138 60 -29 20 -34 21 -102 10 -40 -6 -80
-14 -89 -16 -14 -4 -18 1 -18 24 0 32 -1 32 140 48 30 4 58 8 61 10 4 2 13 -3
20 -12 20 -24 94 -58 219 -99 118 -39 274 -102 392 -160 l67 -32 59 61 c52 54
82 87 177 197 45 52 155 200 213 286 195 290 360 646 455 983 40 139 38 131
71 295 44 221 58 363 61 620 1 132 -1 276 -5 320 -15 151 -21 210 -25 225 -2
8 -7 35 -10 60 -17 129 -80 384 -136 552 -400 1191 -1419 2085 -2647 2323 -42
9 -93 18 -112 20 -19 3 -46 7 -60 10 -13 2 -52 7 -86 11 -33 3 -74 8 -90 10
-32 5 -540 14 -546 10z"/>
<path d="M2409 3730 c0 -3 -1 -233 -2 -513 -1 -332 1 -507 8 -508 27 -3 851
-5 860 -2 8 2 11 168 10 514 l0 510 -437 2 c-241 1 -438 0 -439 -3z"/>
<path d="M3773 3732 l-41 -3 1 -512 2 -511 415 -1 c228 0 421 1 428 3 9 3 12
115 12 513 l0 509 -112 0 c-62 1 -237 2 -388 3 -151 1 -294 1 -317 -1z"/>
<path d="M2409 2073 c-3 -15 -3 -1860 0 -1885 2 -11 237 -80 376 -109 33 -7
65 -14 70 -15 21 -5 152 -25 190 -30 22 -3 49 -7 61 -9 125 -26 601 -26 799 0
182 24 255 38 399 72 l149 37 -48 41 c-56 49 -195 111 -275 124 -97 16 -319
81 -345 101 -22 17 -144 47 -200 49 -41 1 -87 13 -145 36 -98 38 -143 51 -220
60 -164 19 -260 71 -358 194 l-19 25 -55 -27 c-30 -15 -76 -31 -101 -36 -26
-4 -70 -25 -99 -44 -43 -29 -111 -55 -149 -57 -10 0 -8 50 2 56 5 3 21 8 36
10 29 6 66 25 103 54 14 11 49 24 78 30 29 5 72 21 95 35 73 42 109 39 155
-14 65 -75 102 -106 147 -127 83 -37 122 -39 190 -9 70 31 92 34 345 39 107 3
206 7 220 10 48 11 146 44 285 96 144 54 181 64 225 63 21 0 92 -26 226 -83
16 -6 20 -15 17 -35 -6 -30 -3 -30 -138 22 -49 19 -99 36 -110 37 -28 4 -73
-9 -216 -65 -226 -87 -284 -97 -569 -100 -96 -1 -186 -6 -200 -11 -29 -12 -37
-7 100 -58 95 -36 102 -38 185 -46 80 -8 127 -20 208 -55 89 -39 244 -86 324
-99 92 -15 187 -56 278 -120 96 -68 108 -73 140 -58 l25 11 0 954 0 953 -1089
0 c-1029 0 -1089 -1 -1092 -17z m1976 -684 c6 -3 47 -27 93 -55 77 -46 82 -51
82 -82 l0 -34 -32 19 c-18 11 -67 41 -109 67 -106 65 -100 66 -355 -17 -93
-30 -225 -67 -294 -80 -179 -37 -282 -62 -391 -96 -54 -16 -122 -34 -152 -40
-30 -5 -72 -19 -94 -29 -107 -55 -155 -77 -228 -103 -44 -16 -98 -39 -120 -51
-32 -17 -57 -21 -120 -21 -44 1 -97 4 -117 7 -32 5 -43 1 -72 -24 -18 -17 -36
-30 -39 -30 -16 0 -1 62 20 82 23 21 33 23 152 23 99 0 132 4 151 16 14 9 63
28 110 43 47 15 129 52 184 82 56 31 116 57 140 60 22 3 111 25 196 49 151 42
265 68 344 80 64 9 183 42 316 86 69 23 152 47 185 54 54 10 125 7 150 -6z"/>
<path d="M1792 459 c-14 -5 -14 -7 5 -17 31 -17 58 -15 84 8 l24 20 -48 -3
c-26 -1 -55 -5 -65 -8z"/>
</g>
</svg>
