<?xml version="1.0" encoding="UTF-8" standalone="no"?>
<!-- Created with Inkscape (http://www.inkscape.org/) -->

<svg
   version="1.1"
   id="svg69"
   width="602.32355"
   height="555.66187"
   viewBox="0 0 602.32355 555.66187"
   sodipodi:docname="logo1.svg"
   inkscape:version="1.1 (c68e22c387, 2021-05-23)"
   xmlns:inkscape="http://www.inkscape.org/namespaces/inkscape"
   xmlns:sodipodi="http://sodipodi.sourceforge.net/DTD/sodipodi-0.dtd"
   xmlns="http://www.w3.org/2000/svg"
   xmlns:svg="http://www.w3.org/2000/svg">
  <defs
     id="defs73">
    <clipPath
       clipPathUnits="userSpaceOnUse"
       id="clipPath3367">
      <rect
         style="fill:#000000;fill-opacity:0;stroke:#000203;stroke-width:9.12132;stroke-miterlimit:4;stroke-dasharray:none;stroke-opacity:1"
         id="rect3369"
         width="628.42419"
         height="455.00882"
         x="318.10532"
         y="733.25427" />
    </clipPath>
    <clipPath
       clipPathUnits="userSpaceOnUse"
       id="clipPath1092">
      <rect
         style="fill:#040000;fill-opacity:0.000519038;stroke:#000000;stroke-width:1.27028"
         id="rect1094"
         width="623.34357"
         height="435.79663"
         x="328.37155"
         y="660.35077" />
    </clipPath>
  </defs>
  <sodipodi:namedview
     id="namedview71"
     pagecolor="#ffffff"
     bordercolor="#666666"
     borderopacity="1.0"
     inkscape:pageshadow="2"
     inkscape:pageopacity="0.0"
     inkscape:pagecheckerboard="0"
     showgrid="false"
     width="1500px"
     inkscape:zoom="0.39520958"
     inkscape:cx="-337.79546"
     inkscape:cy="103.74242"
     inkscape:window-width="1880"
     inkscape:window-height="1403"
     inkscape:window-x="680"
     inkscape:window-y="0"
     inkscape:window-maximized="0"
     inkscape:current-layer="g75"
     fit-margin-top="0"
     fit-margin-left="0"
     fit-margin-right="0"
     fit-margin-bottom="0" />
  <g
     inkscape:groupmode="layer"
     inkscape:label="Image"
     id="g75"
     transform="translate(-389.95196,-778.11422)">
    <g
       id="g3289">
      <g
         id="g2564"
         transform="translate(-194.83807,795.73513)">
        <g
           id="g1855"
           transform="translate(102.67509,-277.24625)">
          <path
             style="fill:#000000;stroke-width:1.08763"
             d="m 494.28353,799.39724 c 20.03101,-52.2261 112.74503,-177.40632 176.41124,-238.18619 21.45143,-20.47892 36.31257,-30.89281 46.37165,-32.49476 4.44178,-0.70737 14.19387,3.34942 22.84593,9.50373 17.76982,12.63987 45.91802,40.67902 75.24858,74.95704 l 15.87408,18.5517 -9.29168,11.61705 c -24.09114,30.12029 -53.14884,71.15783 -68.63787,96.93563 -9.9343,16.5334 -22.07555,40.7435 -27.45713,54.7506 l -4.13961,10.7746 -114.94696,0.2743 -114.94696,0.2744 z m 269.89516,1.2915 c 13.92728,-33.2177 60.52801,-102.88648 100.9064,-150.85668 14.90842,-17.71143 40.50655,-42.6941 48.11164,-46.95486 7.5935,-4.25428 12.05966,-4.32129 19.21341,-0.28831 29.54544,16.65648 105.06376,112.99485 140.39666,179.10335 3.9213,7.3369 8.1426,15.8853 9.3807,18.9965 l 2.251,5.6566 H 923.12274 761.807 Z"
             id="path2013"
             sodipodi:nodetypes="ssssscssscccssssssscccs" />
          <path
             style="fill:#000000;stroke:#fcfeff;stroke-width:9.5;stroke-miterlimit:4;stroke-dasharray:none;stroke-opacity:1"
             d="m 642.49137,720.88338 v -89.65347 h -6.80596 -6.80599 l -8.6211,-25.05081 c -4.74158,-13.77776 -8.62109,-26.35815 -8.62109,-27.95648 0,-2.33077 3.05332,-2.90549 15.42708,-2.90549 h 15.42706 v -43.38092 -43.38078 h -14.9151 -14.91511 l -17.73814,-26.5105 c -9.75595,-14.58084 -17.43886,-26.8273 -17.07312,-27.21462 0.36567,-0.38893 19.91924,0.48009 43.45221,1.92804 57.89392,3.56156 253.94425,3.56156 311.83819,0 23.53297,-1.44795 43.25838,-2.19097 43.83408,-1.65132 0.5758,0.53963 -6.70244,12.56935 -16.17383,26.73291 l -17.22066,25.75166 -15.30021,0.96383 -15.30018,0.96422 -0.55358,42.89872 -0.55361,42.89876 h 16.4949 c 9.0722,0 16.47436,0.65064 16.44929,1.44589 -0.0259,0.79526 -4.04001,13.15883 -8.92198,27.47433 l -8.87633,26.02824 -7.53358,0.59879 -7.53359,0.59839 v 89.53721 89.53724 H 891.3816 870.81214 v -89.65384 -89.65347 h -93.59091 -93.59096 v 89.65347 89.65384 H 663.06081 642.49137 Z M 757.68023,531.93621 v -43.38078 h -37.02497 -37.02499 v 43.38078 43.38092 h 37.02499 37.02497 z m 113.13191,0 v -43.38078 h -35.99651 -35.9965 v 43.38078 43.38092 h 35.9965 35.99651 z"
             id="path658" />
        </g>
      </g>
      <path
         id="path3171"
         style="fill:none;fill-opacity:0.000519038;stroke:#000203;stroke-width:9.5"
         d="M 523.07377,1314.2013 A 290.36166,290.36166 0 0 1 394.70196,1073.2258 290.36166,290.36166 0 0 1 685.06364,782.86422 290.36166,290.36166 0 0 1 975.42544,1073.2258 v 0 a 290.36166,290.36166 0 0 1 -106.3272,224.5912" />
    </g>
  </g>
</svg>
