<svg xmlns:dc="http://purl.org/dc/elements/1.1/" xmlns:cc="http://creativecommons.org/ns#" xmlns:rdf="http://www.w3.org/1999/02/22-rdf-syntax-ns#" xmlns:svg="http://www.w3.org/2000/svg" xmlns="http://www.w3.org/2000/svg" xmlns:sodipodi="http://sodipodi.sourceforge.net/DTD/sodipodi-0.dtd" xmlns:inkscape="http://www.inkscape.org/namespaces/inkscape" viewBox="0 0 96.000001 120.0000025" version="1.1" x="0px" y="0px"><g transform="translate(0,-956.36216)"><rect style="opacity:1;fill:#000000;fill-opacity:1;stroke:none;stroke-width:2;stroke-linecap:round;stroke-linejoin:miter;stroke-miterlimit:10;stroke-dasharray:none;stroke-opacity:1" width="10" height="79.000809" x="17.141066" y="971.56525" rx="0.46769264" ry="0.44435692"/><rect ry="0.44435692" rx="0.46769264" y="971.56525" x="68.858932" height="79.000809" width="10" style="opacity:1;fill:#000000;fill-opacity:1;stroke:none;stroke-width:2;stroke-linecap:round;stroke-linejoin:miter;stroke-miterlimit:10;stroke-dasharray:none;stroke-opacity:1"/><path style="opacity:1;fill:#000000;fill-opacity:1;stroke:none;stroke-width:2;stroke-linecap:round;stroke-linejoin:miter;stroke-miterlimit:10;stroke-dasharray:none;stroke-opacity:1" d="m 86.130126,993.47536 -4.027902,12.69044 c -0.103671,0.3267 -0.199353,0.6548 -0.446979,0.6548 l -67.3105,0 c -0.247627,0 -0.343309,-0.3281 -0.44698,-0.6548 L 9.869863,993.47536 c -0.1036716,-0.32664 0.198961,-0.65544 0.44698,-0.65477 24.342728,0.0659 51.675851,0 75.366303,0 0.248166,0 0.550652,0.32813 0.44698,0.65477 z"/><path style="opacity:1;fill:#000000;fill-opacity:1;stroke:none;stroke-width:2;stroke-linecap:round;stroke-linejoin:miter;stroke-miterlimit:10;stroke-dasharray:none;stroke-opacity:1" d="m 93.761405,958.81375 -7.843539,12.68987 c -0.167335,0.27073 -0.199353,0.65473 -0.446979,0.65473 l -74.941776,0 c -0.247627,0 -0.279644,-0.384 -0.44698,-0.65473 L 2.238593,958.81375 c -0.1673472,-0.27075 0.1999161,-0.67422 0.4469793,-0.65475 30.0068707,2.36527 60.2188357,2.33789 90.6288537,0 0.24709,-0.019 0.614326,0.384 0.446979,0.65475 z"/><rect ry="0.14013858" rx="0.46769264" y="-992.93842" x="-53" height="24.914795" width="10" style="opacity:1;fill:#000000;fill-opacity:1;stroke:none;stroke-width:2;stroke-linecap:round;stroke-linejoin:miter;stroke-miterlimit:10;stroke-dasharray:none;stroke-opacity:1" transform="scale(-1,-1)"/></g><text x="0" y="111.000002" fill="#000000" font-size="5px" font-weight="bold" font-family="'Helvetica Neue', Helvetica, Arial-Unicode, Arial, Sans-serif">Created by Kyle Dodson</text><text x="0" y="116.000002" fill="#000000" font-size="5px" font-weight="bold" font-family="'Helvetica Neue', Helvetica, Arial-Unicode, Arial, Sans-serif">from the Noun Project</text></svg>