<?xml version="1.0" standalone="no"?>
<!DOCTYPE svg PUBLIC "-//W3C//DTD SVG 20010904//EN"
 "http://www.w3.org/TR/2001/REC-SVG-20010904/DTD/svg10.dtd">
<svg version="1.0" xmlns="http://www.w3.org/2000/svg"
 width="590.000000pt" height="590.000000pt" viewBox="0 0 590.000000 590.000000"
 preserveAspectRatio="xMidYMid meet">
<metadata>
Created by potrace 1.14, written by Peter Selinger 2001-2017
</metadata>
<g transform="translate(0.000000,590.000000) scale(0.100000,-0.100000)"
fill="#000000" stroke="none">
<path d="M103 5853 c-7 -3 -13 -12 -13 -20 0 -13 73 -138 211 -359 24 -38 49
-79 56 -90 6 -10 44 -71 83 -134 39 -63 77 -124 83 -135 7 -11 24 -38 38 -60
14 -22 28 -47 31 -56 5 -13 34 -16 212 -16 114 0 208 -2 211 -5 4 -3 6 -527 5
-1170 l0 -118 -222 -2 c-222 -3 -223 -3 -226 -25 -2 -12 24 -109 58 -215 34
-106 75 -233 90 -283 90 -282 112 -345 123 -346 7 -1 49 -2 95 -3 l82 -1 0
-1356 c0 -1077 2 -1359 12 -1367 15 -11 586 -12 604 0 7 5 10 408 10 1358 -1
744 1 1355 4 1359 3 4 590 7 1304 7 l1300 -1 0 -1355 c1 -745 4 -1360 8 -1366
9 -14 587 -16 605 -2 8 7 11 337 12 1316 0 719 0 1330 0 1358 l1 51 83 -2 c45
0 87 1 94 3 7 2 41 95 77 205 35 111 94 296 131 410 36 114 65 218 63 230 -3
22 -4 22 -225 25 l-223 2 -1 63 c-3 330 1 1220 5 1224 3 4 99 7 213 7 151 1
207 4 210 13 3 7 86 144 185 305 100 161 204 330 232 376 28 46 59 95 68 110
34 54 18 75 -52 67 -33 -3 -124 -10 -270 -20 -252 -17 -287 -19 -485 -30 -185
-10 -237 -13 -415 -20 -91 -4 -193 -8 -227 -10 -501 -28 -2255 -28 -2828 0
-44 2 -138 7 -210 10 -71 3 -168 8 -215 10 -47 3 -132 7 -190 10 -99 5 -132 7
-320 20 -41 3 -106 7 -145 10 -38 3 -104 7 -145 10 -147 11 -175 12 -187 8z
m2528 -872 c3 -1 6 -291 6 -646 l0 -645 -493 0 c-385 0 -493 3 -496 13 -3 10
-2 1238 1 1272 1 7 170 9 488 8 269 -1 491 -2 494 -2z m1609 0 c13 -1 15 -80
15 -646 l0 -645 -496 0 -496 0 0 644 c-1 578 1 645 15 648 13 3 916 1 962 -1z"/>
</g>
</svg>
